<?xml version="1.0" encoding="UTF-8"?>
<!DOCTYPE svg PUBLIC "-//W3C//DTD SVG 1.1//EN" "http://www.w3.org/Graphics/SVG/1.1/DTD/svg11.dtd">
<!-- Creator: CorelDRAW 2017 -->
<svg xmlns="http://www.w3.org/2000/svg" xml:space="preserve" width="7.04mm" height="7.04mm" version="1.1" style="shape-rendering:geometricPrecision; text-rendering:geometricPrecision; image-rendering:optimizeQuality; fill-rule:evenodd; clip-rule:evenodd"
viewBox="0 0 704 704"
 xmlns:xlink="http://www.w3.org/1999/xlink">
 <defs>
  <style type="text/css">
   <![CDATA[
    .fil0 {fill:#96989A}
   ]]>
  </style>
 </defs>
 <g id="Capa_x0020_1">
  <metadata id="CorelCorpID_0Corel-Layer"/>
  <path class="fil0" d="M88.77 615.34c-1.6,-9.83 -0.51,-92.51 -0.51,-109.9 0,-19.08 2.08,-32.98 -8.05,-47.24 -17.9,-25.26 -55.09,-24.9 -72.45,0.99 -9.5,14.16 -7.41,28.3 -7.41,47.49 0,36.21 0,72.41 0,109.01 0,39.13 -5.4,69.77 26.67,83.95 14.99,6.62 83.4,3.57 105.05,3.59l439.75 0c24.33,0 89.67,3.36 106.05,-4.06 11.18,-5.07 21.27,-15.24 24.42,-29.94 2.79,-13.03 1.3,-144.27 1.3,-163.79 0,-19.54 2.01,-32.65 -7.92,-47.04 -17.2,-24.98 -54.54,-25.72 -72.46,0.56 -9.47,13.89 -7.53,29.21 -7.53,47.72 0,34.41 1.9,74.42 -0.15,108.64l-526.76 0.02zm218.99 -238.99c-5.61,-3.45 -89.52,-88.63 -96.19,-95.36 -20.71,-20.88 -46.71,-24.19 -66.46,-4.07 -22.02,22.41 -13.43,48.97 4.13,66.41l156.67 156.79c12.59,12.81 24.37,26.99 45.41,27.27 26.01,0.33 37.95,-20.15 57.66,-38.61 15.95,-14.92 32.3,-32.17 48.44,-48.18 20.91,-20.74 52.99,-54.72 72.39,-72.56 8.81,-8.11 14.36,-15.11 24.19,-24.12 48.4,-44.32 -12.98,-111.79 -61.03,-63.5 -6.39,6.42 -91.67,92.98 -96.79,95.92 -1.67,-21.69 -0.29,-183.39 -0.26,-209.08 0.06,-35.09 0,-70.19 0.01,-105.3 0,-17.14 0.66,-32 -8.27,-43.78 -12.88,-16.99 -35.27,-23.62 -56.1,-13.13 -21.93,11.05 -23.54,30.72 -23.54,55.67l0 262.63c0,16.56 1.04,36.9 -0.26,53z"/>
 </g>
</svg>
