<?xml version="1.0" encoding="UTF-8"?>
<!DOCTYPE svg PUBLIC "-//W3C//DTD SVG 1.1//EN" "http://www.w3.org/Graphics/SVG/1.1/DTD/svg11.dtd">
<!-- Creator: CorelDRAW 2017 -->
<svg xmlns="http://www.w3.org/2000/svg" xml:space="preserve" width="5.7572mm" height="5.7572mm" version="1.1" style="shape-rendering:geometricPrecision; text-rendering:geometricPrecision; image-rendering:optimizeQuality; fill-rule:evenodd; clip-rule:evenodd"
viewBox="0 0 575.72 575.72"
 xmlns:xlink="http://www.w3.org/1999/xlink">
 <defs>
  <style type="text/css">
   <![CDATA[
    .str0 {stroke:#373435;stroke-width:50;stroke-linecap:round;stroke-linejoin:round;stroke-miterlimit:22.9256}
    .str1 {stroke:#FEFEFE;stroke-width:25;stroke-linecap:round;stroke-linejoin:round;stroke-miterlimit:22.9256}
    .fil1 {fill:none}
    .fil0 {fill:#FEFEFE}
    .fil2 {fill:#040608}
    .fil3 {fill:url(#id0)}
   ]]>
  </style>
  <linearGradient id="id0" gradientUnits="userSpaceOnUse" x1="112.15" y1="422.99" x2="571.99" y2="523.81">
   <stop offset="0" style="stop-opacity:1; stop-color:#0043C9"/>
   <stop offset="0.290196" style="stop-opacity:1; stop-color:#0066D0"/>
   <stop offset="0.670588" style="stop-opacity:1; stop-color:#0098DA"/>
   <stop offset="1" style="stop-opacity:1; stop-color:#0043C9"/>
  </linearGradient>
 </defs>
 <g id="Capa_x0020_1">
  <metadata id="CorelCorpID_0Corel-Layer"/>
  <rect class="fil0" x="-0" y="-0" width="575.73" height="575.73"/>
  <g>
   <path class="fil1 str0" d="M518.34 363.49c-8.63,55.75 -16.95,96.35 -86.67,114.5 -20.27,5.27 -32.4,-0.15 -48.23,2.53l-2.55 15.35c69.76,19.49 149.34,-30.77 154.8,-127.19l-17.35 -5.19zm-308.51 -87.66c-30.96,-20.72 -52.31,-41.31 -98.63,-19.18 -13.56,6.48 -16.23,1.55 -16.31,40.93l0 1.91c0,31.75 29.09,60.84 60.85,60.84 27.13,0 46.13,-8.77 60.14,-29.45 2.55,-3.76 5.3,-9.26 7.4,-12.88 17.86,-30.77 43.44,-103.27 65.02,-139.47 2.77,-4.65 6.41,-9.24 7.74,-14.23l48.34 12.51c24.87,6.21 97.21,25.53 119.51,34.3 7.2,2.83 16.29,7.36 23.16,8.96 -5.18,9.77 -8.84,19.49 -14.1,29.84l-41.68 91.83c-10.18,-6.81 -18.43,-14.46 -29.86,-20.85 -75.4,-42.14 -114.25,44.99 -68.63,85.51 16.7,14.84 34.7,18.04 56.86,18.14l1.06 0c40.36,0 53.75,-45.16 66.48,-70.41l64.65 -131.4c6.92,-16.76 29.85,-64.87 31.14,-80.4 -8.56,-0.71 -112.08,-33.02 -124.11,-36.46 -11.19,-3.19 -117.1,-36.04 -124.37,-36.2 -1.98,8.51 -7.41,18.14 -11.29,25.89l-83.37 180.27zm-146.03 -28.08l16.49 3.51c11.01,-28.32 7.58,-45.35 38.73,-64.96 18.02,-11.36 43.5,-15.82 70.31,-6.42l1.02 -18.65c-58.96,-22.62 -120.85,24.43 -126.55,86.52zm-33.91 -6.02l15.53 3.45c10.75,-35.29 17.31,-93.44 93.02,-106 19.13,-3.18 31.73,2.06 50.98,2.17 2.74,-15.32 3.84,-17.09 -13.8,-20.7 -76.58,-15.69 -155.86,63.07 -145.73,121.08zm455.53 114.1c-10.89,11.36 5.55,38.03 -31,69.57 -25.73,22.22 -47.62,17.42 -67.48,19.15l-2.66 13.96c9.27,8.77 102.78,17.16 116.97,-96.92l-15.83 -5.76z"/>
   <path id="1" class="fil2" d="M518.34 363.49c-8.63,55.75 -16.95,96.35 -86.67,114.5 -20.27,5.27 -32.4,-0.15 -48.23,2.53l-2.55 15.35c69.76,19.49 149.34,-30.77 154.8,-127.19l-17.35 -5.19zm-308.51 -87.66c-30.96,-20.72 -52.31,-41.31 -98.63,-19.18 -13.56,6.48 -16.23,1.55 -16.31,40.93l0 1.91c0,31.75 29.09,60.84 60.85,60.84 27.13,0 46.13,-8.77 60.14,-29.45 2.55,-3.76 5.3,-9.26 7.4,-12.88 17.86,-30.77 43.44,-103.27 65.02,-139.47 2.77,-4.65 6.41,-9.24 7.74,-14.23l48.34 12.51c24.87,6.21 97.21,25.53 119.51,34.3 7.2,2.83 16.29,7.36 23.16,8.96 -5.18,9.77 -8.84,19.49 -14.1,29.84l-41.68 91.83c-10.18,-6.81 -18.43,-14.46 -29.86,-20.85 -75.4,-42.14 -114.25,44.99 -68.63,85.51 16.7,14.84 34.7,18.04 56.86,18.14l1.06 0c40.36,0 53.75,-45.16 66.48,-70.41l64.65 -131.4c6.92,-16.76 29.85,-64.87 31.14,-80.4 -8.56,-0.71 -112.08,-33.02 -124.11,-36.46 -11.19,-3.19 -117.1,-36.04 -124.37,-36.2 -1.98,8.51 -7.41,18.14 -11.29,25.89l-83.37 180.27zm-146.03 -28.08l16.49 3.51c11.01,-28.32 7.58,-45.35 38.73,-64.96 18.02,-11.36 43.5,-15.82 70.31,-6.42l1.02 -18.65c-58.96,-22.62 -120.85,24.43 -126.55,86.52zm-33.91 -6.02l15.53 3.45c10.75,-35.29 17.31,-93.44 93.02,-106 19.13,-3.18 31.73,2.06 50.98,2.17 2.74,-15.32 3.84,-17.09 -13.8,-20.7 -76.58,-15.69 -155.86,63.07 -145.73,121.08zm455.53 114.1c-10.89,11.36 5.55,38.03 -31,69.57 -25.73,22.22 -47.62,17.42 -67.48,19.15l-2.66 13.96c9.27,8.77 102.78,17.16 116.97,-96.92l-15.83 -5.76z"/>
  </g>
  <g>
   <path class="fil1 str1" d="M518.34 363.49c-8.63,55.75 -16.95,96.35 -86.67,114.5 -20.27,5.27 -32.4,-0.15 -48.23,2.53l-2.55 15.35c69.76,19.49 149.34,-30.77 154.8,-127.19l-17.35 -5.19zm-308.51 -87.66c-30.96,-20.72 -52.31,-41.31 -98.63,-19.18 -13.56,6.48 -16.23,1.55 -16.31,40.93l0 1.91c0,31.75 29.09,60.84 60.85,60.84 27.13,0 46.13,-8.77 60.14,-29.45 2.55,-3.76 5.3,-9.26 7.4,-12.88 17.86,-30.77 43.44,-103.27 65.02,-139.47 2.77,-4.65 6.41,-9.24 7.74,-14.23l48.34 12.51c24.87,6.21 97.21,25.53 119.51,34.3 7.2,2.83 16.29,7.36 23.16,8.96 -5.18,9.77 -8.84,19.49 -14.1,29.84l-41.68 91.83c-10.18,-6.81 -18.43,-14.46 -29.86,-20.85 -75.4,-42.14 -114.25,44.99 -68.63,85.51 16.7,14.84 34.7,18.04 56.86,18.14l1.06 0c40.36,0 53.75,-45.16 66.48,-70.41l64.65 -131.4c6.92,-16.76 29.85,-64.87 31.14,-80.4 -8.56,-0.71 -112.08,-33.02 -124.11,-36.46 -11.19,-3.19 -117.1,-36.04 -124.37,-36.2 -1.98,8.51 -7.41,18.14 -11.29,25.89l-83.37 180.27zm-146.03 -28.08l16.49 3.51c11.01,-28.32 7.58,-45.35 38.73,-64.96 18.02,-11.36 43.5,-15.82 70.31,-6.42l1.02 -18.65c-58.96,-22.62 -120.85,24.43 -126.55,86.52zm-33.91 -6.02l15.53 3.45c10.75,-35.29 17.31,-93.44 93.02,-106 19.13,-3.18 31.73,2.06 50.98,2.17 2.74,-15.32 3.84,-17.09 -13.8,-20.7 -76.58,-15.69 -155.86,63.07 -145.73,121.08zm455.53 114.1c-10.89,11.36 5.55,38.03 -31,69.57 -25.73,22.22 -47.62,17.42 -67.48,19.15l-2.66 13.96c9.27,8.77 102.78,17.16 116.97,-96.92l-15.83 -5.76z"/>
   <path id="1" class="fil3" d="M518.34 363.49c-8.63,55.75 -16.95,96.35 -86.67,114.5 -20.27,5.27 -32.4,-0.15 -48.23,2.53l-2.55 15.35c69.76,19.49 149.34,-30.77 154.8,-127.19l-17.35 -5.19zm-308.51 -87.66c-30.96,-20.72 -52.31,-41.31 -98.63,-19.18 -13.56,6.48 -16.23,1.55 -16.31,40.93l0 1.91c0,31.75 29.09,60.84 60.85,60.84 27.13,0 46.13,-8.77 60.14,-29.45 2.55,-3.76 5.3,-9.26 7.4,-12.88 17.86,-30.77 43.44,-103.27 65.02,-139.47 2.77,-4.65 6.41,-9.24 7.74,-14.23l48.34 12.51c24.87,6.21 97.21,25.53 119.51,34.3 7.2,2.83 16.29,7.36 23.16,8.96 -5.18,9.77 -8.84,19.49 -14.1,29.84l-41.68 91.83c-10.18,-6.81 -18.43,-14.46 -29.86,-20.85 -75.4,-42.14 -114.25,44.99 -68.63,85.51 16.7,14.84 34.7,18.04 56.86,18.14l1.06 0c40.36,0 53.75,-45.16 66.48,-70.41l64.65 -131.4c6.92,-16.76 29.85,-64.87 31.14,-80.4 -8.56,-0.71 -112.08,-33.02 -124.11,-36.46 -11.19,-3.19 -117.1,-36.04 -124.37,-36.2 -1.98,8.51 -7.41,18.14 -11.29,25.89l-83.37 180.27zm-146.03 -28.08l16.49 3.51c11.01,-28.32 7.58,-45.35 38.73,-64.96 18.02,-11.36 43.5,-15.82 70.31,-6.42l1.02 -18.65c-58.96,-22.62 -120.85,24.43 -126.55,86.52zm-33.91 -6.02l15.53 3.45c10.75,-35.29 17.31,-93.44 93.02,-106 19.13,-3.18 31.73,2.06 50.98,2.17 2.74,-15.32 3.84,-17.09 -13.8,-20.7 -76.58,-15.69 -155.86,63.07 -145.73,121.08zm455.53 114.1c-10.89,11.36 5.55,38.03 -31,69.57 -25.73,22.22 -47.62,17.42 -67.48,19.15l-2.66 13.96c9.27,8.77 102.78,17.16 116.97,-96.92l-15.83 -5.76z"/>
  </g>
 </g>
</svg>
