<?xml version="1.0" encoding="UTF-8"?>
<!DOCTYPE svg PUBLIC "-//W3C//DTD SVG 1.1//EN" "http://www.w3.org/Graphics/SVG/1.1/DTD/svg11.dtd">
<!-- Creator: CorelDRAW 2017 -->
<svg xmlns="http://www.w3.org/2000/svg" xml:space="preserve" width="5.7572mm" height="5.7572mm" version="1.1" style="shape-rendering:geometricPrecision; text-rendering:geometricPrecision; image-rendering:optimizeQuality; fill-rule:evenodd; clip-rule:evenodd"
viewBox="0 0 575.72 575.72"
 xmlns:xlink="http://www.w3.org/1999/xlink">
 <defs>
  <style type="text/css">
   <![CDATA[
    .fil0 {fill:#040608}
    .fil1 {fill:#FEFEFE}
   ]]>
  </style>
 </defs>
 <g id="Capa_x0020_1">
  <metadata id="CorelCorpID_0Corel-Layer"/>
  <g id="_2368218374400">
   <polygon class="fil0" points="89.23,432.87 312.83,540.35 501.86,142.82 277.19,35.38 "/>
   <path class="fil1" d="M137.27 373.64l188.82 89.96c4.07,-4.01 126.2,-257.01 130.57,-273.31l-189.91 -91.13 -129.48 274.48z"/>
   <path class="fil0" d="M250.38 298.72c-13.08,-10.2 -20.99,-16.19 -39.41,-6.72 -9.11,33.07 28.29,42.89 40.6,20.43 9.92,-18.12 18.33,-43.8 29.06,-59.76 13.18,3.17 64.72,15.72 72.88,21.97l-22.43 48.32c-41.28,-38.67 -58.46,21.16 -19.6,24.98 16.99,1.67 20.61,-11.66 27.19,-25.06 9.73,-19.84 28.21,-54.94 34.29,-74.49l-87.05 -26.04 -35.53 76.37z"/>
   <path class="fil0" d="M65.51 276.59l11.69 -2.93c-4.67,-27.56 -19.94,-69.18 27.1,-103.35 11.89,-8.64 22.2,-9.36 35.28,-15.81 -3.34,-11.3 -3.19,-12.88 -16.37,-9.35 -57.2,15.33 -84.22,95.57 -57.7,131.44z"/>
   <path class="fil0" d="M496.77 323.44c13.05,40.7 21.17,71.03 -19.91,106.96 -11.95,10.44 -22.01,10.88 -31.83,18.06l3.48 11.27c53.87,-10.44 90.76,-71.47 61.77,-138.65l-13.51 2.36z"/>
   <path class="fil0" d="M90.53 269.17l12.36 -3.21c-2.14,-22.92 -10.23,-33.3 4.22,-57.14 8.37,-13.8 24.12,-25.46 45.47,-28.18l-5.63 -12.98c-47.62,4.65 -73.6,57.51 -56.42,101.51z"/>
   <path class="fil0" d="M471.87 329.41c-3.53,11.39 16.65,23.89 2.58,57.65 -9.91,23.77 -26.37,27.94 -39.24,35.84l2.93 10.36c9.25,2.8 75.46,-23.21 46.41,-105.31l-12.68 1.46z"/>
   <path class="fil1" d="M340.5 103.38c4.68,9.32 17.2,12.11 32.85,19.38 9.28,4.31 27.17,18.21 36.28,11.29 -2.34,-9.17 -37.94,-22.38 -48.34,-27.33 -10.65,-5.07 -12.81,-8.54 -20.79,-3.34z"/>
   <path class="fil1" d="M204.11 445.49c-2.34,26.29 20.46,23.43 25.46,11.02 4.69,-11.67 -8.58,-27.22 -25.46,-11.02z"/>
  </g>
 </g>
</svg>
