<?xml version="1.0" encoding="UTF-8"?>
<!DOCTYPE svg PUBLIC "-//W3C//DTD SVG 1.1//EN" "http://www.w3.org/Graphics/SVG/1.1/DTD/svg11.dtd">
<!-- Creator: CorelDRAW 2017 -->
<svg xmlns="http://www.w3.org/2000/svg" xml:space="preserve" width="41.4018mm" height="45.0426mm" version="1.1" style="shape-rendering:geometricPrecision; text-rendering:geometricPrecision; image-rendering:optimizeQuality; fill-rule:evenodd; clip-rule:evenodd"
viewBox="0 0 4140.18 4504.26"
 xmlns:xlink="http://www.w3.org/1999/xlink">
 <defs>
  <style type="text/css">
   <![CDATA[
    .fil0 {fill:black}
   ]]>
  </style>
 </defs>
 <g id="Capa_x0020_1">
  <metadata id="CorelCorpID_0Corel-Layer"/>
  <g id="_2367869189792">
   <path class="fil0" d="M2348.08 3631.9c-26.4,81.15 -14.26,49.37 21.03,89.62 33,37.65 7.14,59.54 79.44,65.56 -13.91,26.31 -25.73,54.43 -40.61,80.24l-244.51 383.81c-27.01,39.05 -76.03,117.87 -109.45,140.27 -66.84,-44.79 -168.7,-200.84 -217.41,-273.96 -35.65,-53.49 -182.44,-259.72 -193.26,-306.19 71.33,-47.79 64.73,-3.51 103.46,-73.73 19.94,-36.16 31.75,-25.09 39.67,-49.58 8.14,-25.16 -5.59,-48.88 -6.24,-78.12 37.99,-18.24 77,-21.34 133.49,-12.72 49.2,7.51 97.79,0.23 146.14,6.86 100.43,13.78 190.08,-2.2 292.09,-2.2l-3.84 30.14zm1791.47 -1122.65l0 33.69c-7.37,82.48 -67.05,160.76 -124.19,233.55 -83.14,105.9 -24.2,65.93 -49.96,127.27l-40.73 47.88c-24.66,29.71 -13.43,20.39 -43.81,44.8 -244.59,196.49 -318.62,286.65 -619.02,436.12 -31.34,15.6 -90.15,41.32 -114.07,63.12l-77.96 91.2c-34.71,44.1 -52.48,47.36 -108.22,68.97 -173.04,67.09 -114.28,28.25 -213.03,141.36 -82.39,94.37 -145.76,57.28 -227.54,38.22l-56.79 88.21c-50.14,87.18 -322.91,527.43 -402.2,580.56 -69.12,-46.32 -238.54,-289.09 -294.76,-373.82l-156.17 -230.49c-45.95,12.27 -31.3,53.28 -126.66,-18.3 -37.19,-27.91 -68.52,-51.84 -100.87,-84.39 -18.59,-18.72 -32.08,-29.91 -46.28,-50.37 -15.22,-21.93 -20.33,-36.04 -46.55,-50.12 -37.94,-20.36 -93.12,-29.09 -136.05,-49.19 -160.45,-75.11 -102.18,-123.27 -203.65,-174.91 -81.79,-41.63 -157.87,-85.72 -239.33,-131.17 -133.73,-74.62 -374.25,-259.27 -483.77,-370.02 -87,-87.99 -61.79,-80.18 -67.34,-125.99 -9.69,-79.89 -159.98,-160.28 -159.98,-331.43 0,-88.24 101.84,-179.56 157.49,-221.12 36.89,-27.56 77.47,-53.99 110.21,-83.1 15.63,-13.9 34.52,-32.7 48.29,-48.36 17.53,-19.91 20.16,-28.37 40.21,-48.4 40.04,-40.03 49.73,-60.26 95.91,-97.4 158.47,-127.45 117.26,-73.09 222.21,-148.3 87.66,-62.82 185.92,-198.54 288.41,-275.43 188.51,-141.45 227.9,-110 412.85,-158.97 48.28,-12.79 78.53,-39.63 118.8,-66.46 43.45,-28.95 77.32,-36.31 129.06,-56.17 59.49,-22.82 57.14,-51.44 83.67,-101.61 38.98,10.42 167.46,113.72 305.98,129.14 71.93,8.01 115.6,4.77 174.66,-26.89 81.91,-43.92 80.48,-78.96 115.23,-102.25 38.15,25.56 25.11,48.47 81.32,71.73 38.8,16.06 63.55,24.75 101.22,43.75 270.46,136.42 113.71,9.85 363.25,87.74l219.34 102.81c101.44,52.76 181.53,157.84 262.34,220.95 50.34,39.32 33.06,70.21 169.58,144.56 141.55,77.1 200.46,141.91 306.84,256.99 16,17.32 17.11,23.08 32.13,40.36 48.01,55.24 158.35,98.26 256.39,226.9 27.09,35.54 40.35,70.5 43.54,104.78zm-2230.51 874.96c0,-66.4 84.73,-136.98 128.83,-136.98 87.23,0 162.5,-12.32 207.74,33.86 65.06,66.41 81.5,77.59 49.94,143.41 -63.32,-5.28 -0.22,-18.03 -56.37,-24.18 2.83,33.96 16.05,51.71 72.47,56.41 -9.37,40.28 -11.78,47.95 -37.93,74.84 -35.38,36.38 -38.54,46.02 -90.9,46.02 -44.31,0 7.98,-35.41 -78.09,-22.77 -61.96,9.1 -157.24,59 -195.69,-106.15l48.31 0c13.8,-59.25 26,-62.4 3.07,-58.16 -7.08,1.31 -51.38,46.57 -51.38,-6.3zm829.39 -193.38l-24.16 0c0,-49.19 6.65,-68.64 7.98,-120.94 7.97,-312.03 73.08,-172.85 189.97,-478.68 22.48,-58.82 54.21,-147.83 67.78,-206.13 55.13,12.85 73.59,50.39 168.68,105.17 39.16,22.54 156.71,75.83 177.58,104.32 -18.96,35.85 -98.66,122.75 -130.64,159.36 -92.35,105.71 -257.04,397.14 -320.76,420.32 -29.32,10.67 -95.3,16.58 -136.43,16.58zm-1932.57 -596.26c54.02,-36.2 113.55,-66.62 174.43,-99.42 46.74,-25.18 122.9,-97.94 171.82,-102.01 27.7,118.96 85.65,266.78 151.34,372.3 28.95,46.51 88.09,111.17 90.41,175.43 3.07,85.14 15.93,167.95 15.93,249.96 -52.24,0 -85.07,-4.05 -132.67,-12.28 -57.27,-9.91 -59.35,-25.93 -88.24,-64.8 -110.57,-148.73 -176.72,-275.84 -316.53,-432.62 -24.97,-28.01 -46.39,-56.52 -66.49,-86.56zm1763.47 -32.23l161.05 0c129.67,193.77 -34.32,189.34 -70.65,364.42l-34.03 320.47c-105.39,8.78 -238.78,31.35 -345.54,-0.71 -91.62,-27.51 -153.38,-23.46 -250.34,-23.46 -45.4,0 -59.75,19.44 -105.12,23.73 -144.95,13.7 -277.44,8.5 -426.34,8.5 0,-59.85 -6.99,-102.17 -7.73,-169.53 -0.45,-40.56 -9.62,-122.45 -18.28,-158.97 -47.04,-198.2 -208.13,-158.96 -70.61,-364.45l193.25 0c-24.48,-17.02 -113.56,-32.97 -144.94,-40.28 1.24,-55.89 83,-191.58 116.11,-246.41 19.02,-31.5 24.77,-51.32 61.04,-59.78 7.69,33 219.02,438.55 260.27,521.15l107.46 206.71c53.34,107.11 70.56,142.34 131.42,5.27 17.99,-40.52 30.87,-69.55 51.1,-110.02 59.73,-119.51 175.38,-328.56 215.86,-428.6 15.77,-38.97 34.58,-71.41 54.91,-106.2 31.79,-54.41 18.26,-71.75 64.74,-96.37 62.39,41.81 179.04,278.47 171.53,302.15 -6.93,21.86 -29.36,23.87 -50.34,28.59 -33.25,7.47 -48.04,0.87 -64.82,23.79zm-1344.75 -193.38c16.75,6.07 23.45,16.01 37.1,35.4 13.4,19.03 18.83,29.42 31.97,48.59 12.45,18.16 75.87,79.63 75.87,85.22 0,42.93 -21.22,79.24 -56.36,88.63 -6.04,-25.94 -14.27,-35.18 -24.02,-56.54 -9.27,-20.31 -16.43,-40.8 -25.47,-63.14 -12.21,-30.21 -37.95,-97.02 -39.09,-138.16zm1586.32 257.84c-34.25,-22.95 -45.67,-50.77 -56.36,-96.69 99.85,-66.9 107.38,-157.02 152.99,-169.2 -6.06,72.86 -67.53,210.87 -96.63,265.89zm-1054.86 -620.42l8.05 -16.12 8.06 -8.06 8.05 -16.11 8.05 -8.06 8.05 -8.06c6.87,-25.72 41.2,-63.06 58.66,-86.33l124.34 -165.66c19,-25.49 44.89,-70.49 66.63,-86.42 39.06,10.43 161.48,174.25 195.75,215.06l196.36 222.5c70.15,82.26 66.13,101.83 3.49,183.91 -44.55,58.38 -50.68,126.22 -91.76,182.13 -33.95,46.21 -159.58,293.91 -193.7,362.15l-81.08 160.59c-16.81,14.14 3.02,8.53 -29.06,11.2 -14.76,-63.38 -198.12,-399.73 -241.34,-483.68 -22.35,-43.4 -34,-30.91 -67.1,-110.12 -30.75,-73.58 -7.92,-48.85 -62.02,-123.27 -45.49,-62.56 -39.54,-62.83 0.02,-120.93 19.67,-28.91 53.95,-86.9 80.55,-104.72zm-1466.88 773.52c14.87,8.68 -2.7,9.44 14.85,-2.57 17.05,-11.65 60.79,-87.02 235.09,-176.08 43.98,-22.47 122.52,-55.25 175.04,-28.22 30.53,15.71 88.09,78.83 89.27,124.68l-29.76 5.39c17.65,16.51 39.15,24.57 58.63,42.3 24.11,21.95 27.74,39.08 42.22,66.73 0.13,-0.14 -0.19,-32.63 41.15,1.58 40.25,33.33 193.63,253.85 221.51,295.38 135,201.05 198.66,79.41 409.52,183.81 9.08,-18.45 1.58,-7.75 23.53,-13.97 0.3,-0.08 41.14,-6.45 41.87,-6.52 27.17,-2.58 59.8,-1.05 87.59,-1.01 61.74,0.08 123.48,0 185.21,0 -57.67,86.17 -72.47,-0.71 -72.47,217.55 32.47,8.68 42.18,21.52 56.36,48.35 -95.2,0 -73.18,35.19 -153.62,-16.11 20.82,51.56 57.08,94.56 60.65,161.15 -18.09,12.74 -26.36,12.18 -49.8,11.78l-6.78 63.54c-39.48,14.04 -54.99,14.62 -78.32,-17.08 -21.89,59.64 -29.67,55.09 -82.5,36.32 0.92,37.73 1.85,32.35 -14.46,55.27 -97.77,6.39 -160.93,-163.07 -258.22,-194.63 -247.31,-80.22 -149.59,-89.42 -271.11,-188.18 -36.62,-29.77 -107.08,-46.17 -155.3,-70.06 -132.51,-65.63 -238.33,-145.54 -351.19,-228.83 -30.75,-22.69 -50.74,-22.44 -55.41,-64.39l39.11 -19.15c-22.83,-10.21 -27.33,-12.46 -59.72,-13.08 -29.7,23.89 -59.03,-15.25 -76.54,-32.7 -22.18,-22.1 -40.34,-36.72 -62.45,-58.54 -64.91,-64.08 -48.76,-89.35 -7.96,-166.6 -62.38,34.34 -65.48,14.47 -120.31,-67.64 -16.71,-25.02 -29.07,-46.54 -42.99,-69.78 -14.21,-23.73 -29.95,-46.45 -40.84,-71.99 -28.32,-66.4 -9.34,-115.82 34.14,-159.44l177.73 -160.57c91.5,-76.65 92.02,-92.32 168.67,-169.64 40.59,-40.96 210.48,-174.1 271.84,-179.21 -27.72,119.03 -48.32,68.96 -48.32,169.21 6.06,-6.97 0.97,1.5 11.11,-13.05l31.4 -65.27c49.21,-116.05 100.37,-203.09 200.26,-283.07 25.32,-20.27 35.75,-35.31 64.31,-56.51 139.64,-103.6 80.64,-51.64 159.96,-89.72 56.22,106.32 83.9,343.11 66.62,469.53 -16.82,123.1 20.04,134.29 -60.5,213.42 -112.31,110.35 -270.9,221.47 -420.32,272.36 -72.4,24.66 -53.95,-11.29 -166.75,34.58 -121.72,49.51 -197.63,102.19 -282,210.68zm3302.83 -193.72c-1.78,11.88 31.12,21.31 62.53,42.4 27.99,18.79 41.28,27.6 65.94,46.75l63.66 57.31c53.73,58.53 146.28,121.79 77.8,212.64 -30.64,40.65 -82.52,61.05 -116.22,114.87l-40.98 -2.28c-36.86,-4.78 -16.55,-10.54 -22.59,12.1 17.29,64.28 -206.32,190.17 -250.16,218.65 -41.02,26.65 -104.81,66.44 -152.52,89 -46.46,21.97 -141.9,50.11 -171.94,77.8 -19.16,17.65 -34.84,44.98 -54.39,66.51 -87.73,96.62 -143.05,90.06 -239.02,131.45 -76.67,33.06 -100.7,134.9 -190.47,173.02 -54.14,22.99 -58.25,-5.07 -55.01,-55.48 -17.84,10.59 -28.53,21.64 -58.58,24.74 -16.09,-21.33 -15.48,-34.32 -29.57,-56.31 -60.33,52.51 -84.94,38.24 -74.73,-47.12 -54,27.63 -56.23,-11.69 -57.66,-60.33 23.41,-18.64 49.94,-69.16 59.76,-102.66 -23.31,16.2 -15.71,16.12 -55.92,16.12 17.16,-25.65 49.63,-38.9 55.81,-73.09 5.38,-29.83 -0.02,-108.33 -9.62,-126.79l-11 -14.46c-3.02,-3.54 -50.47,-28.03 36.44,-27.94 87.7,0.08 91.01,-6.64 129.68,-7.5l-8.06 35.3c31.31,-20.81 35.31,-45.56 83.78,-64.59 133.97,-52.61 228.38,20 337.67,-120.89 65.09,-83.91 196.2,-296.74 263.01,-341.92 31.8,8.97 3.56,-3.58 32.21,20.86 2.24,-81.52 62.46,-69.49 74.51,-133.08l-4.82 -32.23c16.56,-23.63 45.72,-57.72 76.59,-79.39 39.12,-27.47 70.95,-15.91 95.34,-17.59 2.75,-0.19 5.03,-0.39 7.43,-0.69l19.75 -7.07c-13.05,-7.9 -18.9,4.74 3.03,-17.35 23.73,-23.9 45.32,-8.21 74.42,-63.23 -86.47,20.16 -88.96,128.71 -324.87,10.84 -76.87,-38.41 -204.11,-121.72 -269.1,-181.96 -110.16,-102.12 -106.54,-135.85 -106.59,-336.5 -0.04,-146.16 17.46,-288.83 64.42,-386.76 47.63,0 58.97,6.93 88.41,24.34 23.46,13.89 47.31,32.07 70.14,50.68 290.82,237.01 250.05,341.16 308.49,408.43 0,-90.22 -12.33,-51.81 -30.06,-114.96 -6.78,-24.17 0.54,-15.73 -10.2,-38.13 117.78,27.45 184.67,110.51 266.93,176.06l104.67 112.82c58.56,73.65 65.17,54.42 121.46,104.07 205.34,181.13 229.34,195.15 99.49,393.36 -35.11,53.6 -45.32,94.51 -101.36,124.18 -32.55,-21.81 -178.35,-221.94 -297.93,-234zm-2391.56 -990.74c93.89,25.09 378.46,456.32 378.46,555.97 0,98.74 -67.72,113.15 -125.44,253.18 -12.86,31.2 -29.14,57.45 -35.61,85.24 -47.02,-10.97 -81.52,-63.19 -108.05,-101.38 -116.58,-167.76 -72.52,-126.29 -54.13,-302.63 15.44,-147.89 -7.3,-270 -37.13,-411.8 -4.83,-22.95 -11.13,-62.97 -18.1,-78.58zm1666.84 354.53c0,158.87 45.28,267.07 14.89,337.1 -19.9,45.85 -120.06,176.11 -159.83,202.76 -31.92,-23.4 -43.66,-81.73 -64.28,-121 -117.91,-224.52 -164.39,-144.8 -53.84,-367.84 45.8,-92.41 241.86,-390.73 327.48,-413.6 -31.2,134.01 -64.42,197.24 -64.42,362.58zm-1650.74 -418.99c40.16,-3.34 83.48,-20.06 129.49,-23.51 131.08,-9.85 105.38,-32.66 219.49,-94.62 177.21,-96.21 110.04,-43.84 251.58,48.99 140.88,92.4 362.33,88.85 467.13,-55 48.89,-67.09 25.72,-72.64 177.79,-2.13 216.23,100.26 90.59,31.22 215.41,49.79 156.22,23.25 182.96,63.61 238.16,76.48 -7.97,29.89 -29.91,42.14 -50.32,62.45 -149.76,149.02 -246.99,301.55 -344.24,485.46 -66.75,-35.34 -173.05,-196.61 -235.55,-263.86l-169.14 -201.4c-23.45,-26.54 -31.15,-49.32 -70.4,-58.47 -35.09,30.51 -75.87,93.21 -106.98,134.68 -36.05,48.06 -67.53,93.12 -102.38,139.27 -41.34,54.73 -162.29,237.02 -217.42,273.96 -50.01,-74.73 -67.9,-131.56 -85.06,-156.61 -17.81,-25.99 -35.16,-45.37 -51.78,-69.05 -17.42,-24.82 -31.36,-44.47 -50.66,-70.18 -68.41,-91.14 -84.03,-125.5 -160.77,-201.71 -57.3,-56.89 -32.4,-25.38 -54.35,-74.54zm515.35 -233.66c0,-18.46 2.73,-9.37 8.06,-32.23 60.02,13.99 120.92,94.57 265.25,105.86 202.21,15.83 210.28,-74.83 274.26,-89.75 2.66,32.01 8.05,19.41 8.05,40.29 0,101.01 -148.43,177.27 -257.68,177.27 -125.63,0 -297.94,-83.24 -297.94,-201.44z"/>
   <path class="fil0" d="M3195.86 3020.35c8.15,-70.95 51.45,-142.84 43.75,-203.14 -49.56,29.85 -156.73,187.64 -199.13,248.6l-95.29 130.5c-97.38,99.98 -261.47,14.94 -371.77,127.27l-70.97 90.24c-29.06,41.99 -57.18,82.12 -84.47,132.84 -17.76,33 -74.23,109.66 -41.9,140.5 59.31,-14.61 97.26,-196.19 178.33,-242.45 -29.12,106.08 -135.05,167.81 -139.77,305.57 60.43,-1.71 73.57,-28.85 108.83,-105.56 23.41,-50.94 41.14,-102.66 84.52,-125.33 -20.78,92.45 -134.96,166.16 -94.46,259.26 78.95,-3.09 96.55,-152.25 168.11,-194.56 -20.17,76 -107.79,142.97 -98.41,229.28 48.92,17.33 109.45,-60.66 134.42,-87.19 46.67,-49.6 40.63,-71.25 127.05,-98.92 193.83,-62.06 156.08,-99.97 268.13,-190.87 34.89,-28.3 114.75,-49.32 160.62,-72.82 93.39,-47.85 364.01,-211.5 397.5,-276.03 -100.11,4.78 -178.59,65.78 -285.83,68.56 -0.04,-57.16 54.54,-164.25 61.83,-249.78 -107.48,18.1 -167.98,93.78 -251.09,114.03z"/>
   <path class="fil0" d="M1325.9 3251.7c-77.31,-12.36 -112.79,-21.82 -151.71,-67 -73.12,-84.88 -204.43,-318.49 -283.29,-367.11 5.88,79.27 34.93,131.46 43.98,203.32 -88.03,-24.32 -153.97,-100.63 -248.25,-113.84 8.19,71 65.31,204.2 59.66,247.71 -83.23,2.66 -234.92,-84.08 -277.43,-60.64 32.9,55.49 327.64,241.69 399.99,274.93 152.52,70.06 109.5,17.27 210.95,127.69 95.92,104.41 69.68,78.7 210.61,127.49 59.78,20.7 73.89,48.98 123.99,101.65 25.45,26.75 72.93,86.61 109.33,90.19 34.58,3.4 4.51,2.41 18.38,-2.67 17.36,-84.87 -77.06,-153.86 -96.59,-228.48 35.28,13.92 57.4,63.47 81.71,108.75 82.82,154.24 132.36,73.78 56.64,-56.8 -18.04,-31.11 -54.44,-82.1 -63.14,-114.57 83.47,59.06 121.97,268.66 176.49,223.49 13.68,-13.87 4.34,17.96 12.19,-24.15 12.53,-67.23 -125.5,-214.1 -138.53,-279.73 44.94,17.35 62.72,72.01 92.45,123.81 13.09,22.81 26.72,45.43 38.74,74.29 15.84,38 12.34,42.07 58.3,38.58 0.59,-72.92 -112.93,-234.34 -147.09,-280.58 -95,-128.58 -96.02,-115.73 -287.38,-146.33z"/>
   <path class="fil0" d="M1594.99 797.75c29,-15.35 63.14,-29.47 72.47,-64.46 87.41,0 168.98,16.12 281.84,16.12 130.65,0 232.28,-8.06 362.35,-8.06 10.94,40.98 49.51,52.48 96.63,56.4 -33.26,142.86 -226.76,418.99 -386.51,418.99 -131.33,0 -311.98,-150.09 -361.34,-266.92l-65.44 -152.07zm378.26 -797.69l94.79 0c29.6,3.24 60.84,9.82 93.72,21.07 175.26,59.95 145.55,-40.8 230.3,124.09 52.44,102.03 153.11,164.09 153.11,322.18 0,208.57 10.98,171.79 -75.16,343.77l-70.14 155.43 -94.09 131.46c-100.32,103.94 -159.47,175.08 -300.12,175.08 -129.16,0 -310.57,-148.51 -371,-249.18 -36.4,-60.63 -63.09,-140.51 -104.53,-209.65 -67,-111.76 -80.08,-128.57 -80.08,-274.4 0,-148.45 77.8,-252.06 156.3,-383.45 49.68,-83.16 71.86,-116.94 157.71,-116.15 49.99,0.46 119.77,-30.98 209.19,-40.25zm-458.78 483.45c1.97,-88.69 63.69,-157.43 91.12,-206.95 159.15,-287.39 94.72,-127.27 257.53,-193.52 87.94,-35.79 211.55,-37.12 301.08,0.11 52.6,21.87 102.93,4.14 139.4,21.66 23.48,14.08 19.05,37.2 48.54,88.4 17.29,30.01 39.04,54.12 60.81,84.19 43.3,59.79 75.86,114.1 75.86,214.17 -68.53,-45.92 -43.19,-37.24 -144.13,-57.21 -51.03,-10.1 -226.18,-55.75 -271.33,4.08 -10.08,13.36 -15.43,36.18 -19.37,53.13 83.44,-44.18 32.31,-61.57 176.41,-47.65 48.37,4.67 176.37,23.39 210.1,39.59 -1.32,59.42 -39.59,185.32 -96.62,185.32 -40.34,0 -29.04,-66.82 -80.53,-80.57 0.97,43.36 16.11,65.78 16.11,112.8 -28.71,0 -68.6,5.7 -103.32,9.42 -106.26,11.4 -385.39,13.69 -484.51,-9.42l0 -128.92c-47.78,32.01 -26.9,69.19 -64.42,96.69 -67.51,-18.04 -72.47,-134.58 -72.47,-193.38 91.7,-21.37 30.56,-32.23 185.21,-32.23 62.74,0 99.43,23.25 136.89,48.35 -11.67,-140.31 -232.2,-87.59 -311.61,-37.86 -23.71,14.86 -27.6,23.62 -50.75,29.8z"/>
   <path class="fil0" d="M2215.03 2264.22c2.22,-26.79 23.18,-59.15 40.39,-41.93 14.88,14.88 -8,39.23 -40.39,41.93zm88.57 -161.15l0 0zm-32.21 -40.29c2.62,-31.5 -4.87,-24.47 24.16,-32.23 -9.72,36.43 -6.15,14.6 -24.16,32.23zm8.06 -96.69c9.55,15.06 9.05,-17.99 6.64,16.11 -1.22,17.2 -0.99,7.2 -6.64,16.12l0 -32.23zm-491.2 128.92c0,68.67 33.35,121.86 83.54,150.07 19.88,11.17 52.71,21.55 80.21,23.86 30.93,2.59 57.35,-11.96 93.93,-12.78 -9.69,41.61 -23.56,47.09 -56.37,64.46 9.42,23.36 -0.43,3.45 32.21,24.17 -36.89,8.6 -32.57,16.12 -80.52,16.12 -105.43,0 -201.31,-83.55 -201.31,-185.33 0,-234.15 167.08,-229.07 185.2,-161.15 -83.78,-40.22 -136.89,5.43 -136.89,80.58zm483.14 -153.09l2.41 2.4c-0.16,-0.16 -3.21,-1.6 -2.41,-2.4zm-475.09 8.05l-8.05 8.06 -8.05 8.06 -8.05 16.11 -8.06 8.06 -8.05 16.12c-10.9,46.83 -86.89,172.18 -10.42,332.73 21.68,45.5 53.2,82.07 89.67,111.7 21.45,17.44 35.9,28.2 62.78,41.96 10.53,5.39 55.63,32.93 67.33,21.23 0.55,-1.17 0.65,-4.63 0.68,-3.82l0.52 -20.96c-3.86,-125.4 -12.16,-91.47 31.01,-112.2 0,61.26 7.09,32.06 32.22,72.51 16.41,26.42 20.69,46.88 56.36,56.41 35.45,-73.92 -11.3,-131.68 -19.41,-229.51 -1.8,-21.7 3.31,-51.06 3.31,-84.73 -54.27,12.65 -32.37,24.84 -64.43,48.34 9.78,-41.99 24.49,-51.61 32.21,-80.57 -31.81,-3.48 -12.71,16.77 -35.05,-45.5 -10.56,-29.45 -33.97,-127.91 15.82,-120.27 36.41,5.58 9.7,24.65 59.5,28.79 3.13,-37.63 19.71,-107.63 43.46,-125.82 36.01,-27.59 94.95,-17.9 117.58,13.02 -32.78,7.64 -32.68,8.3 -56.36,24.17 4.23,50.83 21.72,12.76 14.58,62.21 -3.89,26.95 -19.33,26.92 -22.63,66.71 26.04,6.07 35.32,13.69 64.41,16.11 -7.12,26.69 -15.79,27.16 -33.03,48.17 -22.2,27.05 -7.59,19.62 -47.49,16.29 12.83,19.17 9.75,8.4 16.11,32.23 -25.72,-5.45 -12.54,-8.13 -32.21,0 12.82,19.17 9.74,8.4 16.1,32.23l-24.16 8.06c17.45,26.08 16.46,6.77 12.73,37.28l-4.65 15.77c-0.34,1.37 -0.96,3.71 -1.29,5.06 -4.88,20.09 2.65,2.18 -4.36,19.8 -0.45,1.14 -1.53,3.35 -2.07,4.43l-16.38 28.07c-12.57,44.82 -6.69,-15.31 16.21,54.94 19.74,60.53 21.48,80.42 -24.34,148.89 104.78,-8.72 205.66,-90.92 249.37,-161.39 50.72,-81.78 81.65,-274.19 16.36,-322.06 -41.55,86.65 -8.71,171.89 -8.06,201.44 -28.7,-21.04 -1.22,-50.13 -58.36,30.2 -12.74,17.91 -12.11,29.05 -23.67,48.87 -10.08,17.29 -20.59,26.69 -30.7,41.79 59.18,-4.92 47.68,-52.93 72.47,-88.63 -1.28,57.47 -34.27,113.08 -82.39,98.54 -27.73,-8.38 -89.03,-90.48 26.02,-90.48 13.33,-57.23 55.18,-148.05 56.37,-201.44l-24.16 16.12c5.42,-23.26 11.98,-26.06 16.17,-40.04 10.49,-35.02 4.17,5.49 -8.12,-40.54 30.76,-8.21 41.97,-34.06 22.87,-62.23 -36.29,-53.52 -136.1,-111.29 -216.29,-122.94 -67.82,-9.85 -131.7,-5.93 -187.97,21.08 -99.74,47.88 -79.72,55.23 -133.96,91.57z"/>
   <path class="fil0" d="M639.16 2634.72c66.2,-7.38 81.36,44.45 148.76,50.94 -63.04,-205.48 -294.34,-61.86 -392.19,22.49 -46.74,40.3 -138.01,122.61 -130.96,183.91 5.14,44.71 116.01,145.59 155.94,156.89 -8.49,-81.5 -89.55,-265.5 -35.22,-271.51l52.63 7.77c87.14,18.16 156.33,60.51 207.9,58.66l-6.86 -209.15z"/>
   <path class="fil0" d="M3347.12 2679.82c63.93,-11.43 81.33,-40.79 151.09,-52.61l-10.34 217.66c102.81,-9.8 170.42,-77.07 283.2,-68.09 4.64,110.2 -54.58,190.19 -56.37,268.02 34.34,-1.02 65.89,-46.31 89.81,-68.17 19.14,-17.48 68.9,-52.64 69.98,-92.16 2.38,-87.18 -223.61,-258.18 -331.21,-297.45 -43.14,-15.74 -85.53,-18.83 -124.97,2.78 -25.44,13.93 -63.06,55.22 -71.19,90.02z"/>
   <path class="fil0" d="M2094.24 3529.24c74.6,0 128.45,-35.14 120.73,-80.11 -3.97,-23.12 -5.4,-18.4 -32.15,-24.63 -0.65,29.15 -0.88,32.44 -17.33,47.12 -29.85,26.62 -112.65,24.71 -137.31,-5.19 -25.98,-31.49 2.27,-40.66 -54.72,-41.93 0,71.08 52.58,104.74 120.78,104.74z"/>
   <path class="fil0" d="M1997.61 3400.32c21.13,-8.53 7.93,-0.9 19.5,-20.78 11.55,-19.84 -3.42,-7.79 14.73,-25.55 23.77,-23.26 110.04,-27.7 136.52,4.4 25.97,31.49 -2.28,40.66 54.72,41.93 0,-126.46 -172.99,-121.07 -219.99,-75.06 -14.86,14.54 -25.94,35.76 -19.56,56.05l5.8 10.48c0.81,1.3 3.21,3.45 3.95,4.44 0.74,1.01 2.89,2.73 4.33,4.09z"/>
   <path class="fil0" d="M1804.35 233.73c25.32,34.57 66.44,8.05 161.05,8.05l132.17 4.94c38.65,7.39 44.89,9.14 61.09,-12.99 -85.25,-19.88 -173.79,-22.64 -259.45,-9.83 -24.77,3.7 -75.75,9.4 -94.86,9.83z"/>
   <path class="fil0" d="M2078.14 2143.35c0,-56.99 -13.27,-113.1 -72.48,-128.92 -3.88,46.69 -1.92,122.73 72.48,128.92z"/>
   <path class="fil0" d="M2255.29 161.21c31.03,2.58 25.96,8.06 64.42,8.06 -4.94,-21.19 -7.32,-23.68 -16.11,-40.29 -32.04,0 -40.3,-1.26 -48.31,32.23z"/>
   <path class="fil0" d="M1715.78 169.27c23.83,-11.45 22.48,-8.06 56.37,-8.06 -4.94,-21.2 -9.36,-36.34 -35.06,-38.18 -27.43,-1.97 -21.31,19.03 -21.31,46.24z"/>
   <path class="fil0" d="M2126.45 2062.78c-6.48,-24.27 0.1,-17.69 -24.16,-24.17 6.27,23.49 0.08,18.4 24.16,24.17z"/>
   <path class="fil0" d="M1801.38 821.14c14.25,55.43 34.44,109.13 60.29,157.26 36.16,67.35 53.8,80.28 142.86,81.56 90.8,1.31 123.5,5.29 158.28,-66.76 18.98,-39.32 51.77,-125.14 45.84,-170.44 -103.8,-10.74 -126.63,7.29 -205.25,8.91 -63.08,1.31 -100.8,-32.82 -202.02,-10.53z"/>
   <path class="fil0" d="M1995.99 1073.78c-167.65,-0.21 -126.46,-117.14 -214.55,-247.02 -9.46,10.6 -9.01,-14.89 -8.88,25.12l24.97 70.72c72.67,162.95 87.25,168.69 199.11,175.56 145.83,8.96 148.28,8.79 181.43,-63.35 25.13,-54.68 70.11,-124.4 59.6,-191.36l-22.94 39.19c-62.69,165.89 -49.37,191.35 -218.74,191.14z"/>
   <path class="fil0" d="M1880.03 462.88c9.38,5.68 1.98,4.99 18.73,8.15 25.27,4.77 108.99,2.72 124.95,-8.15 -19.95,-15.96 -43.13,-10.1 -73.86,-10.73 -64.79,-1.34 -49.82,-4.57 -69.82,10.73z"/>
   <path class="fil0" d="M1895.09 548.72l63.4 10.03c89.22,3.45 48.61,-0.53 61.13,-10.03 -27.93,-11.88 -104.78,-6.71 -111.5,-5.67l-13.03 5.67z"/>
  </g>
 </g>
</svg>
