<?xml version="1.0" encoding="UTF-8"?>
<!DOCTYPE svg PUBLIC "-//W3C//DTD SVG 1.1//EN" "http://www.w3.org/Graphics/SVG/1.1/DTD/svg11.dtd">
<!-- Creator: CorelDRAW 2017 -->
<svg xmlns="http://www.w3.org/2000/svg" xml:space="preserve" width="46.5666mm" height="46.5666mm" version="1.1" style="shape-rendering:geometricPrecision; text-rendering:geometricPrecision; image-rendering:optimizeQuality; fill-rule:evenodd; clip-rule:evenodd"
viewBox="0 0 4656.66 4656.66"
 xmlns:xlink="http://www.w3.org/1999/xlink">
 <defs>
  <style type="text/css">
   <![CDATA[
    .fil1 {fill:#191919}
    .fil0 {fill:#FCFCFC}
   ]]>
  </style>
 </defs>
 <g id="Capa_x0020_1">
  <metadata id="CorelCorpID_0Corel-Layer"/>
  <g id="_2368208411216">
   <g>
    <path class="fil0" d="M3470.89 3425.84c18.71,-65.04 60.54,-75.87 102.18,-122.1 28.71,-31.88 74,-104.53 106.82,-155.45 74.72,-115.96 99.32,-252.21 161.74,-358.19 40.64,56.32 29.77,67.71 -16.69,199.76 -70.35,199.91 -116.44,444.43 -354.05,435.98zm-1076.43 -1341.72c-142.37,5.68 -278.15,-166.04 -332.41,-263.56 -72.89,-131 -104.34,-328.39 -37.25,-473.23 98.51,8.75 107.9,60.79 171.98,115.82 211.61,181.72 188.2,266.19 197.68,620.97zm188.3 -577.02c70.92,6.63 169.67,22.88 128.33,107.23 -86.45,46.74 -117.65,-13.69 -128.33,-107.23zm-214.2 -110.73c-88.73,-51.42 -443.9,-462.52 -497.97,59.75 -24.63,237.96 75.45,396.43 143.35,572.2 27.15,70.27 36.01,145.95 59.47,202.4l131.08 -27.4c-86.72,146.02 -211.23,231.23 -201.95,480.17 89.65,-34.95 84.86,-96.17 152.77,-169.89 38.11,-41.37 130.27,-127.3 207.41,-131.83 26.51,446.67 -111.8,183.7 70.12,967.28 54.85,236.28 207.28,709.7 12,865.51 -120.34,-43.75 -226.92,-186.97 -291.08,-321.72 -116,-243.6 -50.69,-71.51 -175.7,-149.45 -66.04,-41.19 -10.34,-208.28 -3.2,-280.13l-206.4 55.73c-70.11,246.16 -14.26,535.2 7.39,781.33 -310.77,-51.63 -667.94,-312.41 -842.4,-461.88 -668.73,-572.93 -839.97,-1669.89 -421.24,-2462.74 72.48,-137.24 179.47,-303.06 270.32,-396.93 504.19,-520.95 1130.21,-812.01 1920.92,-667.47 531.85,97.22 935.06,373.71 1243.97,756.95 73.65,91.37 68.55,97.75 -2.28,201.42 -72.24,105.73 -124.19,96.52 -169.85,183.24 61.26,74.04 41.45,-0.58 92.19,80.89 -41.02,135.03 -150.93,269.92 -189.92,422.61 83.96,-54.64 118.87,-138.74 204.78,-180.93 -1.04,153.84 -103.02,436.93 -154.96,592.66 -32.92,98.73 -57.37,199.71 -86.4,295.47 -34.14,112.6 -82.63,187.59 -113.5,269.63 -5.34,-0.01 -393.48,-112.76 -351.52,277.33 37.24,346.18 524.82,482.27 694.98,-74.26 43.03,-140.76 65.34,-450.27 135.56,-556.32l54.34 91.31c21.46,57.11 9.17,49.5 46.77,95.74 119.35,-210.19 -96.07,-374.86 -37.29,-622.13 72.73,-305.97 16.49,-553.89 138.4,-630.05 317.97,573 158.71,1422 -140.59,1900.69 -292.03,467.09 -886.93,906.14 -1431.72,936.56 24.3,-59.45 247.61,-255.79 203.73,-696.19 -3.41,-34.19 -12.85,-91.91 -30.02,-116.93 -33.96,-49.48 -23.03,-22.13 -42.45,-34.59 -4.84,-3.09 -20.92,-11.51 -25.31,-14.09l-25.15 -15.26c71.83,-56.63 36.51,9.56 66.46,-80.88 -57.99,-108.24 -94.05,-63.74 -161.54,-135.08 63.53,-52.5 68.44,-33.46 129.67,-67.14 -67.38,-79.48 -55.58,1.47 -85.85,-108.81l160.56 -20.18 10.18 -121.65c-45.76,-34.52 -78.06,-35.41 -99.08,-93.12 75.11,-47.77 143.74,31.33 145.85,-141.23 1.78,-145.62 -68.26,-67.93 -99.56,-192.52 83.64,-19.18 162.62,41.11 152.55,-66.68 -7.5,-80.26 -81.97,-76.28 -114.77,-165.77 63.33,-31.92 42.32,-10.53 87.99,6.15 25.34,9.26 55.69,41.85 88.33,10 76.14,-109.4 -50,-98.6 -78.31,-191.14l156.68 33.66c79.22,-79.42 97.8,-169.25 252.88,-313.56 58.07,-54.03 74.18,-40.95 70.35,-128.69 -143.14,-21.63 -80.2,39.56 -210.99,-33.85 -62.13,-34.88 -3.36,-11.02 -90.23,-35.66 -137.08,-38.88 -126.68,-83.14 2.68,-273.23 73.58,-108.13 72.1,-165.76 71.93,-307.63 -11.04,-7.24 -273.24,-120.66 -5.27,-252.3 36.82,-18.09 66.75,-24.02 106.12,-32.44l113.36 -31.25c3.61,-1.45 10.29,-4.12 14.92,-7.11 -102.46,-230.16 -572.94,-241.24 -741.72,-72.23 -242.98,243.3 -165.75,542.44 -291.84,743.66zm-313.79 -1200.21c-1203.34,175.93 -2018.66,1220.77 -1860.49,2419.86 143.43,1087.25 1152.56,2016.74 2415.74,1847.04 1089.13,-146.32 2018.29,-1130.7 1852.75,-2420.05 -137.88,-1074.02 -1154.19,-2030.14 -2408,-1846.85z"/>
    <path class="fil0" d="M2180.37 3213.77l-258.4 -10.74c45.29,-147.19 80.5,8.52 269.33,-290.37 175.25,-277.4 -201.99,-104.17 -392.39,-94.06 -844.74,44.84 -1294.42,-852.96 -974.33,-1352.38 52.59,-82.05 166.71,-189.14 293.49,-212.51 206.89,-38.14 267.85,80.69 411.22,86.75 43.33,-253.5 -546.11,-405.5 -866.79,23.86 -624.92,836.7 -84.05,2066.13 996.84,2024.28 185.44,-7.18 433.29,-66.28 521.03,-174.83z"/>
    <path class="fil0" d="M3216.27 2852.53c140.98,-37.68 360.5,-148.73 278.14,-322.92 -124.92,-36.5 -156.36,2.38 -215.48,76.25 -62.75,78.41 -62.03,132.52 -62.66,246.67z"/>
    <path class="fil0" d="M3602.08 1272.55c27.87,-17.7 10.79,24.14 44.76,-38.85 28.38,-52.6 13.25,-150.98 0.33,-205.92 -10.61,-45.11 -22.69,-79.04 -41.92,-125.2 -25.79,-61.89 -20.27,-78.34 -76.7,-90.29 102.46,293.93 22.37,360.05 73.53,460.26z"/>
    <path class="fil0" d="M3529.71 1641.55c205,-33.03 237.16,-253.43 72.37,-252.32l-72.37 252.32z"/>
   </g>
   <g>
    <path class="fil1" d="M3216.27 2855.19c0.63,-114.72 -0.09,-169.09 62.66,-247.89 59.12,-74.24 90.56,-113.3 215.48,-76.63 82.36,175.06 -137.16,286.65 -278.14,324.52zm385.81 -1470.51c164.79,-1.11 132.63,220.37 -72.37,253.56l72.37 -253.56zm-1421.71 1833.52c-87.74,109.09 -335.59,168.48 -521.03,175.69 -1080.89,42.06 -1621.76,-1193.42 -996.84,-2034.24 320.68,-431.47 910.12,-278.73 866.79,-23.98 -143.37,-6.09 -204.33,-125.5 -411.22,-87.18 -126.78,23.48 -240.9,131.1 -293.49,213.56 -320.09,501.88 129.59,1404.1 974.33,1359.04 190.4,-10.16 567.64,-184.24 392.39,94.52 -188.83,300.36 -224.04,143.89 -269.33,291.8l258.4 10.79zm1421.71 -1950.77c-51.16,-100.71 28.93,-167.15 -73.53,-462.53 56.43,12.01 50.91,28.54 76.7,90.73 19.23,46.4 31.31,80.48 41.92,125.82 12.92,55.21 28.05,154.07 -0.33,206.94 -33.97,63.3 -16.89,21.25 -44.76,39.04zm-1233.52 124.42c126.09,-202.2 48.86,-502.81 291.84,-747.32 168.78,-169.84 639.26,-158.71 741.72,72.58 -4.63,3.02 -11.31,5.7 -14.92,7.15l-113.36 31.41c-39.37,8.46 -69.3,14.42 -106.12,32.6 -267.97,132.29 -5.77,246.26 5.27,253.54 0.17,142.57 1.65,200.48 -71.93,309.15 -129.36,191.02 -139.76,235.5 -2.68,274.57 86.87,24.76 28.1,0.79 90.23,35.84 130.79,73.77 67.85,12.28 210.99,34.01 3.83,88.18 -12.28,75.03 -70.35,129.33 -155.08,145.02 -173.66,235.29 -252.88,315.1l-156.68 -33.83c28.31,93 154.45,82.15 78.31,192.08 -32.64,32.01 -62.99,-0.74 -88.33,-10.05 -45.67,-16.76 -24.66,-38.25 -87.99,-6.18 32.8,89.93 107.27,85.94 114.77,166.59 10.07,108.32 -68.91,47.74 -152.55,67.01 31.3,125.2 101.34,47.13 99.56,193.47 -2.11,173.4 -70.74,93.92 -145.85,141.92 21.02,58 53.32,58.9 99.08,93.59l-10.18 122.25 -160.56 20.27c30.27,110.82 18.47,29.48 85.85,109.35 -61.23,33.84 -66.14,14.71 -129.67,67.46 67.49,71.7 103.55,26.98 161.54,135.75 -29.95,90.89 5.37,24.37 -66.46,81.29l25.15 15.32c4.39,2.6 20.47,11.06 25.31,14.17 19.42,12.51 8.49,-14.97 42.45,34.76 17.17,25.14 26.61,83.15 30.02,117.5 43.88,442.57 -179.43,639.88 -203.73,699.62 544.79,-30.57 1139.69,-471.78 1431.72,-941.17 299.3,-481.05 458.56,-1334.23 140.59,-1910.05 -121.91,76.54 -65.67,325.67 -138.4,633.15 -58.78,248.49 156.64,413.97 37.29,625.19 -37.6,-46.46 -25.31,-38.81 -46.77,-96.21l-54.34 -91.75c-70.22,106.56 -92.53,417.6 -135.56,559.05 -170.16,559.27 -657.74,422.51 -694.98,74.62 -41.96,-392 346.18,-278.7 351.52,-278.68 30.87,-82.45 79.36,-157.81 113.5,-270.96 29.03,-96.23 53.48,-197.71 86.4,-296.93 51.94,-156.5 153.92,-440.98 154.96,-595.58 -85.91,42.4 -120.82,126.92 -204.78,181.82 38.99,-153.44 148.9,-288.99 189.92,-424.69 -50.74,-81.86 -30.93,-6.88 -92.19,-81.29 45.66,-87.15 97.61,-77.88 169.85,-184.14 70.83,-104.18 75.93,-110.59 2.28,-202.41 -308.91,-385.13 -712.12,-662.98 -1243.97,-760.67 -790.71,-145.26 -1416.73,147.24 -1920.92,670.75 -90.85,94.33 -197.84,260.97 -270.32,398.88 -418.73,796.76 -247.49,1899.12 421.24,2474.87 174.46,150.2 531.63,412.27 842.4,464.16 -21.65,-247.34 -77.5,-537.81 -7.39,-785.18l206.4 -56c-7.14,72.2 -62.84,240.11 3.2,281.5 125.01,78.33 59.7,-94.61 175.7,150.19 64.16,135.41 170.74,279.34 291.08,323.3 195.28,-156.57 42.85,-632.32 -12,-869.77 -181.92,-787.44 -43.61,-523.18 -70.12,-972.05 -77.14,4.56 -169.3,90.91 -207.41,132.48 -67.91,74.09 -63.12,135.61 -152.77,170.73 -9.28,-250.17 115.23,-335.79 201.95,-482.53l-131.08 27.53c-23.46,-56.72 -32.32,-132.78 -59.47,-203.4 -67.9,-176.63 -167.98,-335.87 -143.35,-575.01 54.07,-524.84 409.24,-111.72 497.97,-60.05z"/>
    <path class="fil1" d="M2394.46 2082.99c-9.48,-356.52 13.93,-441.41 -197.68,-624.02 -64.08,-55.31 -73.47,-107.6 -171.98,-116.4 -67.09,145.55 -35.64,343.92 37.25,475.57 54.26,97.99 190.04,270.56 332.41,264.85z"/>
    <path class="fil1" d="M3470.89 3431.32c237.61,8.49 283.7,-237.23 354.05,-438.13 46.46,-132.7 57.33,-144.15 16.69,-200.75 -62.42,106.51 -87.02,243.43 -161.74,359.96 -32.82,51.17 -78.11,124.18 -106.82,156.22 -41.64,46.45 -83.47,57.34 -102.18,122.7z"/>
    <path class="fil1" d="M2711.09 1610.89c41.34,-84.77 -57.41,-101.1 -128.33,-107.75 10.68,93.99 41.88,154.72 128.33,107.75z"/>
   </g>
  </g>
 </g>
</svg>
