<?xml version="1.0" encoding="UTF-8"?>
<!DOCTYPE svg PUBLIC "-//W3C//DTD SVG 1.1//EN" "http://www.w3.org/Graphics/SVG/1.1/DTD/svg11.dtd">
<!-- Creator: CorelDRAW 2017 -->
<svg xmlns="http://www.w3.org/2000/svg" xml:space="preserve" width="142.833mm" height="44.8732mm" version="1.1" style="shape-rendering:geometricPrecision; text-rendering:geometricPrecision; image-rendering:optimizeQuality; fill-rule:evenodd; clip-rule:evenodd"
viewBox="0 0 14283.26 4487.32"
 xmlns:xlink="http://www.w3.org/1999/xlink">
 <defs>
  <style type="text/css">
   <![CDATA[
    .str0 {stroke:#FEFEFE;stroke-width:300;stroke-miterlimit:22.9256}
    .str2 {stroke:#373435;stroke-width:300;stroke-linecap:round;stroke-linejoin:round;stroke-miterlimit:22.9256}
    .str3 {stroke:#FEFEFE;stroke-width:150;stroke-linecap:round;stroke-linejoin:round;stroke-miterlimit:22.9256}
    .str1 {stroke:black;stroke-width:150;stroke-linecap:round;stroke-linejoin:round;stroke-miterlimit:22.9256}
    .fil3 {fill:none}
    .fil2 {fill:#373435}
    .fil1 {fill:#FFF212}
    .fil4 {fill:black}
    .fil0 {fill:#FCFCFC}
   ]]>
  </style>
 </defs>
 <g id="Capa_x0020_1">
  <metadata id="CorelCorpID_0Corel-Layer"/>
  <g id="_1902375345040">
   <path class="fil0 str0" d="M6881.36 1906.54l47.01 231.87 -103.35 -12.75 13.32 1072.17 594.52 -9.86 0.3 -1122.74c71.9,16.93 122.88,56.52 140.41,120.44 73.94,44.55 37.75,377.95 39.66,476.29 3.16,162.99 13.99,338.09 10.5,499.31l541.77 13.67 -1.95 -542.37c67.66,-706.6 -230.86,-508.42 -311.09,-795.98l278.69 -203.98c4.61,-110.41 15.79,-543.45 -22.72,-616.99 -12.15,-23.2 -295.3,-279.43 -328.69,-303.02 -161.89,-59.45 -733.58,-24.13 -942.26,-25.41l1.57 938.62c0.38,155.83 16.09,149.86 42.31,280.73z"/>
   <path class="fil0 str0" d="M3.63 3708.33l-2.51 58.15c141.01,-4.7 178.54,28.63 285.92,36.75 73.24,-75.32 105.49,-104.12 187.04,-178.01 89.2,-80.82 51.05,-166.77 101.38,-267.46 141.96,-629.04 70.35,-21.75 669.37,-687.57 267.31,-297.13 198.95,-382.61 247.3,-785.25 28.19,-234.84 101.33,-669.03 -234.26,-694.69 -60.67,-4.63 -716.02,181.9 -813.7,215.91l-440.54 2302.17z"/>
   <path class="fil0 str0" d="M13092.17 3277.25l-42.89 10.56c3.63,105.77 22.52,247.03 40.36,352.11 21.02,123.89 82.3,125.32 123.78,234.32 140.17,84.87 312.95,112.47 474.97,195.37 224.98,115.12 206.55,210.77 352.51,333.44l106.6 -57.17c5.44,-70.14 98.46,-145.81 134.53,-215.53 4.46,-18.68 -122.8,-792.38 -230.79,-896.68 -115.25,-111.29 -533.62,-434.85 -582.95,-526.98 -130.79,-59.39 -127.62,-115.11 -148.94,-252.89 -19.01,-122.85 -47.57,-242.06 -44.8,-365.06 215.45,44.26 174.74,208.28 235.79,391.87l388.21 101.24 6.16 -61.82c-24.97,-40.92 -40.82,-272.29 -95.4,-361.25 -44.2,-72.06 -154.54,-184.59 -215.63,-259.03 -108.18,-131.83 -84.88,-151.14 -268.07,-203.33 -111.76,-31.84 -254.28,-77.46 -368.39,-102.44 -264.69,311.55 -212.25,147.48 -129.87,745.76 37.72,273.96 -3.14,211.47 170.87,413.46 81.75,94.89 187.47,222.52 275.27,308.05 90.6,88.26 243.69,123.4 352.66,210.47l121.77 544.31c-236.17,-88.25 -161,-190.21 -225.83,-395.93 -96.98,-67.63 -308.04,-99.48 -429.92,-142.85z"/>
   <path class="fil0 str0" d="M3143.19 1586.68l10.79 -331c-108.09,-13.18 -168.52,24.13 -279.71,29.94l-206.1 1942.01 379.03 -41.94 60.13 -955.45 92.28 64.65c124.75,23.86 76.53,285.85 77.13,388.66 0.85,147.68 -4.44,314.55 5.32,459.78l143.04 16.01 196.92 -63.59 17.46 -861.86 -187.59 -115.41 266.86 -924.96c-115.33,-53.82 -157.8,-18.97 -380.43,18.07l-112.11 755.58 -91.86 -12.22 8.84 -368.27z"/>
   <path class="fil0 str0" d="M2554.99 1776.92c50.93,-542.15 -599.02,-352.51 -801.54,-4.36 -47.43,81.52 -198.51,1119.4 -210.88,1280.66 -40.14,523.37 562.91,372 828.78,32.38 122.98,-157.09 159.66,-1053.4 183.64,-1308.68z"/>
   <path class="fil0 str0" d="M11825.96 1951.76l181.11 1163.63c12.49,103.87 48.24,425.95 92.44,493.95l268.88 67.47 -38.66 -351.46c-11.47,-149.75 -66.5,-294.61 -56.45,-444.36l162.74 105.43 15.42 107.88 94.55 598.72 28.79 47.97 177.27 40.95 102.77 12.38 -31.17 -294.75c5.23,-52.2 -46.37,-368.38 -66.92,-422.77 -36.2,-95.8 -146.8,-185.98 -189.63,-285.15 67.85,-182.31 130.6,-60.22 79.38,-336.82 -19.16,-103.45 -27.32,-256.85 -89.56,-337.89 -145.14,-188.98 -257.43,-348.26 -520.89,-332.98l-228.03 -33.06 17.96 200.86z"/>
   <path class="fil0 str0" d="M9184.28 1782.43l37.94 148.92c16.86,192.62 60.77,1101.7 90.84,1137.75 63.08,40.46 211.44,36.56 299.47,21.81 -11.96,-126.41 -81.93,-590.15 -22.37,-673.78 76.55,61.06 164.84,474.88 209.22,628.51 33.9,117.38 44.3,99.72 161.05,110.91 33,-48.11 118.99,74.59 114.84,-28.18l-42.35 -446.13c1.38,-157.99 -103.67,-1254.87 -142.4,-1352.77l-277.15 -13.98c-20.42,350.6 85.8,568.57 -0.02,665.88 -108.78,-154.55 -123.11,-545.29 -237.65,-702.84l-203.43 -18.38c-8.6,153.67 49.92,405.83 12.01,522.28z"/>
   <path class="fil0 str0" d="M8332.62 3147.85c93.94,-9.35 173.43,-9.19 270.63,14.39l81.21 -484.72 140.24 19.79 -11.11 456.34 304.25 48.91 -242.8 -1977.07c-126.96,-17.84 -328.71,-30.84 -446.72,-5.63 -31.37,133.64 -121.45,1811.01 -95.7,1927.99z"/>
   <path class="fil0 str0" d="M11664.95 3469.55l196.04 30.74 -33.63 -278.7c-11.84,-85.01 -124.87,-22.64 -265.98,-112.04l-64.12 -493.3 190.08 24.77c9.38,-384.81 -94.65,-315.64 -226.55,-356.97 -37.09,-72.4 -54.22,-168.98 -52.88,-253.56 -48.38,-67.56 -39.79,-24.69 -32.69,-125.66 86.67,-37.29 119.81,4.3 228.22,0.4l-7.51 -120.13 -27.79 -150.59 -354.5 -64.83 -178.35 -20.9 223 1828.57c80.9,51.44 303.76,95.19 406.66,92.2z"/>
   <path class="fil0 str0" d="M10487.92 2821.4c50.92,-416.44 -200.52,-1038.09 8.34,-1186.93 147.97,171.28 70.6,234.53 98.27,437.91 76.78,45.43 194.96,56.59 283.84,42.96 16.58,-422.19 -6.08,-385.19 -250.9,-673.9l-371.64 -53.55 -169.76 216.53 116.57 1159.13c116.38,420.63 364.14,543.37 684.74,501.09 144.26,-82.77 151.36,-251.98 129.93,-395.96 -69.28,-465.62 40.06,-557.75 -433.01,-552.04 -18.98,159.13 -3.03,199.44 75.38,298.68 72.04,19.92 50.01,66.05 56.4,154.21 6.77,93.34 35.29,123.56 -39.72,165.13l-12 32.28 -74.57 -8.46 -101.87 -137.08z"/>
   <path class="fil0 str0" d="M4051.35 934.39c45.43,96.02 79.94,53.72 178.24,11.52 72.66,-31.19 167.7,-60.56 226.24,-102.13l-83.26 -114.47c-62.43,14.98 -291.94,150.16 -321.22,205.08z"/>
   <path class="fil0 str0" d="M4739.47 1366.67l2.89 -87.17 -49.24 -27.98c-510.99,-286.84 -826.97,-70.84 -847.05,495.3 -19.02,536.15 -134.32,957.7 135.08,1386.03 555.21,20.51 777.11,-285.25 724.09,-831.48l-282.43 18.62 -138.68 523.28 -92.32 -12.32 -14.01 -722.31 519.25 -78.65 42.42 -663.32z"/>
   <path class="fil1 str0" d="M5642.77 2347.49l-17.51 53.02 -190.84 -82.2 -149.12 -75.01 -245.81 -113.5c19.93,66.94 105.87,150.27 169.59,189.07l706.97 723.61 581.05 720.03c-21.72,-139.21 -431.98,-769.23 -426.6,-886.61 101.27,31.86 258.06,276.46 361.8,315.8l-106.18 -206.76c-47.71,-72.06 -140.63,-122.23 -141.61,-210.32 168.58,-0.14 335.66,161.13 513.9,157.81l-556.56 -1118.74 46.2 -5.6 635.82 232.2c-3.6,-125.65 -374.41,-1208.67 -433.41,-1338.72 -79.83,-55.93 -168.4,-350.15 -182.76,-412.32 -14.26,-61.7 -11.42,-78.11 -45.27,-144.17l-1739.42 -60.81c28.23,78.53 464.35,593.63 548.03,679.18 101.94,104.2 186.65,226.18 275.05,328.81 80.48,93.42 244.81,228.02 221.53,359.43 -96.93,43.99 -372.88,-84.81 -500.08,-82.43 51.51,129.89 269.89,360.81 356.31,486.29l318.92 491.94z"/>
   <path class="fil2 str0" d="M12223.76 2581.9c-43.88,-87.94 -71.37,-402.01 -69.01,-512.05 176.29,43.05 196.9,277.74 184.71,442.57 -62.35,55.2 -40.2,52.01 -115.7,69.48zm-8007.31 -1207.39c17,-62.93 12.7,-61.56 66.74,-99.24l76.84 129.62c48.26,51.74 32.35,42.89 32.17,133.97 -0.64,324.41 52.98,468.52 -203.71,416.95 -10.6,-51.45 -45.88,-526.41 27.96,-581.3zm-2247.84 1720.48c-110.96,-155.84 -7.69,-499.64 19.26,-689.09 21.08,-148.11 28.42,-590.42 178.74,-628.16 100.61,105.66 6.98,444.89 -25.42,681.4 -34.28,250.29 -31.98,565.38 -172.58,635.85zm-1233.06 -509.43c-27.72,-143.25 63.86,-485.21 93.54,-689.09 36.37,-249.88 30.66,-169.91 83.77,-200.76 117.29,58.4 86.51,119.41 63.86,252.69 -41.2,242.43 -54.71,564.84 -241.17,637.16zm6664.51 -1467.61c63.34,3.61 137.65,53.95 192.11,96.56l-6.57 369.63c-53.56,52.28 -109.05,117.03 -185.99,116.32l0.45 -582.51zm1204.57 1241.14c-9.61,-110.35 3.87,-652.46 36.88,-730.93 92.49,21.93 64.02,121.91 79.33,232.33 49.18,354.85 153.36,642.85 -116.21,498.6z"/>
   <g>
    <g>
     <path class="fil3 str1" d="M6881.36 1906.54l47.01 231.87 -103.35 -12.75 13.32 1072.17 594.52 -9.86 0.3 -1122.74c71.9,16.93 122.88,56.52 140.41,120.44 73.94,44.55 37.75,377.95 39.66,476.29 3.16,162.99 13.99,338.09 10.5,499.31l541.77 13.67 -1.95 -542.37c67.66,-706.6 -230.86,-508.42 -311.09,-795.98l278.69 -203.98c4.61,-110.41 15.79,-543.45 -22.72,-616.99 -12.15,-23.2 -295.3,-279.43 -328.69,-303.02 -161.89,-59.45 -733.58,-24.13 -942.26,-25.41l1.57 938.62c0.38,155.83 16.09,149.86 42.31,280.73z"/>
     <path id="1" class="fil0" d="M6881.36 1906.54l47.01 231.87 -103.35 -12.75 13.32 1072.17 594.52 -9.86 0.3 -1122.74c71.9,16.93 122.88,56.52 140.41,120.44 73.94,44.55 37.75,377.95 39.66,476.29 3.16,162.99 13.99,338.09 10.5,499.31l541.77 13.67 -1.95 -542.37c67.66,-706.6 -230.86,-508.42 -311.09,-795.98l278.69 -203.98c4.61,-110.41 15.79,-543.45 -22.72,-616.99 -12.15,-23.2 -295.3,-279.43 -328.69,-303.02 -161.89,-59.45 -733.58,-24.13 -942.26,-25.41l1.57 938.62c0.38,155.83 16.09,149.86 42.31,280.73z"/>
    </g>
    <g>
     <path class="fil3 str1" d="M3.63 3708.33l-2.51 58.15c141.01,-4.7 178.54,28.63 285.92,36.75 73.24,-75.32 105.49,-104.12 187.04,-178.01 89.2,-80.82 51.05,-166.77 101.38,-267.46 141.96,-629.04 70.35,-21.75 669.37,-687.57 267.31,-297.13 198.95,-382.61 247.3,-785.25 28.19,-234.84 101.33,-669.03 -234.26,-694.69 -60.67,-4.63 -716.02,181.9 -813.7,215.91l-440.54 2302.17z"/>
     <path id="1" class="fil0" d="M3.63 3708.33l-2.51 58.15c141.01,-4.7 178.54,28.63 285.92,36.75 73.24,-75.32 105.49,-104.12 187.04,-178.01 89.2,-80.82 51.05,-166.77 101.38,-267.46 141.96,-629.04 70.35,-21.75 669.37,-687.57 267.31,-297.13 198.95,-382.61 247.3,-785.25 28.19,-234.84 101.33,-669.03 -234.26,-694.69 -60.67,-4.63 -716.02,181.9 -813.7,215.91l-440.54 2302.17z"/>
    </g>
    <g>
     <path class="fil3 str1" d="M13092.17 3277.25l-42.89 10.56c3.63,105.77 22.52,247.03 40.36,352.11 21.02,123.89 82.3,125.32 123.78,234.32 140.17,84.87 312.95,112.47 474.97,195.37 224.98,115.12 206.55,210.77 352.51,333.44l106.6 -57.17c5.44,-70.14 98.46,-145.81 134.53,-215.53 4.46,-18.68 -122.8,-792.38 -230.79,-896.68 -115.25,-111.29 -533.62,-434.85 -582.95,-526.98 -130.79,-59.39 -127.62,-115.11 -148.94,-252.89 -19.01,-122.85 -47.57,-242.06 -44.8,-365.06 215.45,44.26 174.74,208.28 235.79,391.87l388.21 101.24 6.16 -61.82c-24.97,-40.92 -40.82,-272.29 -95.4,-361.25 -44.2,-72.06 -154.54,-184.59 -215.63,-259.03 -108.18,-131.83 -84.88,-151.14 -268.07,-203.33 -111.76,-31.84 -254.28,-77.46 -368.39,-102.44 -264.69,311.55 -212.25,147.48 -129.87,745.76 37.72,273.96 -3.14,211.47 170.87,413.46 81.75,94.89 187.47,222.52 275.27,308.05 90.6,88.26 243.69,123.4 352.66,210.47l121.77 544.31c-236.17,-88.25 -161,-190.21 -225.83,-395.93 -96.98,-67.63 -308.04,-99.48 -429.92,-142.85z"/>
     <path id="1" class="fil0" d="M13092.17 3277.25l-42.89 10.56c3.63,105.77 22.52,247.03 40.36,352.11 21.02,123.89 82.3,125.32 123.78,234.32 140.17,84.87 312.95,112.47 474.97,195.37 224.98,115.12 206.55,210.77 352.51,333.44l106.6 -57.17c5.44,-70.14 98.46,-145.81 134.53,-215.53 4.46,-18.68 -122.8,-792.38 -230.79,-896.68 -115.25,-111.29 -533.62,-434.85 -582.95,-526.98 -130.79,-59.39 -127.62,-115.11 -148.94,-252.89 -19.01,-122.85 -47.57,-242.06 -44.8,-365.06 215.45,44.26 174.74,208.28 235.79,391.87l388.21 101.24 6.16 -61.82c-24.97,-40.92 -40.82,-272.29 -95.4,-361.25 -44.2,-72.06 -154.54,-184.59 -215.63,-259.03 -108.18,-131.83 -84.88,-151.14 -268.07,-203.33 -111.76,-31.84 -254.28,-77.46 -368.39,-102.44 -264.69,311.55 -212.25,147.48 -129.87,745.76 37.72,273.96 -3.14,211.47 170.87,413.46 81.75,94.89 187.47,222.52 275.27,308.05 90.6,88.26 243.69,123.4 352.66,210.47l121.77 544.31c-236.17,-88.25 -161,-190.21 -225.83,-395.93 -96.98,-67.63 -308.04,-99.48 -429.92,-142.85z"/>
    </g>
    <g>
     <path class="fil3 str1" d="M3143.19 1586.68l10.79 -331c-108.09,-13.18 -168.52,24.13 -279.71,29.94l-206.1 1942.01 379.03 -41.94 60.13 -955.45 92.28 64.65c124.75,23.86 76.53,285.85 77.13,388.66 0.85,147.68 -4.44,314.55 5.32,459.78l143.04 16.01 196.92 -63.59 17.46 -861.86 -187.59 -115.41 266.86 -924.96c-115.33,-53.82 -157.8,-18.97 -380.43,18.07l-112.11 755.58 -91.86 -12.22 8.84 -368.27z"/>
     <path id="1" class="fil0" d="M3143.19 1586.68l10.79 -331c-108.09,-13.18 -168.52,24.13 -279.71,29.94l-206.1 1942.01 379.03 -41.94 60.13 -955.45 92.28 64.65c124.75,23.86 76.53,285.85 77.13,388.66 0.85,147.68 -4.44,314.55 5.32,459.78l143.04 16.01 196.92 -63.59 17.46 -861.86 -187.59 -115.41 266.86 -924.96c-115.33,-53.82 -157.8,-18.97 -380.43,18.07l-112.11 755.58 -91.86 -12.22 8.84 -368.27z"/>
    </g>
    <g>
     <path class="fil3 str1" d="M2554.99 1776.92c50.93,-542.15 -599.02,-352.51 -801.54,-4.36 -47.43,81.52 -198.51,1119.4 -210.88,1280.66 -40.14,523.37 562.91,372 828.78,32.38 122.98,-157.09 159.66,-1053.4 183.64,-1308.68z"/>
     <path id="1" class="fil0" d="M2554.99 1776.92c50.93,-542.15 -599.02,-352.51 -801.54,-4.36 -47.43,81.52 -198.51,1119.4 -210.88,1280.66 -40.14,523.37 562.91,372 828.78,32.38 122.98,-157.09 159.66,-1053.4 183.64,-1308.68z"/>
    </g>
    <g>
     <path class="fil3 str1" d="M11825.96 1951.76l181.11 1163.63c12.49,103.87 48.24,425.95 92.44,493.95l268.88 67.47 -38.66 -351.46c-11.47,-149.75 -66.5,-294.61 -56.45,-444.36l162.74 105.43 15.42 107.88 94.55 598.72 28.79 47.97 177.27 40.95 102.77 12.38 -31.17 -294.75c5.23,-52.2 -46.37,-368.38 -66.92,-422.77 -36.2,-95.8 -146.8,-185.98 -189.63,-285.15 67.85,-182.31 130.6,-60.22 79.38,-336.82 -19.16,-103.45 -27.32,-256.85 -89.56,-337.89 -145.14,-188.98 -257.43,-348.26 -520.89,-332.98l-228.03 -33.06 17.96 200.86z"/>
     <path id="1" class="fil0" d="M11825.96 1951.76l181.11 1163.63c12.49,103.87 48.24,425.95 92.44,493.95l268.88 67.47 -38.66 -351.46c-11.47,-149.75 -66.5,-294.61 -56.45,-444.36l162.74 105.43 15.42 107.88 94.55 598.72 28.79 47.97 177.27 40.95 102.77 12.38 -31.17 -294.75c5.23,-52.2 -46.37,-368.38 -66.92,-422.77 -36.2,-95.8 -146.8,-185.98 -189.63,-285.15 67.85,-182.31 130.6,-60.22 79.38,-336.82 -19.16,-103.45 -27.32,-256.85 -89.56,-337.89 -145.14,-188.98 -257.43,-348.26 -520.89,-332.98l-228.03 -33.06 17.96 200.86z"/>
    </g>
    <g>
     <path class="fil3 str1" d="M9184.28 1782.43l37.94 148.92c16.86,192.62 60.77,1101.7 90.84,1137.75 63.08,40.46 211.44,36.56 299.47,21.81 -11.96,-126.41 -81.93,-590.15 -22.37,-673.78 76.55,61.06 164.84,474.88 209.22,628.51 33.9,117.38 44.3,99.72 161.05,110.91 33,-48.11 118.99,74.59 114.84,-28.18l-42.35 -446.13c1.38,-157.99 -103.67,-1254.87 -142.4,-1352.77l-277.15 -13.98c-20.42,350.6 85.8,568.57 -0.02,665.88 -108.78,-154.55 -123.11,-545.29 -237.65,-702.84l-203.43 -18.38c-8.6,153.67 49.92,405.83 12.01,522.28z"/>
     <path id="1" class="fil0" d="M9184.28 1782.43l37.94 148.92c16.86,192.62 60.77,1101.7 90.84,1137.75 63.08,40.46 211.44,36.56 299.47,21.81 -11.96,-126.41 -81.93,-590.15 -22.37,-673.78 76.55,61.06 164.84,474.88 209.22,628.51 33.9,117.38 44.3,99.72 161.05,110.91 33,-48.11 118.99,74.59 114.84,-28.18l-42.35 -446.13c1.38,-157.99 -103.67,-1254.87 -142.4,-1352.77l-277.15 -13.98c-20.42,350.6 85.8,568.57 -0.02,665.88 -108.78,-154.55 -123.11,-545.29 -237.65,-702.84l-203.43 -18.38c-8.6,153.67 49.92,405.83 12.01,522.28z"/>
    </g>
    <g>
     <path class="fil3 str1" d="M8332.62 3147.85c93.94,-9.35 173.43,-9.19 270.63,14.39l81.21 -484.72 140.24 19.79 -11.11 456.34 304.25 48.91 -242.8 -1977.07c-126.96,-17.84 -328.71,-30.84 -446.72,-5.63 -31.37,133.64 -121.45,1811.01 -95.7,1927.99z"/>
     <path id="1" class="fil0" d="M8332.62 3147.85c93.94,-9.35 173.43,-9.19 270.63,14.39l81.21 -484.72 140.24 19.79 -11.11 456.34 304.25 48.91 -242.8 -1977.07c-126.96,-17.84 -328.71,-30.84 -446.72,-5.63 -31.37,133.64 -121.45,1811.01 -95.7,1927.99z"/>
    </g>
    <g>
     <path class="fil3 str1" d="M11664.95 3469.55l196.04 30.74 -33.63 -278.7c-11.84,-85.01 -124.87,-22.64 -265.98,-112.04l-64.12 -493.3 190.08 24.77c9.38,-384.81 -94.65,-315.64 -226.55,-356.97 -37.09,-72.4 -54.22,-168.98 -52.88,-253.56 -48.38,-67.56 -39.79,-24.69 -32.69,-125.66 86.67,-37.29 119.81,4.3 228.22,0.4l-7.51 -120.13 -27.79 -150.59 -354.5 -64.83 -178.35 -20.9 223 1828.57c80.9,51.44 303.76,95.19 406.66,92.2z"/>
     <path id="1" class="fil0" d="M11664.95 3469.55l196.04 30.74 -33.63 -278.7c-11.84,-85.01 -124.87,-22.64 -265.98,-112.04l-64.12 -493.3 190.08 24.77c9.38,-384.81 -94.65,-315.64 -226.55,-356.97 -37.09,-72.4 -54.22,-168.98 -52.88,-253.56 -48.38,-67.56 -39.79,-24.69 -32.69,-125.66 86.67,-37.29 119.81,4.3 228.22,0.4l-7.51 -120.13 -27.79 -150.59 -354.5 -64.83 -178.35 -20.9 223 1828.57c80.9,51.44 303.76,95.19 406.66,92.2z"/>
    </g>
    <g>
     <path class="fil3 str1" d="M10487.92 2821.4c50.92,-416.44 -200.52,-1038.09 8.34,-1186.93 147.97,171.28 70.6,234.53 98.27,437.91 76.78,45.43 194.96,56.59 283.84,42.96 16.58,-422.19 -6.08,-385.19 -250.9,-673.9l-371.64 -53.55 -169.76 216.53 116.57 1159.13c116.38,420.63 364.14,543.37 684.74,501.09 144.26,-82.77 151.36,-251.98 129.93,-395.96 -69.28,-465.62 40.06,-557.75 -433.01,-552.04 -18.98,159.13 -3.03,199.44 75.38,298.68 72.04,19.92 50.01,66.05 56.4,154.21 6.77,93.34 35.29,123.56 -39.72,165.13l-12 32.28 -74.57 -8.46 -101.87 -137.08z"/>
     <path id="1" class="fil0" d="M10487.92 2821.4c50.92,-416.44 -200.52,-1038.09 8.34,-1186.93 147.97,171.28 70.6,234.53 98.27,437.91 76.78,45.43 194.96,56.59 283.84,42.96 16.58,-422.19 -6.08,-385.19 -250.9,-673.9l-371.64 -53.55 -169.76 216.53 116.57 1159.13c116.38,420.63 364.14,543.37 684.74,501.09 144.26,-82.77 151.36,-251.98 129.93,-395.96 -69.28,-465.62 40.06,-557.75 -433.01,-552.04 -18.98,159.13 -3.03,199.44 75.38,298.68 72.04,19.92 50.01,66.05 56.4,154.21 6.77,93.34 35.29,123.56 -39.72,165.13l-12 32.28 -74.57 -8.46 -101.87 -137.08z"/>
    </g>
    <g>
     <path class="fil3 str1" d="M4051.35 934.39c45.43,96.02 79.94,53.72 178.24,11.52 72.66,-31.19 167.7,-60.56 226.24,-102.13l-83.26 -114.47c-62.43,14.98 -291.94,150.16 -321.22,205.08z"/>
     <path id="1" class="fil0" d="M4051.35 934.39c45.43,96.02 79.94,53.72 178.24,11.52 72.66,-31.19 167.7,-60.56 226.24,-102.13l-83.26 -114.47c-62.43,14.98 -291.94,150.16 -321.22,205.08z"/>
    </g>
    <g>
     <path class="fil3 str1" d="M4739.47 1366.67l2.89 -87.17 -49.24 -27.98c-510.99,-286.84 -826.97,-70.84 -847.05,495.3 -19.02,536.15 -134.32,957.7 135.08,1386.03 555.21,20.51 777.11,-285.25 724.09,-831.48l-282.43 18.62 -138.68 523.28 -92.32 -12.32 -14.01 -722.31 519.25 -78.65 42.42 -663.32z"/>
     <path id="1" class="fil0" d="M4739.47 1366.67l2.89 -87.17 -49.24 -27.98c-510.99,-286.84 -826.97,-70.84 -847.05,495.3 -19.02,536.15 -134.32,957.7 135.08,1386.03 555.21,20.51 777.11,-285.25 724.09,-831.48l-282.43 18.62 -138.68 523.28 -92.32 -12.32 -14.01 -722.31 519.25 -78.65 42.42 -663.32z"/>
    </g>
    <g>
     <path class="fil3 str1" d="M5642.77 2347.49l-17.51 53.02 -190.84 -82.2 -149.12 -75.01 -245.81 -113.5c19.93,66.94 105.87,150.27 169.59,189.07l706.97 723.61 581.05 720.03c-21.72,-139.21 -431.98,-769.23 -426.6,-886.61 101.27,31.86 258.06,276.46 361.8,315.8l-106.18 -206.76c-47.71,-72.06 -140.63,-122.23 -141.61,-210.32 168.58,-0.14 335.66,161.13 513.9,157.81l-556.56 -1118.74 46.2 -5.6 635.82 232.2c-3.6,-125.65 -374.41,-1208.67 -433.41,-1338.72 -79.83,-55.93 -168.4,-350.15 -182.76,-412.32 -14.26,-61.7 -11.42,-78.11 -45.27,-144.17l-1739.42 -60.81c28.23,78.53 464.35,593.63 548.03,679.18 101.94,104.2 186.65,226.18 275.05,328.81 80.48,93.42 244.81,228.02 221.53,359.43 -96.93,43.99 -372.88,-84.81 -500.08,-82.43 51.51,129.89 269.89,360.81 356.31,486.29l318.92 491.94z"/>
     <path id="1" class="fil1" d="M5642.77 2347.49l-17.51 53.02 -190.84 -82.2 -149.12 -75.01 -245.81 -113.5c19.93,66.94 105.87,150.27 169.59,189.07l706.97 723.61 581.05 720.03c-21.72,-139.21 -431.98,-769.23 -426.6,-886.61 101.27,31.86 258.06,276.46 361.8,315.8l-106.18 -206.76c-47.71,-72.06 -140.63,-122.23 -141.61,-210.32 168.58,-0.14 335.66,161.13 513.9,157.81l-556.56 -1118.74 46.2 -5.6 635.82 232.2c-3.6,-125.65 -374.41,-1208.67 -433.41,-1338.72 -79.83,-55.93 -168.4,-350.15 -182.76,-412.32 -14.26,-61.7 -11.42,-78.11 -45.27,-144.17l-1739.42 -60.81c28.23,78.53 464.35,593.63 548.03,679.18 101.94,104.2 186.65,226.18 275.05,328.81 80.48,93.42 244.81,228.02 221.53,359.43 -96.93,43.99 -372.88,-84.81 -500.08,-82.43 51.51,129.89 269.89,360.81 356.31,486.29l318.92 491.94z"/>
    </g>
    <g>
     <path class="fil3 str1" d="M12223.76 2581.9c-43.88,-87.94 -71.37,-402.01 -69.01,-512.05 176.29,43.05 196.9,277.74 184.71,442.57 -62.35,55.2 -40.2,52.01 -115.7,69.48zm-8007.31 -1207.39c17,-62.93 12.7,-61.56 66.74,-99.24l76.84 129.62c48.26,51.74 32.35,42.89 32.17,133.97 -0.64,324.41 52.98,468.52 -203.71,416.95 -10.6,-51.45 -45.88,-526.41 27.96,-581.3zm-2247.84 1720.48c-110.96,-155.84 -7.69,-499.64 19.26,-689.09 21.08,-148.11 28.42,-590.42 178.74,-628.16 100.61,105.66 6.98,444.89 -25.42,681.4 -34.28,250.29 -31.98,565.38 -172.58,635.85zm-1233.06 -509.43c-27.72,-143.25 63.86,-485.21 93.54,-689.09 36.37,-249.88 30.66,-169.91 83.77,-200.76 117.29,58.4 86.51,119.41 63.86,252.69 -41.2,242.43 -54.71,564.84 -241.17,637.16zm6664.51 -1467.61c63.34,3.61 137.65,53.95 192.11,96.56l-6.57 369.63c-53.56,52.28 -109.05,117.03 -185.99,116.32l0.45 -582.51zm1204.57 1241.14c-9.61,-110.35 3.87,-652.46 36.88,-730.93 92.49,21.93 64.02,121.91 79.33,232.33 49.18,354.85 153.36,642.85 -116.21,498.6z"/>
     <path id="1" class="fil2" d="M12223.76 2581.9c-43.88,-87.94 -71.37,-402.01 -69.01,-512.05 176.29,43.05 196.9,277.74 184.71,442.57 -62.35,55.2 -40.2,52.01 -115.7,69.48zm-8007.31 -1207.39c17,-62.93 12.7,-61.56 66.74,-99.24l76.84 129.62c48.26,51.74 32.35,42.89 32.17,133.97 -0.64,324.41 52.98,468.52 -203.71,416.95 -10.6,-51.45 -45.88,-526.41 27.96,-581.3zm-2247.84 1720.48c-110.96,-155.84 -7.69,-499.64 19.26,-689.09 21.08,-148.11 28.42,-590.42 178.74,-628.16 100.61,105.66 6.98,444.89 -25.42,681.4 -34.28,250.29 -31.98,565.38 -172.58,635.85zm-1233.06 -509.43c-27.72,-143.25 63.86,-485.21 93.54,-689.09 36.37,-249.88 30.66,-169.91 83.77,-200.76 117.29,58.4 86.51,119.41 63.86,252.69 -41.2,242.43 -54.71,564.84 -241.17,637.16zm6664.51 -1467.61c63.34,3.61 137.65,53.95 192.11,96.56l-6.57 369.63c-53.56,52.28 -109.05,117.03 -185.99,116.32l0.45 -582.51zm1204.57 1241.14c-9.61,-110.35 3.87,-652.46 36.88,-730.93 92.49,21.93 64.02,121.91 79.33,232.33 49.18,354.85 153.36,642.85 -116.21,498.6z"/>
    </g>
   </g>
   <path class="fil0" d="M6881.36 1906.54l47.01 231.87 -103.35 -12.75 13.32 1072.17 594.52 -9.86 0.3 -1122.74c71.9,16.93 122.88,56.52 140.41,120.44 73.94,44.55 37.75,377.95 39.66,476.29 3.16,162.99 13.99,338.09 10.5,499.31l541.77 13.67 -1.95 -542.37c67.66,-706.6 -230.86,-508.42 -311.09,-795.98l278.69 -203.98c4.61,-110.41 15.79,-543.45 -22.72,-616.99 -12.15,-23.2 -295.3,-279.43 -328.69,-303.02 -161.89,-59.45 -733.58,-24.13 -942.26,-25.41l1.57 938.62c0.38,155.83 16.09,149.86 42.31,280.73z"/>
   <path class="fil0" d="M3.63 3708.33l-2.51 58.15c141.01,-4.7 178.54,28.63 285.92,36.75 73.24,-75.32 105.49,-104.12 187.04,-178.01 89.2,-80.82 51.05,-166.77 101.38,-267.46 141.96,-629.04 70.35,-21.75 669.37,-687.57 267.31,-297.13 198.95,-382.61 247.3,-785.25 28.19,-234.84 101.33,-669.03 -234.26,-694.69 -60.67,-4.63 -716.02,181.9 -813.7,215.91l-440.54 2302.17z"/>
   <path class="fil0" d="M13092.17 3277.25l-42.89 10.56c3.63,105.77 22.52,247.03 40.36,352.11 21.02,123.89 82.3,125.32 123.78,234.32 140.17,84.87 312.95,112.47 474.97,195.37 224.98,115.12 206.55,210.77 352.51,333.44l106.6 -57.17c5.44,-70.14 98.46,-145.81 134.53,-215.53 4.46,-18.68 -122.8,-792.38 -230.79,-896.68 -115.25,-111.29 -533.62,-434.85 -582.95,-526.98 -130.79,-59.39 -127.62,-115.11 -148.94,-252.89 -19.01,-122.85 -47.57,-242.06 -44.8,-365.06 215.45,44.26 174.74,208.28 235.79,391.87l388.21 101.24 6.16 -61.82c-24.97,-40.92 -40.82,-272.29 -95.4,-361.25 -44.2,-72.06 -154.54,-184.59 -215.63,-259.03 -108.18,-131.83 -84.88,-151.14 -268.07,-203.33 -111.76,-31.84 -254.28,-77.46 -368.39,-102.44 -264.69,311.55 -212.25,147.48 -129.87,745.76 37.72,273.96 -3.14,211.47 170.87,413.46 81.75,94.89 187.47,222.52 275.27,308.05 90.6,88.26 243.69,123.4 352.66,210.47l121.77 544.31c-236.17,-88.25 -161,-190.21 -225.83,-395.93 -96.98,-67.63 -308.04,-99.48 -429.92,-142.85z"/>
   <path class="fil0" d="M3143.19 1586.68l10.79 -331c-108.09,-13.18 -168.52,24.13 -279.71,29.94l-206.1 1942.01 379.03 -41.94 60.13 -955.45 92.28 64.65c124.75,23.86 76.53,285.85 77.13,388.66 0.85,147.68 -4.44,314.55 5.32,459.78l143.04 16.01 196.92 -63.59 17.46 -861.86 -187.59 -115.41 266.86 -924.96c-115.33,-53.82 -157.8,-18.97 -380.43,18.07l-112.11 755.58 -91.86 -12.22 8.84 -368.27z"/>
   <path class="fil0" d="M2554.99 1776.92c50.93,-542.15 -599.02,-352.51 -801.54,-4.36 -47.43,81.52 -198.51,1119.4 -210.88,1280.66 -40.14,523.37 562.91,372 828.78,32.38 122.98,-157.09 159.66,-1053.4 183.64,-1308.68z"/>
   <path class="fil0" d="M11825.96 1951.76l181.11 1163.63c12.49,103.87 48.24,425.95 92.44,493.95l268.88 67.47 -38.66 -351.46c-11.47,-149.75 -66.5,-294.61 -56.45,-444.36l162.74 105.43 15.42 107.88 94.55 598.72 28.79 47.97 177.27 40.95 102.77 12.38 -31.17 -294.75c5.23,-52.2 -46.37,-368.38 -66.92,-422.77 -36.2,-95.8 -146.8,-185.98 -189.63,-285.15 67.85,-182.31 130.6,-60.22 79.38,-336.82 -19.16,-103.45 -27.32,-256.85 -89.56,-337.89 -145.14,-188.98 -257.43,-348.26 -520.89,-332.98l-228.03 -33.06 17.96 200.86z"/>
   <path class="fil0" d="M9184.28 1782.43l37.94 148.92c16.86,192.62 60.77,1101.7 90.84,1137.75 63.08,40.46 211.44,36.56 299.47,21.81 -11.96,-126.41 -81.93,-590.15 -22.37,-673.78 76.55,61.06 164.84,474.88 209.22,628.51 33.9,117.38 44.3,99.72 161.05,110.91 33,-48.11 118.99,74.59 114.84,-28.18l-42.35 -446.13c1.38,-157.99 -103.67,-1254.87 -142.4,-1352.77l-277.15 -13.98c-20.42,350.6 85.8,568.57 -0.02,665.88 -108.78,-154.55 -123.11,-545.29 -237.65,-702.84l-203.43 -18.38c-8.6,153.67 49.92,405.83 12.01,522.28z"/>
   <path class="fil0" d="M8332.62 3147.85c93.94,-9.35 173.43,-9.19 270.63,14.39l81.21 -484.72 140.24 19.79 -11.11 456.34 304.25 48.91 -242.8 -1977.07c-126.96,-17.84 -328.71,-30.84 -446.72,-5.63 -31.37,133.64 -121.45,1811.01 -95.7,1927.99z"/>
   <path class="fil0" d="M11664.95 3469.55l196.04 30.74 -33.63 -278.7c-11.84,-85.01 -124.87,-22.64 -265.98,-112.04l-64.12 -493.3 190.08 24.77c9.38,-384.81 -94.65,-315.64 -226.55,-356.97 -37.09,-72.4 -54.22,-168.98 -52.88,-253.56 -48.38,-67.56 -39.79,-24.69 -32.69,-125.66 86.67,-37.29 119.81,4.3 228.22,0.4l-7.51 -120.13 -27.79 -150.59 -354.5 -64.83 -178.35 -20.9 223 1828.57c80.9,51.44 303.76,95.19 406.66,92.2z"/>
   <path class="fil0" d="M10487.92 2821.4c50.92,-416.44 -200.52,-1038.09 8.34,-1186.93 147.97,171.28 70.6,234.53 98.27,437.91 76.78,45.43 194.96,56.59 283.84,42.96 16.58,-422.19 -6.08,-385.19 -250.9,-673.9l-371.64 -53.55 -169.76 216.53 116.57 1159.13c116.38,420.63 364.14,543.37 684.74,501.09 144.26,-82.77 151.36,-251.98 129.93,-395.96 -69.28,-465.62 40.06,-557.75 -433.01,-552.04 -18.98,159.13 -3.03,199.44 75.38,298.68 72.04,19.92 50.01,66.05 56.4,154.21 6.77,93.34 35.29,123.56 -39.72,165.13l-12 32.28 -74.57 -8.46 -101.87 -137.08z"/>
   <path class="fil0" d="M4051.35 934.39c45.43,96.02 79.94,53.72 178.24,11.52 72.66,-31.19 167.7,-60.56 226.24,-102.13l-83.26 -114.47c-62.43,14.98 -291.94,150.16 -321.22,205.08z"/>
   <path class="fil0" d="M4739.47 1366.67l2.89 -87.17 -49.24 -27.98c-510.99,-286.84 -826.97,-70.84 -847.05,495.3 -19.02,536.15 -134.32,957.7 135.08,1386.03 555.21,20.51 777.11,-285.25 724.09,-831.48l-282.43 18.62 -138.68 523.28 -92.32 -12.32 -14.01 -722.31 519.25 -78.65 42.42 -663.32z"/>
   <path class="fil1" d="M5642.77 2347.49l-17.51 53.02 -190.84 -82.2 -149.12 -75.01 -245.81 -113.5c19.93,66.94 105.87,150.27 169.59,189.07l706.97 723.61 581.05 720.03c-21.72,-139.21 -431.98,-769.23 -426.6,-886.61 101.27,31.86 258.06,276.46 361.8,315.8l-106.18 -206.76c-47.71,-72.06 -140.63,-122.23 -141.61,-210.32 168.58,-0.14 335.66,161.13 513.9,157.81l-556.56 -1118.74 46.2 -5.6 635.82 232.2c-3.6,-125.65 -374.41,-1208.67 -433.41,-1338.72 -79.83,-55.93 -168.4,-350.15 -182.76,-412.32 -14.26,-61.7 -11.42,-78.11 -45.27,-144.17l-1739.42 -60.81c28.23,78.53 464.35,593.63 548.03,679.18 101.94,104.2 186.65,226.18 275.05,328.81 80.48,93.42 244.81,228.02 221.53,359.43 -96.93,43.99 -372.88,-84.81 -500.08,-82.43 51.51,129.89 269.89,360.81 356.31,486.29l318.92 491.94z"/>
   <g>
    <path class="fil3 str2" d="M12223.76 2581.9c-43.88,-87.94 -71.37,-402.01 -69.01,-512.05 176.29,43.05 196.9,277.74 184.71,442.57 -62.35,55.2 -40.2,52.01 -115.7,69.48zm-8007.31 -1207.39c17,-62.93 12.7,-61.56 66.74,-99.24l76.84 129.62c48.26,51.74 32.35,42.89 32.17,133.97 -0.64,324.41 52.98,468.52 -203.71,416.95 -10.6,-51.45 -45.88,-526.41 27.96,-581.3zm-2247.84 1720.48c-110.96,-155.84 -7.69,-499.64 19.26,-689.09 21.08,-148.11 28.42,-590.42 178.74,-628.16 100.61,105.66 6.98,444.89 -25.42,681.4 -34.28,250.29 -31.98,565.38 -172.58,635.85zm-1233.06 -509.43c-27.72,-143.25 63.86,-485.21 93.54,-689.09 36.37,-249.88 30.66,-169.91 83.77,-200.76 117.29,58.4 86.51,119.41 63.86,252.69 -41.2,242.43 -54.71,564.84 -241.17,637.16zm6664.51 -1467.61c63.34,3.61 137.65,53.95 192.11,96.56l-6.57 369.63c-53.56,52.28 -109.05,117.03 -185.99,116.32l0.45 -582.51zm1204.57 1241.14c-9.61,-110.35 3.87,-652.46 36.88,-730.93 92.49,21.93 64.02,121.91 79.33,232.33 49.18,354.85 153.36,642.85 -116.21,498.6z"/>
    <path id="1" class="fil2" d="M12223.76 2581.9c-43.88,-87.94 -71.37,-402.01 -69.01,-512.05 176.29,43.05 196.9,277.74 184.71,442.57 -62.35,55.2 -40.2,52.01 -115.7,69.48zm-8007.31 -1207.39c17,-62.93 12.7,-61.56 66.74,-99.24l76.84 129.62c48.26,51.74 32.35,42.89 32.17,133.97 -0.64,324.41 52.98,468.52 -203.71,416.95 -10.6,-51.45 -45.88,-526.41 27.96,-581.3zm-2247.84 1720.48c-110.96,-155.84 -7.69,-499.64 19.26,-689.09 21.08,-148.11 28.42,-590.42 178.74,-628.16 100.61,105.66 6.98,444.89 -25.42,681.4 -34.28,250.29 -31.98,565.38 -172.58,635.85zm-1233.06 -509.43c-27.72,-143.25 63.86,-485.21 93.54,-689.09 36.37,-249.88 30.66,-169.91 83.77,-200.76 117.29,58.4 86.51,119.41 63.86,252.69 -41.2,242.43 -54.71,564.84 -241.17,637.16zm6664.51 -1467.61c63.34,3.61 137.65,53.95 192.11,96.56l-6.57 369.63c-53.56,52.28 -109.05,117.03 -185.99,116.32l0.45 -582.51zm1204.57 1241.14c-9.61,-110.35 3.87,-652.46 36.88,-730.93 92.49,21.93 64.02,121.91 79.33,232.33 49.18,354.85 153.36,642.85 -116.21,498.6z"/>
   </g>
   <g>
    <path class="fil3 str3" d="M12223.76 2581.9c-43.88,-87.94 -71.37,-402.01 -69.01,-512.05 176.29,43.05 196.9,277.74 184.71,442.57 -62.35,55.2 -40.2,52.01 -115.7,69.48zm-8007.31 -1207.39c17,-62.93 12.7,-61.56 66.74,-99.24l76.84 129.62c48.26,51.74 32.35,42.89 32.17,133.97 -0.64,324.41 52.98,468.52 -203.71,416.95 -10.6,-51.45 -45.88,-526.41 27.96,-581.3zm-2247.84 1720.48c-110.96,-155.84 -7.69,-499.64 19.26,-689.09 21.08,-148.11 28.42,-590.42 178.74,-628.16 100.61,105.66 6.98,444.89 -25.42,681.4 -34.28,250.29 -31.98,565.38 -172.58,635.85zm-1233.06 -509.43c-27.72,-143.25 63.86,-485.21 93.54,-689.09 36.37,-249.88 30.66,-169.91 83.77,-200.76 117.29,58.4 86.51,119.41 63.86,252.69 -41.2,242.43 -54.71,564.84 -241.17,637.16zm6664.51 -1467.61c63.34,3.61 137.65,53.95 192.11,96.56l-6.57 369.63c-53.56,52.28 -109.05,117.03 -185.99,116.32l0.45 -582.51zm1204.57 1241.14c-9.61,-110.35 3.87,-652.46 36.88,-730.93 92.49,21.93 64.02,121.91 79.33,232.33 49.18,354.85 153.36,642.85 -116.21,498.6z"/>
    <path id="1" class="fil4" d="M12223.76 2581.9c-43.88,-87.94 -71.37,-402.01 -69.01,-512.05 176.29,43.05 196.9,277.74 184.71,442.57 -62.35,55.2 -40.2,52.01 -115.7,69.48zm-8007.31 -1207.39c17,-62.93 12.7,-61.56 66.74,-99.24l76.84 129.62c48.26,51.74 32.35,42.89 32.17,133.97 -0.64,324.41 52.98,468.52 -203.71,416.95 -10.6,-51.45 -45.88,-526.41 27.96,-581.3zm-2247.84 1720.48c-110.96,-155.84 -7.69,-499.64 19.26,-689.09 21.08,-148.11 28.42,-590.42 178.74,-628.16 100.61,105.66 6.98,444.89 -25.42,681.4 -34.28,250.29 -31.98,565.38 -172.58,635.85zm-1233.06 -509.43c-27.72,-143.25 63.86,-485.21 93.54,-689.09 36.37,-249.88 30.66,-169.91 83.77,-200.76 117.29,58.4 86.51,119.41 63.86,252.69 -41.2,242.43 -54.71,564.84 -241.17,637.16zm6664.51 -1467.61c63.34,3.61 137.65,53.95 192.11,96.56l-6.57 369.63c-53.56,52.28 -109.05,117.03 -185.99,116.32l0.45 -582.51zm1204.57 1241.14c-9.61,-110.35 3.87,-652.46 36.88,-730.93 92.49,21.93 64.02,121.91 79.33,232.33 49.18,354.85 153.36,642.85 -116.21,498.6z"/>
   </g>
  </g>
 </g>
</svg>
