<?xml version="1.0" encoding="UTF-8"?>
<!DOCTYPE svg PUBLIC "-//W3C//DTD SVG 1.1//EN" "http://www.w3.org/Graphics/SVG/1.1/DTD/svg11.dtd">
<!-- Creator: CorelDRAW 2017 -->
<svg xmlns="http://www.w3.org/2000/svg" xml:space="preserve" width="35.5598mm" height="25.3998mm" version="1.1" style="shape-rendering:geometricPrecision; text-rendering:geometricPrecision; image-rendering:optimizeQuality; fill-rule:evenodd; clip-rule:evenodd"
viewBox="0 0 3555.98 2539.98"
 xmlns:xlink="http://www.w3.org/1999/xlink">
 <defs>
  <style type="text/css">
   <![CDATA[
    .str1 {stroke:#EB6825;stroke-width:7.62;stroke-miterlimit:22.9256}
    .str3 {stroke:black;stroke-width:28.91;stroke-linecap:round;stroke-linejoin:round;stroke-miterlimit:22.9256}
    .str2 {stroke:#292929;stroke-width:28.91;stroke-linecap:round;stroke-linejoin:round;stroke-miterlimit:22.9256}
    .str5 {stroke:black;stroke-width:28.91;stroke-linecap:round;stroke-linejoin:round;stroke-miterlimit:22.9256}
    .str0 {stroke:#FEFEFE;stroke-width:75;stroke-linecap:round;stroke-linejoin:round;stroke-miterlimit:22.9256}
    .str4 {stroke:black;stroke-width:21.68;stroke-linecap:round;stroke-linejoin:round;stroke-miterlimit:22.9256}
    .fil0 {fill:none}
    .fil10 {fill:#292929}
    .fil9 {fill:black}
    .fil1 {fill:black}
    .fil5 {fill:#2A3C43}
    .fil15 {fill:#54541C}
    .fil2 {fill:#554B50}
    .fil3 {fill:#558847}
    .fil20 {fill:#5CB54B}
    .fil12 {fill:#776870}
    .fil13 {fill:#8B421A}
    .fil8 {fill:#94902C}
    .fil4 {fill:#989797}
    .fil11 {fill:#DBDBDB}
    .fil16 {fill:#EAB5D4}
    .fil17 {fill:#EB6825}
    .fil14 {fill:#EB6825}
    .fil21 {fill:#F3EC46}
    .fil6 {fill:#FAF898}
    .fil18 {fill:#FAFBFA}
    .fil22 {fill:#292929;fill-rule:nonzero}
    .fil19 {fill:url(#id0)}
    .fil7 {fill:url(#id1)}
   ]]>
  </style>
  <linearGradient id="id0" gradientUnits="userSpaceOnUse" x1="1602.45" y1="2241.08" x2="1733.66" y2="1277.44">
   <stop offset="0" style="stop-opacity:1; stop-color:#C8DC47"/>
   <stop offset="0.439216" style="stop-opacity:1; stop-color:#90CA4F"/>
   <stop offset="1" style="stop-opacity:1; stop-color:#5CB54B"/>
  </linearGradient>
  <linearGradient id="id1" gradientUnits="userSpaceOnUse" x1="802.9" y1="2019.54" x2="795.67" y2="2173.93">
   <stop offset="0" style="stop-opacity:1; stop-color:#C8DC47"/>
   <stop offset="0.541176" style="stop-opacity:1; stop-color:#90CA4F"/>
   <stop offset="1" style="stop-opacity:1; stop-color:#5CB54B"/>
  </linearGradient>
 </defs>
 <g id="Capa_x0020_1">
  <metadata id="CorelCorpID_0Corel-Layer"/>
  <g>
   <path class="fil0 str0" d="M285.96 1151.35c279.01,-126.71 610.64,-172.77 955.59,-198.4l-10.99 -251.53 55.6 -4.4 -91.76 -626.47 601.86 137.36 459.47 407.98 -207.46 342.75c417.98,0.73 801.84,60.93 1149.21,184.79l-13.78 432.06 69.35 76.8c58.18,-47.78 121.29,-28.36 189.61,62.05 29,34.78 -39.61,58.72 -59.41,88.08 107.35,125.19 127.15,230.15 36.82,309.66l13.63 114.67 -240.37 242.68c-276.4,-224.32 -601.97,-369.65 -967.01,-451.58 -302.98,281.04 -650.81,397.07 -1127.13,40.4 -225.95,90.9 -435.43,195.99 -623.76,319.34l-40.5 -26.81c1.72,25.99 2.4,50.96 -10.35,62.94 -44.24,23.98 -84.3,41.33 -120.67,52.83 -100.46,-132.82 -235.88,-148.85 -223.5,-265.12 15.94,-223.04 18.46,-376.63 -1.1,-416.12l-0.63 -240.48c20.34,-40.41 136.92,-64.39 205.38,-96.59l1.9 -187.52 0 -109.37z"/>
   <path id="1" class="fil1" d="M285.96 1151.35c279.01,-126.71 610.64,-172.77 955.59,-198.4l-10.99 -251.53 55.6 -4.4 -91.76 -626.47 601.86 137.36 459.47 407.98 -207.46 342.75c417.98,0.73 801.84,60.93 1149.21,184.79l-13.78 432.06 69.35 76.8c58.18,-47.78 121.29,-28.36 189.61,62.05 29,34.78 -39.61,58.72 -59.41,88.08 107.35,125.19 127.15,230.15 36.82,309.66l13.63 114.67 -240.37 242.68c-276.4,-224.32 -601.97,-369.65 -967.01,-451.58 -302.98,281.04 -650.81,397.07 -1127.13,40.4 -225.95,90.9 -435.43,195.99 -623.76,319.34l-40.5 -26.81c1.72,25.99 2.4,50.96 -10.35,62.94 -44.24,23.98 -84.3,41.33 -120.67,52.83 -100.46,-132.82 -235.88,-148.85 -223.5,-265.12 15.94,-223.04 18.46,-376.63 -1.1,-416.12l-0.63 -240.48c20.34,-40.41 136.92,-64.39 205.38,-96.59l1.9 -187.52 0 -109.37z"/>
  </g>
  <path class="fil2" d="M2472.88 1546.94l15.71 7.01c1.73,0.46 3.63,0.66 5.5,1.1 14.17,3.36 10.76,0.24 22.28,5.15l-0.35 26.93c28.94,-8.55 14.78,-38.79 2.6,-52.42 25.14,-6.9 29.6,-9.57 41.65,-36.83 -25.95,6.58 -81.05,20.05 -64.95,48.64l-22.44 0.42z"/>
  <path class="fil3" d="M493.41 1608.97c48.83,-4.57 32.1,-2.39 61.97,16.24l2.62 -18.17c-34.83,-26.36 -27.24,-8.29 -64.21,-25.93 -22.77,-10.86 -106.75,-73.15 -159.01,-92.04 25.57,20.08 -18.79,-1.59 58.23,62.29 -16.19,-10.57 -27.92,-18.83 -46.38,-22.4 22.23,18.98 14.98,21.76 29.73,44.67 15.42,23.95 21.9,19.05 36.58,40.8 57.29,-0.61 68.31,-28.7 80.47,-5.46z"/>
  <path class="fil3" d="M2201.94 1514.96c12.46,-6.69 13.88,2.39 6.61,-7.17 5.27,14.05 4.05,26.26 16.3,43.78l1.42 -24.32c29.76,-9.35 57.06,-30.64 81.28,-49.45 25.97,-20.16 19.99,-25.05 20.01,-25.09 3.51,-6.4 23.26,-21.37 28.09,-25.54 -41.01,-8.16 -87.88,35.36 -135.72,43.79 -14.65,55.61 -21.7,-12.23 -17.99,44z"/>
  <path class="fil3" d="M3300.83 2102.42c19.22,-6.75 85.53,-56.37 98.83,-80.32 8.56,-15.4 13.84,-13.3 26.65,-28.9 -28.19,9.56 -40.39,8.99 -70.21,25.27 -20.96,11.44 -47.24,30.13 -70.89,37.03 4.03,26.04 2.37,30.51 15.62,46.92z"/>
  <path class="fil3" d="M2991.99 1705.7c13.37,15.63 19.29,13.11 30.05,23.37 8.58,8.19 3.3,4.77 9.09,12.88 1.08,1.51 4.6,6.61 5.72,8.04 1.05,1.36 2.8,3.12 3.72,4.25 0.99,1.21 2.64,3.04 4.04,4.48 17.04,-20.97 -3.97,-1.65 24.48,-15.09l109.95 -99.91c-42.06,19.7 -89.85,51.31 -135.01,78.45 -0.98,-0.72 -2.39,-1.82 -2.9,-2.25 -0.52,-0.43 -2.29,-1.76 -2.94,-2.31l-5.83 -5.31c-4.54,-4.24 -8.63,-8.71 -11.73,-12.26l-28.64 5.66z"/>
  <path class="fil3" d="M479.79 2285.04c0.59,-20.88 -0.74,-15.4 -1.55,-30.34 -0.75,-13.73 -1.67,-18.31 5.43,-21.46l25.69 -13.64 -5.8 -8.45c20.78,-14.21 37.58,-21.81 52.44,-39.51 -20.56,5.48 -39.99,15.95 -61.32,24.76 -34.2,14.12 -20.27,11.98 -59.02,2.46 9.6,17.49 15.49,18.32 24.38,27.57l-7.59 1.72c-1.29,0.24 -6.29,0.73 -7.54,0.99 -14.48,2.95 0.44,-4.22 -9.96,3.27 13.37,26.65 37.02,56.56 31.62,97.57l4.53 -56.17c8.48,31.58 -2.77,-6.19 8.69,11.23z"/>
  <path class="fil3" d="M2363.93 1545.6c33.2,-8.9 96.72,-61.15 105.07,-88.72l-117.7 48.61 12.63 40.11z"/>
  <path class="fil3" d="M2914.79 1664.44c0.08,0.03 21.32,4.8 22.21,4.76 25.18,-1.01 54.68,-52.15 54.82,-52.35 8.1,-11.25 17.01,-10.15 18.7,-25.54 -24.9,8.04 -93.84,39.92 -115.96,61.81l20.23 11.32z"/>
  <path class="fil3" d="M2881.77 1547.37c-25.01,2.78 -102.96,38.99 -123.81,57.98 12.94,13.01 12.82,12.57 41.22,14.94l82.59 -72.92z"/>
  <path class="fil3" d="M3201.94 1761.52c12.03,-11.5 57.63,-61.18 59.68,-74.99 -12.91,5.18 -35.24,17.9 -49.88,26.23 -27.01,15.35 -37.76,18.84 -50.7,39.03 22.19,7.55 15.3,8.45 40.9,9.73z"/>
  <path class="fil3" d="M1856.1 1298.4c42.78,3.97 80.83,7.27 117.13,-48.78 -30.83,4.18 -96.56,24.79 -117.13,48.78z"/>
  <path class="fil3" d="M2661.83 1584.89c25.75,-17.6 45.12,-41.02 66.49,-62.5 -27.26,4.41 -85.3,26.16 -106.51,47.13 1.59,1.07 3.47,2.47 4.78,3.18 1.28,0.69 3.15,2.13 4.73,2.91l30.51 9.28z"/>
  <path class="fil4" d="M750.8 1884.4c14.99,12.49 16.98,12.63 54.24,5l-7.63 6.72c-29.05,33.16 -2.34,8.82 -0.92,16.25l-36.87 8.99c1.29,0.08 3.67,-0.37 4.41,1.92l17.42 11.75c17.79,14.33 16.22,-11.31 6.21,9.12 -6.25,12.74 3,1.61 -16.26,8.34l-28.66 11.88c47.42,-2.37 96.69,-0.44 133.27,-54.82 52.41,-77.9 30.15,-55.38 47.55,-133.18 -29.19,14.17 -69.91,34.32 -84.91,60.56 -17.54,30.7 -40.21,53.25 -87.85,47.47z"/>
  <path class="fil5" d="M1868.69 2095.02c15.59,-6.14 26.81,-10.55 40.76,-16.76 7.31,-3.26 11.33,-5.19 16.1,-8.36 12.89,-8.59 9.36,-7.48 14.18,-12.23l-14.3 -18.65c-12.56,11.98 -7.93,8.7 -28.02,8.76l-1.65 -12.07c-4.78,-9.73 -61.92,-35.86 -83.82,13.43 29.87,17.24 69.69,-0.28 56.75,45.88z"/>
  <path class="fil5" d="M693.75 1589.35l16.09 -4.07 -25.58 -16.22c4.57,-3.3 8.56,-1.97 7.7,-11.06 -0.11,-1.25 -3.31,-7.47 -4.27,-9.22 0.25,0.07 17.58,5.14 17.91,5.17 9.15,0.7 8.85,-0.83 11.85,-1.83 -21.78,-7.22 -46.48,-26.86 -68.15,-37.03 -2.99,3.29 -7.02,9.08 -10.68,11.83 46.93,35.57 27.57,63.85 55.13,62.43z"/>
  <path class="fil6" d="M595.52 1311.85c-27.46,-26.27 -31.84,-113.76 -64.17,-89.43 -1.03,1.31 -2.15,1.86 -2.46,4.35l-7.11 213.64c40.92,-7.42 34.01,5.2 32.67,-111.67 21.09,16.29 28.07,49.4 39.56,71.19l41.33 -80.55 0.1 80.84 27.25 -1.81c9.75,-30.22 4.65,-164.84 4.32,-210.99 -55.11,10.56 -29.05,60.31 -71.49,124.43z"/>
  <path class="fil6" d="M2859.65 1288.35c18.11,16.47 29.96,51.52 41.17,78.46 13.03,31.33 18.31,64.33 48.76,72.78 -1.02,-39.99 0.27,-80.8 0.45,-120.9 0.41,-87.91 10.64,-86.71 -19.46,-97 -6.27,8.28 -2.51,-0.4 -6.33,14.13 -2.63,10.04 -0.64,0.27 -1.89,10.93 -0.64,5.42 -0.15,23.47 -0.12,30.06 0.08,20.08 -0.23,40 0.08,60.11 -41.26,-30.66 -35.07,-137.54 -89.19,-139.59l-1.56 205.37 26.54 8.73 1.55 -123.08z"/>
  <path class="fil6" d="M2373.64 1137.42c75.85,-27.88 116.94,115.34 45.45,135.12 -66.25,18.33 -121.38,-107.22 -45.45,-135.12zm75.24 -9.03l-3.46 -3.31c-53.2,-29.83 -94.67,-34.46 -124.6,19.49 -27.14,48.92 1.28,112.35 28.49,134.37 99.45,80.45 185.63,-38.58 99.57,-150.55z"/>
  <path class="fil6" d="M885.93 1347.4c8.46,-21.25 5.53,-82.76 5.57,-116.58l-41.08 3.84 18.45 88.63c-110.82,23.69 -107.34,-163.93 25.22,-150.75 -0.91,-3.49 -1.76,-14.29 -2.09,-15.31 -6.1,-18.43 4.25,-4.51 -8.74,-17.03l-29.28 0.35c-115.67,21.45 -145.25,255.16 31.95,206.85z"/>
  <path class="fil6" d="M2703.14 1319.32l41.02 -120.33 7.9 -23.69 -32.37 -6.39c-10.77,34.57 -24.04,98.4 -45.92,124.88 -12.32,-23.53 -18.37,-58.39 -26.65,-85.64 -13.04,-42.96 -3.59,-58.08 -47.65,-63.24 4.55,35.71 23.51,87.62 34.32,123.86 6.53,21.85 11.89,39.14 17.78,60.33 9.89,35.53 2.1,31.03 36.14,37.72l15.43 -47.5z"/>
  <path class="fil6" d="M1011.61 1121.65l-1.44 83.61 -60.23 11.92 0.75 -88.51c-31.57,4.2 -22.34,-0.39 -23.18,94.47 -0.23,25.12 -7.24,89.31 8.42,109.11 26.52,-10.05 10.33,-9.45 14.78,-86.97l59.13 -6.49 1.6 82.97 17.78 -2.39 3.03 -197.76c0.4,-0.03 5.23,-15.47 -20.64,0.04z"/>
  <path class="fil6" d="M2280.29 1139.5l11.2 -46.32 -29.97 -1.19 -37.99 109.95c-7.37,12.4 -2.93,4.1 -12.01,12.05 -7.32,-25.69 -15.43,-52.75 -23.87,-77.96 -1.49,-4.45 -13.01,-40.84 -13.36,-41.43 -5.94,-10.15 1.18,-11.13 -14.34,-11.39 -31.83,-0.54 -11.32,-4.36 -18.15,14.49 10.57,19.73 23.71,66.02 32.58,93.05 20.24,61.65 4.74,39.39 57.46,66.59 23.97,-28.62 28.56,-83.15 48.45,-117.84z"/>
  <path class="fil6" d="M1245.63 1181.62c-26.05,-92.14 -23.89,-93.17 -57.18,-89.48 9.69,28.7 21.23,61.69 31.66,92.16 28.27,82.62 5.99,76.53 20.39,106.93 50.37,-2.84 2.52,-9.04 36.46,-103.2 10.93,-30.34 26.07,-71.28 32.92,-101.02 -56.14,-1.69 -25.13,59.13 -64.25,94.61z"/>
  <path class="fil6" d="M2604.01 1350.02c2.05,-38.36 -20.55,-35.33 -59.63,-40.12 0.21,-36.88 0.28,-73.77 0.5,-110.65 0.4,-68.15 8.61,-72.76 -26.46,-75.44l0.69 208.09 84.9 18.12z"/>
  <path class="fil6" d="M1053.62 1111.89l0.37 27.72 40.36 -3.92c3.81,28.77 1.28,58.83 1.02,87.45 -0.45,49.58 -9.28,78.88 13.74,77.48 18.15,-1.1 9.85,-33.18 10.23,-77.48 0.26,-30.35 0.04,-60.74 1.01,-91.06 41.09,-7.85 43.45,5.82 44.55,-30.99l-111.28 10.8z"/>
  <path class="fil6" d="M710 1193.28l-0.83 191.74c28.51,-6.78 27.54,-1.12 29.28,-29.89l0.98 -187.95c-25.57,3.4 -29.39,-0.34 -29.43,26.1z"/>
  <path class="fil6" d="M2773.51 1394.29l11.38 0.16c17.79,-1.7 13.4,18.36 14.06,-51.84 0.18,-19.84 0.66,-39.9 1.07,-59.75 2.17,-103.47 12.13,-93.8 -23.6,-99.01l-2.91 210.44z"/>
  <path class="fil7" d="M1298.79 1955.34c40.28,-6.39 75.6,-21.13 114.65,-19.75 19.25,-13.84 9.46,2.51 16.2,-18.04l2.15 -52.04c-21.73,2.49 -130.78,20.23 -148.44,35.29 -58.86,-2.36 -299.37,89.68 -360.81,115.44 -52.61,22.05 -292.78,128.47 -315.1,151.08 -34.03,9.67 -66.79,35.06 -98.08,52.28l-25.69 13.64c-7.1,3.15 -6.18,7.73 -5.43,21.46 0.81,14.94 2.14,9.46 1.55,30.34l1.83 43.86c23.13,-9.72 51.66,-32.61 74.2,-46.62 109.78,-68.2 268.6,-148.68 384.9,-200.58l148.66 -60.56c15.7,-8.59 7.82,-3.83 16.27,-11.76l193.14 -54.04z"/>
  <path class="fil8" d="M1781.03 1248.04c2.72,-6.99 6.73,-15.39 6.28,-25.58 -1.94,-44.46 0.02,-1.22 -7.04,-20.76l-5.03 -31.91c-0.31,-10.16 0.08,-16.64 -0.97,-27.7 -2.38,26.09 -23.71,65.97 -15.65,89.21 -9.82,-15.34 1.95,-66.88 0.05,-112.79 -7.07,20.42 -9.32,57.33 -23.21,83.72l-1.15 -137.36c-4.68,15.95 -7.89,30.64 -11.4,48.86 -1.51,7.84 -4.3,23.89 -6.39,30.53l-11.11 22.98c4.42,-64.8 50.77,-306.79 79.08,-351.49 -5.93,28.13 -18.92,71.33 -12.49,89.65l26.06 -75.94c18.2,-13.12 -7.02,-4.05 4.22,1.61 28.8,14.51 -23.91,10.51 6.06,3.89 2.58,-17.17 7.39,-23.4 13.21,-40.83 2.43,-7.29 3.61,-13.1 7.19,-23.05l25.65 -50.36c7.39,-16.81 8.54,-22.62 17.11,-40.83l-82.13 21.76c-45.55,124.88 -100.58,455.62 -107.93,595.04 37.52,-7.92 73.49,-29.74 99.59,-48.65z"/>
  <path class="fil8" d="M1444.96 1289.97c-3.66,-9.03 -8.19,-18.16 -11.6,-26.83l-57.04 -151.1c16.68,6.52 3.35,12.24 27.5,27.69 -9.82,-30.47 -20.14,-57.39 -29.59,-90.81 -8.1,-28.63 -19.59,-55.88 -29.06,-82.39 23.37,9.21 20.68,52.86 42.29,64.42l-13.1 -59.12c15.8,9.11 5.7,0.36 17.75,16.49 9.75,13.07 15.1,33.49 31.93,46.71 -2.41,-17.11 -7.24,-60.52 -24.37,-77.06 -23.01,-3.14 -102.46,-120.42 -129.31,-156.42 -17.47,42.74 120.32,463.23 165.86,526.8l5.14 -30.38c0.28,-0.96 1.51,-1.93 1.73,-4.08 0.22,-2.11 1.01,-2.76 1.87,-3.92z"/>
  <path class="fil8" d="M1783.95 1366.99c26.67,-36.37 17.31,-41.91 26.5,-63.25 9.2,-21.36 11.27,-1.21 25.89,-56.76 -39.4,3.15 -116.58,51.6 -153.92,69.98 -22.23,-27.25 -66.76,-105.81 -88.18,-117.5 -6.81,55.33 -9.31,129.96 23.65,165.44l13.53 -29.86c14.78,7.45 4.48,0.45 17.12,11.39 15.52,13.42 9.68,18.51 33.88,33.32 15.2,-19.35 12.26,-34.64 23.17,-52.83 14.83,17.82 14.47,34.45 32.02,50.58l22.13 -45.69 24.21 35.18z"/>
  <path class="fil8" d="M1991.62 633.51c18.73,-1.03 179.7,-14.9 194.48,-26.2 -79.08,-40.37 -179.11,-142.31 -252.4,-194.04 14.08,27.49 42.15,52.85 66.49,74.15 55.68,48.76 20.95,36.74 20.86,37.12 -6.24,25.99 0.19,11.57 22.95,38.62 -17.33,-9.1 -3.26,-1.95 -14.11,-9.24l-23.18 -14.57c12.83,16.88 43.79,58.05 47.75,70.96 -12.84,2.1 -24.11,4.72 -33.29,7.55l-29.55 15.65z"/>
  <path class="fil9" d="M595.52 1311.85c42.44,-64.12 16.38,-113.87 71.49,-124.43 0.33,46.15 5.43,180.77 -4.32,210.99l-27.25 1.81 -0.1 -80.84 -41.33 80.55c-11.49,-21.79 -18.47,-54.9 -39.56,-71.19 1.34,116.87 8.25,104.25 -32.67,111.67l7.11 -213.64c0.31,-2.49 1.43,-3.04 2.46,-4.35 32.33,-24.33 36.71,63.16 64.17,89.43zm28.47 -109.68c-6.65,26.85 -23.72,55.96 -32.7,81.76 2.81,-11.62 -15.92,-41.68 -26.8,-60.27 -5.45,-11.35 -2.65,-7.91 -10.18,-16.86 -58.77,6.91 -51.22,43.43 -51.99,99.94 -0.69,50.86 1.21,100.21 2.94,150.94 16.31,-0.86 16.12,0.13 32.46,-5.75l22.31 -15.35 6.43 -37.67c11.53,21.29 1.83,10.01 16.37,18.65 9.54,-3.81 33,-8.77 31.98,-37.32l4.3 38.44c83.01,-10.44 60.71,-23.07 61.03,-213.43 0.27,-20.97 0.29,-28.67 -21.69,-26.65 -23.37,2.15 -24.61,10.03 -34.46,23.57z"/>
  <path class="fil10" d="M923.95 1129.01c-25.59,64.28 -15.02,145.65 -13.86,215.99 4.33,4.72 26.81,11.2 44.47,-7.67l10.38 -72.45 24.4 -4.53 0.36 82.2 33.96 -1.81c-1.11,-2.48 -2.08,-5.29 -3.26,-7.49 -0.97,-1.81 -2.17,-4.21 -3.13,-5.91 -0.86,-1.51 -4.68,-3.96 -5.83,-5.58l-1.6 -82.97 -59.13 6.49c-4.45,77.52 11.74,76.92 -14.78,86.97 -15.66,-19.8 -8.65,-83.99 -8.42,-109.11 0.84,-94.86 -8.39,-90.27 23.18,-94.47l-0.75 88.51 60.23 -11.92 1.44 -83.61c-29.58,17.38 -18.97,42.05 -21.94,76.11 -19.35,7.68 -3.4,6.49 -26.24,3.52 1.33,-29.14 0.64,-51.78 -8.7,-79.5 -11.22,-3.29 -3.24,-5.19 -18.61,-1.32 -13.28,3.35 -9.35,-0.7 -12.17,8.55z"/>
  <path class="fil10" d="M1245.63 1181.62c39.12,-35.48 8.11,-96.3 64.25,-94.61 -6.85,29.74 -21.99,70.68 -32.92,101.02 -33.94,94.16 13.91,100.36 -36.46,103.2 -14.4,-30.4 7.88,-24.31 -20.39,-106.93 -10.43,-30.47 -21.97,-63.46 -31.66,-92.16 33.29,-3.69 31.13,-2.66 57.18,89.48zm-69.46 -83.86c-6.21,17.71 -3.37,-8.07 -2.66,16.67 0.8,27.96 43.13,87.38 43.13,196.14 30.68,0.77 39.09,-3.43 57.09,-17.12 3.19,-52.23 0.32,-62.8 16.29,-110.72 8.28,-24.83 16.1,-72.25 35.39,-89.33 -7.1,-33.85 5.02,7.23 -2.26,-21.24 -4.21,-16.49 -2.96,-12.6 -10.34,-22.18l4.07 27.99 -40.91 0.7 -27.72 71.48 -26.22 -68.14c-55.39,1.01 -38.23,-2.09 -45.86,15.75z"/>
  <path class="fil10" d="M2519.11 1331.9l-0.69 -208.09c35.07,2.68 26.86,7.29 26.46,75.44 -0.22,36.88 -0.29,73.77 -0.5,110.65 39.08,4.79 61.68,1.76 59.63,40.12l-84.9 -18.12zm-19.72 -201.21l-4.75 217.68c28.19,2.04 35.52,5.47 61.24,12.7 20.44,5.75 36.19,2.42 59.24,1.14l1.11 -47.72 -60.55 -15.41c-1.58,-52.44 5.22,-126.12 -5.07,-175.08l-31.67 -11.31 -19.55 18z"/>
  <path class="fil10" d="M2316.18 1125.26c-11.72,24.53 -48.61,68.18 -15.65,129.51 52.26,97.24 165.92,76.24 192.85,-4.77 19.13,-57.55 -16.68,-90.09 -31.78,-125.99l-12.72 4.38c86.06,111.97 -0.12,231 -99.57,150.55 -27.21,-22.02 -55.63,-85.45 -28.49,-134.37 29.93,-53.95 71.4,-49.32 124.6,-19.49 -1.51,-9.24 5.5,-13.81 -25.18,-25.03 -40.42,-14.78 -79.92,-2.32 -104.06,25.21z"/>
  <path class="fil9" d="M850.42 1234.66c-49.03,43.1 -10.51,36.88 -0.66,57.62 6.06,12.76 -0.18,18.16 -3.41,23.43 -11.47,-1.38 -8.49,0.55 -18.85,-7.69 -8.77,-6.98 -1.37,-1.18 -8.99,-9.29 -8.79,-9.34 -1.61,0.78 -8.26,-9.02 -18.92,-27.88 -1.23,-72.55 17.53,-91.74 16.18,-16.56 35.14,-7.05 60.34,-4.72 5,-5.99 4.51,-15.54 5.97,-20.71 -132.56,-13.18 -136.04,174.44 -25.22,150.75l-18.45 -88.63z"/>
  <path class="fil10" d="M2043.48 1161.35c90.99,-8.85 69.19,4.79 71.49,19.99 -24.49,16.07 -26.61,0.5 -72.6,6.81l-0.74 32.5 7.28 1.52 1.56 -19.53c37.51,2.14 36.88,6.42 71.98,-9.36 0.99,-7.07 3.14,-9.03 2.15,-18.2 -4.47,-41.69 -33.3,-8.91 -72.48,-29.58l-1.4 -24.44c11.42,0.14 28.54,1.82 38.19,1.19 30.95,-2.03 22.17,-5.35 28.15,-16.58l-74.18 0.78 0.6 54.9z"/>
  <path class="fil11" d="M1515.13 1990.72c5.74,-10.99 -8.02,-8.88 18.45,-15.18 31.7,-7.55 59.12,23.11 59.56,23.44 -25.65,11.59 27.33,-9.01 -13.46,4.01l-110.63 74.33c24.14,2.82 83.18,-2.29 89.89,-4.26 5.39,-18.17 6.13,-26.1 14.07,-40.99 23.5,5.71 11.63,-5.13 33.66,12.29 -2.59,14.71 -8.75,31.09 -4.09,54.97 -25.03,8.2 -33.04,1.34 -25.9,36.81 28.04,-14.26 -5.38,-7.64 38.43,-25.34 3.17,-56.57 -4.27,-44.1 62.37,-51.82l8.98 37.78c8.88,-6.67 34.92,-4.73 35.06,-4.77 5.99,-1.95 6.19,-9.26 37.7,-14.51 69.22,-11.52 22.85,12.68 89.11,5.82 -17.15,-11.45 -20.37,-4.04 -38.24,-14.8 -33.54,-20.2 -21.07,-22.37 -21.07,-22.4 -6.31,-15.98 -10.38,-4.81 5.1,-17.68 11.49,-9.55 19.14,-8.3 25.16,-11 26.97,-12.1 11.08,-13.92 42.3,-26.75 17.01,14.39 4.84,4.23 16.45,26.3 16.77,0.27 36.7,0.59 49.89,-4.88l37.89 -21.26c-30.35,4.57 -15.81,3.96 -36.46,9.55l-37.5 5.37c-1.17,-1.78 -3.88,0.75 -5.74,1.4 9.32,-14.92 -8.04,-47.08 -58.33,-11.62 -23.63,16.67 -26.75,-4.41 -33.74,18.7 -1.68,-0.79 -4,-1.26 -5.3,-1.72l-14.36 -5.14c-12.21,-6.53 -19.17,-12.06 -9.4,-43.7 8.04,-3.78 45.59,3.23 45.62,-49.17l-22.56 -9.79 -1.21 0c-7.31,19.28 -16.96,36.76 -33.94,38.78 -14.07,1.68 -30.54,-11.89 -40.99,-22.16 -30.06,88.92 -79.28,33.25 -95.17,21.65 -28.32,7.01 -4.45,-0.03 -22.72,9.68 -39.81,21.17 19.24,-2.3 -13.11,7.67l-65.69 -59.45c-8.92,20.66 -14.37,75.35 -79.57,41.65 14.66,29.74 14.33,19.88 31.39,28.53 17.53,8.89 20.06,14.77 48.1,19.66z"/>
  <path class="fil11" d="M763.8 1843.53c47.16,14.4 70.25,-40.42 51.96,-58.37 -23.2,-22.76 -61.3,19.93 -51.96,58.37z"/>
  <path class="fil12" d="M1965.81 1990.83l-37.89 21.26c-13.19,5.47 -33.12,5.15 -49.89,4.88 -11.61,-22.07 0.56,-11.91 -16.45,-26.3 -31.22,12.83 -15.33,14.65 -42.3,26.75 -6.02,2.7 -13.67,1.45 -25.16,11 -15.48,12.87 -11.41,1.7 -5.1,17.68 0,0.03 -12.47,2.2 21.07,22.4 17.87,10.76 21.09,3.35 38.24,14.8 -66.26,6.86 -19.89,-17.34 -89.11,-5.82 -31.51,5.25 -31.71,12.56 -37.7,14.51 -0.14,0.04 -26.18,-1.9 -35.06,4.77l-8.98 -37.78c-66.64,7.72 -59.2,-4.75 -62.37,51.82 -43.81,17.7 -10.39,11.08 -38.43,25.34 -7.14,-35.47 0.87,-28.61 25.9,-36.81 -4.66,-23.88 1.5,-40.26 4.09,-54.97 -22.03,-17.42 -10.16,-6.58 -33.66,-12.29 -7.94,14.89 -8.68,22.82 -14.07,40.99 -6.71,1.97 -65.75,7.08 -89.89,4.26l110.63 -74.33c40.79,-13.02 -12.19,7.58 13.46,-4.01 -0.44,-0.33 -27.86,-30.99 -59.56,-23.44 -26.47,6.3 -12.71,4.19 -18.45,15.18l32.75 0.95c-9.02,9.87 -15.25,13.9 -28.29,29.56 -12.97,15.57 -15.21,22.34 -38.92,13.58l-47.24 -18.91c-1.24,-0.64 -2.74,-1.48 -3.98,-2.12 -4.18,-2.15 -8.03,-4 -12.13,-6.09 -20.71,-10.52 -32.56,-20.94 -52.46,-31.21 -26.41,-13.64 -108.68,5.8 -131.21,23.02 36.59,36.25 94.72,61.72 148.45,86.19l84.73 27.54c29.47,7.87 65.27,11.94 91.12,22.79l-33.47 4.67c24.54,19.04 138.52,21.14 169.28,9.05 -37.91,0.32 -68.87,11.38 -92.63,-9.62 48.39,-9.25 98.35,-4.42 149.06,-14.51 41.02,-8.16 83.46,-22.68 118.5,-30.59 12.94,-46.16 -26.88,-28.64 -56.75,-45.88 21.9,-49.29 79.04,-23.16 83.82,-13.43l1.65 12.07c20.09,-0.06 15.46,3.22 28.02,-8.76l14.3 18.65c52.06,-21.4 101.12,-61.54 138.29,-92.61l-33.08 -9.47c-28.57,-0.01 -37.58,34.39 -79.13,35.24z"/>
  <path class="fil12" d="M1788.04 1904.71l22.56 9.79c-0.03,52.4 -37.58,45.39 -45.62,49.17 -9.77,31.64 -2.81,37.17 9.4,43.7l14.36 5.14c1.3,0.46 3.62,0.93 5.3,1.72 6.99,-23.11 10.11,-2.03 33.74,-18.7 50.29,-35.46 67.65,-3.3 58.33,11.62 1.86,-0.65 4.57,-3.18 5.74,-1.4l37.5 -5.37c20.65,-5.59 6.11,-4.98 36.46,-9.55 -9.57,-16.32 -20.84,-10.42 -44.69,-10.78 -37.95,-0.58 -16.16,-2.52 -39.85,-12.97 -20.25,-8.94 -24.85,-5.12 -43.63,1.93 -92.84,34.85 11.19,-18.11 -11.53,-65.54l-29.47 -10.47 -8.6 11.71z"/>
  <path class="fil12" d="M1134.79 2060.02c-4.63,-17.14 4.07,-12.63 28.63,-16.57 10.43,-1.68 26.65,-6.01 40.99,-4.98 29.22,2.08 50.58,19.83 85.29,23.06l-20.73 -19.33c-76.92,-55.32 -63.93,-34.07 -161.56,-9.65l27.38 27.47z"/>
  <path class="fil12" d="M2109.03 1951.33l44.34 -6.1 3.62 46.66c2.1,1.44 9.98,6.63 10.21,6.86 12.11,11.64 3.15,-1.5 11.54,15.34 26.83,-20.11 24.1,-18.51 -5.86,-38.48 -0.19,-9.56 -0.43,-30.59 -0.75,-37.23 -0.89,-18.69 -1.26,-13.09 -5.98,-21.4 -24.18,10.09 -44.74,14.33 -57.12,34.35z"/>
  <path class="fil13" d="M623.83 1863.55c23.03,-5.04 93.88,-39.02 108.84,-55.55 16.87,-18.65 18.02,-32.8 36.76,-46.61 16.23,-11.94 32.1,-19.1 60.04,-17 -7.47,-7.02 -0.75,-3.55 -14.16,-6.78 -38.73,-9.34 30.59,0.14 -10.77,-1.4 -20.37,-0.76 -49.69,14.78 -62.23,16.7 10.53,-7.33 8.05,-8.37 21.69,-16.72l-24.13 -5.16c21.89,-21.28 29.91,-12.3 48.25,-28.17 -6,1.43 -21.53,1.86 -30.9,3.94 -18.15,4.02 -19.16,8.11 -36.05,11.9 6.96,-21.86 5.52,-15.72 21.32,-25.97l25.61 -16.67c-23.62,5.19 -37.81,13.13 -56.65,18.89l22.36 -31.41c-67.43,9.24 -106.82,144.51 -109.98,200.01z"/>
  <path class="fil13" d="M2957.45 1171.95l1.94 6.41c51,-0.48 49.44,8.63 40.33,56.57 -2.54,34.4 3.1,286.45 -7.68,289.43 6.77,6.55 -10.61,9.15 12.18,5.27 9.49,-76.79 -11.04,-268.88 11.82,-297.89l5.22 250.45 10.83 -235.16c42.41,-26.77 78.92,-66.68 86.09,-69.63 -15.75,0.61 -3.44,2.03 -9.63,-3.61l-4.8 -9.91c-12.54,5.82 -75.48,31.44 -90,23.43 17.12,-15.1 66.64,-31.93 93.54,-39.09l-106.03 -4.67c-60.6,5.95 -69.71,-5.91 -120.65,-10.71 18.34,13.55 31.59,13.42 53.91,20.9 15.82,5.3 31.96,8.55 22.93,18.21z"/>
  <path class="fil13" d="M1476.59 1705.68c5.96,-20 -0.8,-29.22 -10.29,-50.94 -6.65,-15.22 -11.68,-27.36 -17.89,-42.53 -11.72,-28.61 -23.57,-60.16 -26.65,-92.53 -32.34,1.68 -67.45,0.75 -71.29,31.92 10.74,12.33 28.2,14.28 47.53,21.81 12.78,114.37 -18.74,77.16 -47.97,103.6 14.27,9.77 41.69,16.19 59.68,22.94 28.52,10.72 33.75,14.73 66.88,5.73z"/>
  <path class="fil13" d="M1783.86 1598.91c-20.52,4.45 -50.8,15.03 -60.95,28.89 -11.72,16 -11.11,55.57 -9.55,78.94l94.75 0.02 -4.65 -249.75 -19.6 141.9z"/>
  <path class="fil13" d="M451.91 1524.3c-14.42,-7.99 -14.1,5.68 -12.78,-62.27l-0.37 -203.31 -5.41 -47.93 33.9 -18.72c18.22,-5.68 31.34,-18.33 42.93,-31.07 -49.47,8.22 -129.04,14.15 -173.69,4.69 25.11,12.37 74.25,29.3 90.23,39.3 -9.29,6.98 9.12,7.72 -18.92,2.93l-63.94 -21.76 17.78 44.01c17.84,17.24 31.75,22.03 46.07,34.72 2.41,47.57 -0.24,113.67 12.97,148.64l2.34 -172.54c21.95,32.58 9.75,233.77 9.77,290.19 36.44,3.44 7.36,2.68 19.12,-6.88z"/>
  <path class="fil14 str1" d="M954.56 1337.33l24.49 -2.12c0.54,0.47 1.44,0.52 1.61,1.29l4.27 2.61c0.63,0.25 2.33,1.06 3.13,1.32 0.97,0.3 2.75,1 3.9,1.26 19.98,4.64 10.54,4.6 31.7,-0.95l-33.96 1.81 -0.36 -82.2 -24.4 4.53 -10.38 72.45z"/>
  <path class="fil15" d="M1373.43 1433.06l34.28 -10.14c5.99,8.06 9.06,-12.58 7.17,27.12 13.35,-2.25 2.55,-4.5 13.66,0.78 3.47,66.92 10.99,87.09 29.14,140.95l71.79 165.95c10.19,19.65 20.75,35.8 30.25,54.34 2.58,5.02 10.3,19.85 14.33,27.16l14.08 27.01c8.63,15.7 23.95,36.56 29.63,49.66 -48.42,35.38 -72.37,-41.87 -96.58,-43.98 -39.01,8.81 -27.1,17.76 -41.08,52.62l-50.46 -6.98c-6.74,20.55 3.05,4.2 -16.2,18.04 8.5,21.15 -21.26,-3.27 6.5,27.12 21.69,23.76 76.99,32.29 87.49,58.74 -18.72,13.8 -3.07,10.27 -26.76,13.36 23.71,8.76 25.95,1.99 38.92,-13.58 13.04,-15.66 19.27,-19.69 28.29,-29.56l-32.75 -0.95c-28.04,-4.89 -30.57,-10.77 -48.1,-19.66 -17.06,-8.65 -16.73,1.21 -31.39,-28.53 65.2,33.7 70.65,-20.99 79.57,-41.65l65.69 59.45c32.35,-9.97 -26.7,13.5 13.11,-7.67 18.27,-9.71 -5.6,-2.67 22.72,-9.68 15.89,11.6 65.11,67.27 95.17,-21.65 10.45,10.27 26.92,23.84 40.99,22.16 16.98,-2.02 26.63,-19.5 33.94,-38.78 -16.43,-11.35 -29.97,9.06 -32.74,11.45 -17.57,-2.32 -24.55,-9 -37.35,-8.57 -16.47,0.56 -12.69,9.5 -21.62,8.3 -14.25,-56.71 -0.09,-209.1 6.49,-275.8 -36.73,8.91 -29.3,31.54 -74.91,3.11l-41.81 -19.47 64.22 248.4c14.22,53.08 17.16,49.68 16.81,72.36 -0.02,0.81 -0.58,4.81 -0.62,4.03 -0.03,-0.78 -0.35,2.72 -0.79,4.02 -18.02,-16.86 -29.35,-74.82 -37.18,-101.21l-20.99 -80.21c-13.53,-54.13 -35.5,-141.25 -46.88,-195.5 52.4,51.99 26.76,29.5 68.42,45.94l-13.17 -48.91c-27.21,-99.83 -20.28,-128.75 -35.97,-217.51l-13.66 13.65c-2.31,-12.12 -1.57,-16.25 -8.08,-26.43l-34.21 -53.71c-13.4,14.97 -10.4,35.57 -9.67,57.14 -14.56,-8.77 -11.38,-9.67 -28.24,-16.42 1.29,21.06 4.31,21.93 -3.97,35.71 -6.79,-23.84 -9.89,-30.3 -30.58,-35.1 5.53,50.59 0.89,35.86 21.73,79.5 9.17,19.21 33.86,59.15 36.09,75.69 -15.87,-2.95 -68.2,-46.69 -80.51,-61.19 -1.13,-1.32 -4.38,-5.52 -5.34,-6.69 -18.29,-22.09 -10.2,-4.81 -56.14,-11.49 -26.72,-3.88 -72.47,-21.77 -119.66,-27.36l20.94 32.56c34.84,28.19 76.93,18.21 104.44,11.46 5.99,3.86 10.82,-9.99 1.55,10.6z"/>
  <path class="fil15" d="M1757.12 1593.07c17.93,-11.48 12.6,-4.23 16.28,-35.01 7.27,-60.87 26.06,-130.81 30.04,-186.25 -16.7,10.77 -6.39,1.07 -19.49,18.94 -15.48,-19.6 0.09,-9.9 -26.48,-22.15l-19.96 38.27c-21.91,-32.44 -7.9,-23.32 -20.93,-44.42 -19.44,12.76 -9.15,-17.54 -22.93,49.2 -21.77,-13.15 -24.84,-24.11 -40.1,-40.08l-12.93 -11.36c-5.38,7.23 -14.63,22.44 -20.47,27.16 -8.27,6.71 -19.46,2.95 -19.5,2.83 -0.37,-1.15 -2.4,-0.35 -3.43,0.16 10.78,46.08 10.77,80.63 19.15,124.8 8.81,46.43 25.16,84.3 32.89,128.25l107.86 -50.34z"/>
  <path class="fil15" d="M1408.88 1384.38c27.24,42.23 22.8,37.98 51.37,45.66 -8.5,-35.98 -19.24,-74.62 -51.37,-45.66z"/>
  <path class="fil16" d="M2109.03 1951.33c-67.42,75.87 -253.49,196.49 -415.27,198.41 -30.76,12.09 -144.74,9.99 -169.28,-9.05 -89.6,-3.46 -166.26,-56.1 -234.78,-79.16 -34.71,-3.23 -56.07,-20.98 -85.29,-23.06 -14.34,-1.03 -30.56,3.3 -40.99,4.98 -24.56,3.94 -33.26,-0.57 -28.63,16.57 212.81,197.04 550.16,242.47 834.39,107.03 48.19,-22.96 128.42,-74.47 164.45,-110.47 16.95,-16.93 26.93,-31.4 45.11,-42.49 -8.39,-16.84 0.57,-3.7 -11.54,-15.34 -0.23,-0.23 -8.11,-5.42 -10.21,-6.86l-3.62 -46.66 -44.34 6.1z"/>
  <path class="fil17" d="M438.76 1258.72l0.37 203.31c-1.32,67.95 -1.64,54.28 12.78,62.27 89.29,-123.34 211.93,-10.83 259.67,-4.92l3.52 -75.28c12.49,-6.5 59.71,-26.86 73.26,-28.93 29.6,-4.51 45.32,16.38 84.14,18.99 12.4,-21.56 19.3,-29.98 39.83,-48.96l59.43 16.86c24.35,-31.23 29.98,-32.02 83.62,-47.37 129.31,-37 165.08,16.62 328.44,44.2 1.03,-1.48 1.69,-3.71 2.25,-4.92 0.54,-1.2 1.52,-3.4 2.19,-4.84 12.86,-27.41 7.23,-18.44 35.3,-34.61 -2.3,-12.32 -83.52,-195.09 -98.15,-261.12 -19.29,17.08 -27.11,64.5 -35.39,89.33 -15.97,47.92 -13.1,58.49 -16.29,110.72 -18,13.69 -26.41,17.89 -57.09,17.12l-8.6 -30.83c-26.88,39.47 -19.16,2.61 -71.57,31.14l-8.35 4.31c-36.3,21.02 -1.22,-10.4 -13.07,9.44 -83.99,-0.27 -19.23,-18.52 -58.67,-25.03 8.95,-10.1 -0.48,-2.23 -3.84,6.42 -3.91,10.09 -5.41,20.53 -9.31,29.7l-19.57 5.02c-21.16,5.55 -11.72,5.59 -31.7,0.95 -1.15,-0.26 -2.93,-0.96 -3.9,-1.26 -0.8,-0.26 -2.5,-1.07 -3.13,-1.32l-4.27 -2.61c-0.17,-0.77 -1.07,-0.82 -1.61,-1.29l-24.49 2.12c-17.66,18.87 -40.14,12.39 -44.47,7.67 -15.87,16.83 1.2,6.77 -22.85,11.82l-20.77 7.89c-6.72,6.9 4.46,9.55 -29.38,15.97l-187.54 44.63c-52.96,4.26 -64.82,11.91 -89.52,11.27l-22.31 15.35c-16.34,5.88 -16.15,4.89 -32.46,5.75 -1.73,-50.73 -3.63,-100.08 -2.94,-150.94 0.77,-56.51 -6.78,-93.03 51.99,-99.94 7.53,8.95 4.73,5.51 10.18,16.86 23.75,-11.98 33.61,-12.33 59.5,-21.49 9.85,-13.54 11.09,-21.42 34.46,-23.57 21.98,-2.02 21.96,5.68 21.69,26.65 10.38,6.45 17.6,-1.4 4.99,5.95 0,-54.51 -1.87,-13.98 12.08,-27.55 8.15,-7.63 4.63,-12.19 18.9,-18.85 7.46,-3.49 15.61,-3.77 27.63,-3.54l3.36 90.11c15.59,-51.45 80.66,-137.55 106.88,-110.82l29.28 -0.35c-36.48,-4.76 -15.69,0.15 -30.91,-15.02 28.01,-2.11 17.27,-1.4 40.95,2.66 20.71,3.56 0.5,11.47 30.65,1.17 2.82,-9.25 -1.11,-5.2 12.17,-8.55 15.37,-3.87 7.39,-1.97 18.61,1.32 23.19,9.81 23.34,8.58 43.97,-7.11 30.85,-23.47 150.81,-29.62 182.31,-26.56l-4.84 9.65c7.63,-17.84 -9.53,-14.74 45.86,-15.75l26.22 68.14 27.72 -71.48 40.91 -0.7 -4.07 -27.99c-29.78,-25.05 -379.89,29.72 -439.03,39.55 -99.62,16.55 -322.22,61.99 -392.55,102.02l-13.98 0.52 -33.9 18.72 5.41 47.93zm726.14 -157.63c-1.1,36.81 -3.46,23.14 -44.55,30.99 -0.97,30.32 -0.75,60.71 -1.01,91.06 -0.38,44.3 7.92,76.38 -10.23,77.48 -23.02,1.4 -14.19,-27.9 -13.74,-77.48 0.26,-28.62 2.79,-58.68 -1.02,-87.45l-40.36 3.92 -0.37 -27.72 111.28 -10.8zm-484.76 104.16c-0.32,190.36 21.98,202.99 -61.03,213.43l-4.3 -38.44c1.02,28.55 -22.44,33.51 -31.98,37.32 -14.54,-8.64 -4.84,2.64 -16.37,-18.65l-6.43 37.67c24.7,0.64 36.56,-7.01 89.52,-11.27l187.54 -44.63c33.84,-6.42 22.66,-9.07 29.38,-15.97 -100.44,13.97 -97.35,-26.37 -120.81,-52.31l-2.74 65.86 -44.32 20.93c-9.15,-43.73 -3.93,-166.09 -1.39,-215.54 -13.95,13.57 -12.08,-26.96 -12.08,27.55 12.61,-7.35 5.39,0.5 -4.99,-5.95zm-115.65 18.41c10.88,18.59 29.61,48.65 26.8,60.27 8.98,-25.8 26.05,-54.91 32.7,-81.76 -25.89,9.16 -35.75,9.51 -59.5,21.49zm318.77 -83.46c12.99,12.52 2.64,-1.4 8.74,17.03 0.33,1.02 1.18,11.82 2.09,15.31 -1.46,5.17 -0.97,14.72 -5.97,20.71 -25.2,-2.33 -44.16,-11.84 -60.34,4.72 -18.76,19.19 -36.45,63.86 -17.53,91.74 6.65,9.8 -0.53,-0.32 8.26,9.02 7.62,8.11 0.22,2.31 8.99,9.29 10.36,8.24 7.38,6.31 18.85,7.69 3.23,-5.27 9.47,-10.67 3.41,-23.43 -9.85,-20.74 -48.37,-14.52 0.66,-57.62l41.08 -3.84c-0.04,33.82 2.89,95.33 -5.57,116.58l1.31 9.42c24.05,-5.05 6.98,5.01 22.85,-11.82 -1.16,-70.34 -11.73,-151.71 13.86,-215.99 -30.15,10.3 -9.94,2.39 -30.65,-1.17 -23.68,-4.06 -12.94,-4.77 -40.95,-2.66 15.22,15.17 -5.57,10.26 30.91,15.02zm71.47 -18.42c9.34,27.72 10.03,50.36 8.7,79.5 22.84,2.97 6.89,4.16 26.24,-3.52 2.97,-34.06 -7.64,-58.73 21.94,-76.11 25.87,-15.51 21.04,-0.07 20.64,-0.04l-3.03 197.76 -17.78 2.39c1.15,1.62 4.97,4.07 5.83,5.58 0.96,1.7 2.16,4.1 3.13,5.91 1.18,2.2 2.15,5.01 3.26,7.49l19.57 -5.02c3.9,-9.17 5.4,-19.61 9.31,-29.7 3.36,-8.65 12.79,-16.52 3.84,-6.42 39.44,6.51 -25.32,24.76 58.67,25.03 11.85,-19.84 -23.23,11.58 13.07,-9.44l8.35 -4.31c52.41,-28.53 44.69,8.33 71.57,-31.14l8.6 30.83c0,-108.76 -42.33,-168.18 -43.13,-196.14 -0.71,-24.74 -3.55,1.04 2.66,-16.67l4.84 -9.65c-31.5,-3.06 -151.46,3.09 -182.31,26.56 -20.63,15.69 -20.78,16.92 -43.97,7.11z"/>
  <path class="fil17" d="M2128.47 1085.81l3.54 -0.06c6.5,-11.47 -10.66,-10.63 21.84,-12.85 6.84,-0.47 14.73,2.71 22.64,3.55l10.72 27.61 26.72 67.26c0.71,-1.35 1.73,-3.14 2.15,-4.03l26.25 -66.72c8.18,-5.57 5.14,-4.32 11.43,-10.42 8.14,-7.89 -2.99,0.93 8.14,-8.92l40.84 7.73 -6.3 35.73c-12.61,28.05 2.42,-1.14 -11.71,13.76l-43.39 126.49 50.47 62.1c6.19,29.82 20.6,37.5 19.81,84.95 37.4,-5.36 59.55,-30.06 92.51,-31.17 9.69,15.96 22.72,48.77 29.3,70.4 40.87,-3.69 65.65,-35.75 102.99,-37.03 17.74,22.06 21.99,38.47 41.8,54.59 66.65,-22.33 52.12,-47.78 136.92,-13.38 1.53,8.57 1.28,15.2 4.12,24.91 0.45,1.55 1.09,3.34 1.56,4.71l6.7 13.12c76.11,-29.06 91.81,-32.03 155.27,18.92 29.94,-5.49 19.98,-14.79 52.08,-6.06 23.23,6.32 33.45,12.85 57.17,13.36 10.78,-2.98 5.14,-255.03 7.68,-289.43 9.11,-47.94 10.67,-57.05 -40.33,-56.57l-1.94 -6.41c-28.33,-2.18 -82.32,-21.54 -113.18,-29.86 -190.93,-51.48 -704.84,-123.63 -857.28,-105.28 -20.65,28.31 -48.17,92.87 -63.13,129.56 -11.34,27.81 -9.02,46.71 -36.93,57.9 -38.47,15.43 -32.54,7.06 -41.37,53.91 34.53,-7.61 117.39,-41.37 145.44,-56.21l20.87 -4.66 -2.37 -79.62 0.37 -57.99 100.36 4.34 6.83 21.63c-5.98,11.23 2.8,14.55 -28.15,16.58 -9.65,0.63 -26.77,-1.05 -38.19,-1.19l1.4 24.44c39.18,20.67 68.01,-12.11 72.48,29.58 0.99,9.17 -1.16,11.13 -2.15,18.2 -35.1,15.78 -34.47,11.5 -71.98,9.36l-1.56 19.53 117.21 6.91c-6.98,-31.08 -16.47,-51.11 -24.66,-76.89 -22.38,-70.4 -25.58,-34.29 -12.99,-66.38zm514.31 77.64l30.99 95.68c11.59,-15.72 28.6,-70.47 36.6,-89.71 11.85,-5.36 6.92,-7.55 27.72,-3.77 15.14,2.76 14.77,5.1 19.32,11.88 44.98,-7.61 43.7,-4.84 59.69,25.54 13.66,-17.28 -2.04,-5.84 17.92,-17.75 31.69,8.43 33.15,10.7 46.12,40.11 3.82,8.65 7.97,18.78 12.82,29.62 10.56,23.58 7.36,4.7 7.16,19.34 -0.49,-39.03 -1.17,-34.63 17.5,-61.47 58.9,-2.12 41.19,43.14 40.55,99.8 -0.38,33.91 2.33,102.66 -3.38,130.48 -4.83,3.16 5.45,4.98 -19.94,8.48 -32.32,4.46 -48.7,-45.12 -63.58,-85.07l-4.38 48.35c-6.89,4.15 12.73,10.44 -22.78,5.64 -19.69,0.84 -12.81,-0.56 -27.91,-7.19 -10.47,-4.58 -2.25,-3.39 -13.87,-5.82 -14.64,-3.06 -10.63,-1.84 -26.39,-0.44 -27.42,-5.7 -22.28,-8.13 -22.17,-40.15l4.17 -150.49c-3.73,-19.12 10.51,-21.38 -14.78,-17.52l-41.02 120.33c7.81,13.13 -2.47,28.97 -9.01,49.55 -29.91,6.75 -43.34,16.98 -54.83,-15.1l-59.52 -192.84c6.68,-11.8 0.62,-0.87 8.04,-11.56 3.35,-4.82 5.38,-8.04 8.32,-12.17 30.04,4.27 35.84,1.35 46.64,26.25zm-326.6 -38.19c24.14,-27.53 63.64,-39.99 104.06,-25.21 30.68,11.22 23.67,15.79 25.18,25.03l3.46 3.31 12.72 -4.38c15.1,35.9 50.91,68.44 31.78,125.99 -26.93,81.01 -140.59,102.01 -192.85,4.77 -32.96,-61.33 3.93,-104.98 15.65,-129.51zm183.21 5.43l19.55 -18 31.67 11.31c10.29,48.96 3.49,122.64 5.07,175.08l60.55 15.41 -1.11 47.72c-23.05,1.28 -38.8,4.61 -59.24,-1.14 -25.72,-7.23 -33.05,-10.66 -61.24,-12.7l4.75 -217.68zm-67.13 131.1c31.72,-72.08 -40.61,-140.05 -74.14,-109.76 -32.94,29.74 -10.01,134.37 74.14,109.76z"/>
  <path class="fil17" d="M623.83 1863.55c3.16,-55.5 42.55,-190.77 109.98,-200.01l-22.36 31.41c18.84,-5.76 33.03,-13.7 56.65,-18.89l-25.61 16.67c-15.8,10.25 -14.36,4.11 -21.32,25.97 16.89,-3.79 17.9,-7.88 36.05,-11.9 9.37,-2.08 24.9,-2.51 30.9,-3.94 -18.34,15.87 -26.36,6.89 -48.25,28.17l24.13 5.16c-13.64,8.35 -11.16,9.39 -21.69,16.72 12.54,-1.92 41.86,-17.46 62.23,-16.7 41.36,1.54 -27.96,-7.94 10.77,1.4 13.41,3.23 6.69,-0.24 14.16,6.78 28.35,12.11 13.38,14.78 47.68,-0.19 19.19,-8.38 33.43,-12.92 49.27,-25.39 -19.26,-133.73 -185.83,-154.96 -266.17,-18.71 -26.91,45.64 -58.15,108.63 -52.7,173.71l16.28 -10.26z"/>
  <path class="fil18" d="M750.8 1884.4c-16.94,-8.6 -12.16,-13.18 -35.17,-4.61l-102.23 48.04c10.36,132.77 240.01,123.85 308.38,-86.41 7.83,-24.06 15.29,-47.61 1.78,-65.05 -17.4,77.8 4.86,55.28 -47.55,133.18 -36.58,54.38 -85.85,52.45 -133.27,54.82l28.66 -11.88c19.26,-6.73 10.01,4.4 16.26,-8.34 10.01,-20.43 11.58,5.21 -6.21,-9.12l-17.42 -11.75c-0.74,-2.29 -3.12,-1.84 -4.41,-1.92l36.87 -8.99c-1.42,-7.43 -28.13,16.91 0.92,-16.25l7.63 -6.72c-37.26,7.63 -39.25,7.49 -54.24,-5z"/>
  <path class="fil19" d="M398.15 1772.56c7.1,-15.6 7.01,-13.08 28.19,-20.42 15.16,-5.25 32.27,-7.53 51.8,-5.54 28.15,65.74 22.38,168.24 -27.44,209.92 -72.84,60.94 -52.04,-32.2 -52.55,-183.96zm1881.64 219.29c19.84,3.24 5.81,4.66 9.96,-10.27 -20.67,-12.2 -15.73,3.02 -16.67,-27.65l53.28 0.8c-1.14,-1.05 -2.85,-2.23 -3.76,-2.75l-12.55 -6.67c-0.35,-0.13 -12.84,-3.46 -14.41,-3.85l-108.28 -22.66 2.38 49.46 90.05 23.59zm0 0c86.34,9.56 311.28,101.7 387.89,132.82 61.14,24.83 123.32,53.94 179.55,83.65 33.69,17.79 149.16,87.37 168.13,92.2l27.87 3.59 26.2 -27.14c-2.81,-3.69 -7.26,-7.97 -13.54,-13.87 -34.75,-32.63 -86.37,-58.74 -130,-79.72l-164.09 -85.35c-37.52,-24.62 -379.22,-146.33 -435.44,-143.3l-53.28 -0.8c0.94,30.67 -4,15.45 16.67,27.65 -4.15,14.93 9.88,13.51 -9.96,10.27zm735.57 308.67c10.89,15.9 4.52,7.67 19.66,18.67 9.58,6.97 12.86,8.4 21.33,14.38 12.85,9.06 26.85,18.87 38.28,27.4 13.24,9.88 60.6,49.59 72.53,54.08 12.85,-148.68 4.3,-83.6 109.07,-187.58l-95.08 60.42 -106.8 -54.23c30.48,25.62 73.36,41.44 73.45,60.7 -16.27,3.79 -141.58,-78.71 -183.4,-101.68 -46.53,-25.56 -149.77,-81.71 -202.6,-94.65l164.09 85.35c43.63,20.98 95.25,47.09 130,79.72 6.28,5.9 10.73,10.18 13.54,13.87l-26.2 27.14 -27.87 -3.59zm-45.06 -300.2c17.51,39.41 56.99,93.46 63.97,131.5l44.2 -9.32c0.27,-21.02 -49.13,-114.6 -67.13,-128.55 -2.5,-28.04 -14.71,-20.99 -13.56,-56.23 86.7,17.64 68.88,-124.15 46.83,-179 -1.4,-1.44 -3.05,-3.27 -4.04,-4.48 -0.92,-1.13 -2.67,-2.89 -3.72,-4.25 -1.12,-1.43 -4.64,-6.53 -5.72,-8.04 -5.79,-8.11 -0.51,-4.69 -9.09,-12.88 -10.76,-10.26 -16.68,-7.74 -30.05,-23.37l-112.53 -35.74 7.12 255.31c-2.69,38.02 0.79,78.2 1.8,116.5 1.26,48.41 8.38,46.38 57.26,56.49l-5.62 -111.08c2.11,-35.38 4.05,-26.63 11.77,-31.02 1.92,20.71 8.04,23.41 18.51,44.16zm-1911.4 -339.48c-9.87,5.17 -4.31,-2.26 -14.35,8.53 -6.82,-95.67 3.94,-93.42 9.18,-140.81 -5.72,-5.76 -90.53,-51.32 -115.02,-33.67 19.28,12.53 49.37,38.68 79.96,29.58 -5.77,23.03 -17.38,21.19 -43.1,33.1l0.23 372.07 67.66 -31.67 0.14 -126.47c36.73,18.52 81.64,66.72 113.97,90.42l56.63 -37.03c-29.11,-29.54 -87.71,-98.73 -128.95,-116.94 6.74,-25.15 109.32,-159.76 130.28,-186.21 -10.71,-11.87 -23.31,-25.69 -40.73,-33.35 -16.52,10.52 -46.32,65.61 -60.8,85.83 -18.05,25.2 -47.99,59.06 -55.1,86.62zm314.53 -227.78l-91.08 31 -25.38 7.76 -1.36 370.77c59.28,-18.84 89.63,-39.73 160.8,-47.82l-0.39 -79.33 -81.16 18.87 1.09 -78.76 47.29 -8.89 1.01 -59.81 -48.85 9.23 0.17 -76.08 77.66 -16.76 1.65 -53.2c1.89,-39.7 -1.18,-19.06 -7.17,-27.12l-34.28 10.14zm526.29 -16.13c66.22,6.68 90.23,16.03 95.27,86.65 5.08,71.36 -22.23,95.67 -91.39,85.06l-3.88 -171.71zm98.24 286.97l-1.68 -21.95c150.29,-14.76 121.01,-248.62 47.57,-324.47 -20.98,-21.68 -73.33,-41.14 -115.44,-37.15 -7.34,-4.66 4.68,-0.89 -13.96,-5.5l-41.09 -3.4c-17.95,-0.86 -34.14,-2.59 -51.75,-2.71 -4.9,49.92 -2.93,556.75 4.5,594.75l90.34 15.13 -5.56 -203.82c23.53,33.28 49.09,76.15 72.79,114.5 14.38,23.27 57.7,101.26 74.98,115.92 22.53,-4.22 56.29,-13.5 69.73,-29.31 -15.64,-32.55 -42.68,-74.13 -63,-107.87 -12.56,-20.86 -52.11,-90.64 -67.43,-104.12zm203.98 -188.94l-57.89 231.97c-13.05,15.36 -14.16,30.19 -19.8,49.44 -5.77,19.72 -11.03,31.62 -12.23,53.05l60.1 14.32c11.43,-7.82 13.06,-19.24 17.9,-24.96 12.11,3.4 56.6,11.75 61.4,20.96 0.52,0.99 1.64,3.11 2.28,4.32 6.74,12.86 5.55,17.2 18.11,24.06 4.25,2.32 8.22,2.91 13.42,4.43 17.37,5.04 36.12,10.47 54.09,12.32 -6.08,-28.89 -18.28,-57.81 -27.05,-87.27 -3.86,-12.96 -8.77,-29.26 -13.52,-44.8 -2.07,-6.77 -5.82,-18.85 -7.55,-22.58 -11.96,-25.92 -3.38,-8.14 -10.97,-17.91l-55.38 -180.74c-12.25,-17.52 -11.03,-29.73 -16.3,-43.78 7.27,9.56 5.85,0.48 -6.61,7.17zm1.78 244.39l5.78 -26.86 16.08 -1.58 12.75 74.88 -38.95 -10.94 4.34 -35.5zm408.53 -94.06c20.94,-39.96 47.1,11.61 55.69,28.44l47.81 -11.27c-4.65,-28.49 -17.94,-61.99 -33.99,-73.27 -11.83,-8.31 -58.89,-22.73 -79.38,-21.49 -68.34,4.12 -41.72,94.21 -45.37,150.07 -1.82,95.52 -9.19,215.47 63.56,249.43 119.95,55.99 96.82,-59.61 95.44,-113.14 -0.29,-11.52 0.22,-25.33 -0.54,-36.33 -0.42,-6.1 -0.75,-10.14 -2.06,-16.02 -3.17,-14.27 -0.16,-5.69 -5.24,-12.24l0 0c-11.36,-15.53 -31.13,-16.12 -56.9,-23.91l3.89 70.61 27.76 17.92c-1.77,25.52 -8.7,37.21 -18.95,49.59 -60.49,5.96 -48.6,-49.41 -50.12,-103.45 -1.23,-43.42 -7.18,-115.39 -1.6,-154.94zm195.28 147.92c-21.53,-9.08 -15.18,-0.44 -17.37,-33.65 -1.05,-15.91 -0.06,-36.68 -0.35,-53.89l34.54 5.93 20.93 -0.84c-1.1,-18.36 -0.52,-30.23 -0.27,-47.9 0.15,-10.36 0.71,-14.55 -1.62,-24.07 -6.92,-28.26 -18.06,-16.16 -55.1,-25.16 -17.2,-4.18 -31.23,-10.21 -50.18,-14.64l13.66 410.96 103.04 34.89 -1.33 -85.2c-69.43,-26.98 -53.99,-4.56 -58.71,-99.6 21.19,6.08 11.77,5.94 33.9,8.43l-1.78 -67.82c-13.23,-11.26 -1.99,-2.58 -19.36,-7.44zm332.8 132.57c17.14,46.03 109.03,113.82 82.11,183.72 -48.05,8.07 -65.23,-43.3 -83.71,-81.75l-49.48 -1.04c20.01,126.21 185.64,227.34 196.78,108.46 8.59,-91.69 -65.33,-185.97 -123.11,-256.71 -1.11,-1.37 -5.32,-5.94 -6.21,-6.92l-7.08 -6.72c-1.61,-11.11 -3.8,-28.03 1.9,-44.24 38.8,-13.7 54.06,12.73 64.34,35.22 9.29,-3.44 18.19,-6.15 26.46,-12.76 18.92,-15.14 5.27,3.2 13.81,-18.81 -9.62,-21.53 -100.39,-117.71 -148.41,-61.62 -35.35,41.29 3.27,143.24 32.6,163.17zm-203.79 -72.53l-5.42 -128.69c41.45,8.02 63.39,23.19 68.93,65.01 6.75,50.91 -13.84,83.1 -63.51,63.68zm-420.52 -286.12l0.35 -26.93c-11.52,-4.91 -8.11,-1.79 -22.28,-5.15 -1.87,-0.44 -3.77,-0.64 -5.5,-1.1l-15.71 -7.01 -0.09 172.6c-35.29,-18.74 -90.5,-139.65 -122.16,-181.4l10.32 369.01c11.76,7.5 29.75,12.42 48.49,14.11l-5.65 -175.06c43.09,18.26 87.4,149.27 123.29,187.16l-11.06 -346.23zm-2171.29 73.08c-9.72,7.63 -6.76,1.69 -20.03,8.19 -8.3,4.07 -10.66,6.9 -18.45,11.79l0.16 55.23 -0.56 698.74 94.92 -39.75 0.14 -300.09 12.73 -9.8c11.41,-2.11 23.65,-5.75 35.09,-9.69 5.22,-1.8 13.73,-5.15 18.42,-7.71 13.71,-7.48 4.7,-1.62 12.7,-9.2 32.95,2.86 63.74,-30.57 74.37,-57.67 13.04,-33.23 17.15,-79.95 18.62,-120.15 2.77,-75.26 7.47,-194.51 -17.46,-254.89 -29.87,-18.63 -13.14,-20.81 -61.97,-16.24l-148.68 51.24z"/>
  <path class="fil20" d="M156.88 1585.6c8.89,20.21 47.16,53.42 66.63,64.48l-44.65 -25.8c8.06,22.7 36.92,56.43 60.58,67.34 -11.79,-15 -36.64,-30.26 -57.09,-41.2 11.65,27.05 20.64,23.35 29.42,42.88 35.57,79.09 65.5,40.35 66.91,132.84 0.39,25.82 -3.11,246.79 15.25,268.64l0.4 -411.8c-26.08,-23.48 -106.36,-82.66 -137.45,-97.38z"/>
  <path class="fil20" d="M852.32 1528.63c6.62,25.69 9.89,-18.83 -3.2,4.87 -5.59,10.11 -1.92,-5.15 -2.02,2.89 -0.12,10.04 29.71,14.63 48.72,31.38 12.88,11.34 2.99,11.3 22.97,24.66 17.21,11.5 22.44,16.41 42.43,21.67l-1.37 -50.56c-21.95,-17.96 -148.81,-69.38 -176.97,-75.67l69.44 40.76z"/>
  <path class="fil20" d="M649.3 1515.09c21.67,10.17 46.37,29.81 68.15,37.03 -3,1 -2.7,2.53 -11.85,1.83 -0.33,-0.03 -17.66,-5.1 -17.91,-5.17 0.96,1.75 4.16,7.97 4.27,9.22 0.86,9.09 -3.13,7.76 -7.7,11.06l25.58 16.22 -16.09 4.07 27.18 21.86c31,-9.59 31.52,-20.96 76.71,-25.08 -18.49,-23.61 -45.26,-29.4 -82.44,-46.85 -26.04,-12.23 -54.17,-28.38 -80.6,-33.61l14.7 9.42z"/>
  <path class="fil20" d="M2122.13 1350.76c4.08,-0.33 9.87,-1.64 18.75,-8.42 6.11,-4.67 6.74,-5.96 10.4,-9.67 0.8,-0.82 2.56,-1.63 3.13,-3.91 0.57,-2.31 2.02,-2.71 2.99,-4.1 -3.99,-2.03 -5.84,-8.89 -26.86,-0.67l-64.93 33.19c-0.68,-1.21 -2.58,2.19 -5.85,5.18l28.76 26.81c15.74,-10.7 35.51,-20.29 51.35,-30.51 9.11,-5.89 17.24,-10.91 25.58,-16.27 1.19,-0.76 10.47,-7.09 11.3,-7.79 8.41,-7.14 3.72,-3.34 10.14,-11.63 -26.16,5.15 -42.31,15.89 -64.76,27.79z"/>
  <path class="fil20" d="M1032.29 1450.09c13.72,6.53 22.54,10.41 35.02,15.21 0.04,0.36 -0.86,0.56 -0.91,0.63l-2.33 6.9c0.19,0.48 0.85,2.24 1.23,2.75 4.44,6.19 54.65,34.27 73.67,36.24 16.14,-16.21 11.77,-8.79 20.86,-25.91 -4.83,-3.99 -3.95,-4.43 -12.56,-8.98 -1.69,-0.89 -7.09,-2.99 -8.91,-3.69l-138.08 -42.16 32.01 19.01z"/>
  <path class="fil20" d="M3187.01 2389.54c0.9,-1.47 1.89,-3.42 2.37,-4.58 0.49,-1.16 1.63,-3.21 2.19,-4.65l3.23 -9.73c3.18,-9.47 -0.46,-3.39 4,-13.67 7,-16.14 29.71,-30.56 50.67,-56.42l63.65 -79.81c-26.86,15.04 -39.16,29.09 -62.23,51.17 -13.47,12.89 -20.88,12.8 -34.29,25.62 -18.05,17.26 -7.87,13.11 -30.42,23.88l0.83 68.19z"/>
  <path class="fil21" d="M1399.67 957.97c17.13,16.54 21.96,59.95 24.37,77.06 -16.83,-13.22 -22.18,-33.64 -31.93,-46.71 -12.05,-16.13 -1.95,-7.38 -17.75,-16.49l13.1 59.12c-21.61,-11.56 -18.92,-55.21 -42.29,-64.42 9.47,26.51 20.96,53.76 29.06,82.39 9.45,33.42 19.77,60.34 29.59,90.81 -24.15,-15.45 -10.82,-21.17 -27.5,-27.69l57.04 151.1c3.41,8.67 7.94,17.8 11.6,26.83 8.82,13.83 8.01,14.26 22.47,28.52l5.05 -30.89 27 20.99 6.04 -84.6c9.93,11.89 14.25,29.35 23.49,46.32 19.6,35.99 7.4,11.97 25.3,1.63 4.79,23.39 8.15,44.47 22.12,58.78l3.11 -168.73c41.25,26.21 68.62,90.14 88.7,100.78 9.49,-100.91 22.26,-197.25 41.3,-292.77l66.06 -276.84 -81.96 -54.71c-37.94,-24.82 -106.67,-88.81 -142.55,-120.11 -41.74,-36.4 -94.68,-99.58 -128.43,-134.43 -78.53,-81.07 -106.8,-135.23 -160.86,-203.08 -6.12,-7.67 -4.65,-5.31 -9.55,-10.19l-7.77 -6.42c-3.34,139.99 29.76,301.81 54.92,421.96 19.63,93.73 96.79,348.01 100.27,371.79z"/>
  <path class="fil21" d="M1991.62 633.51l29.55 -15.65c9.18,-2.83 20.45,-5.45 33.29,-7.55 -3.96,-12.91 -34.92,-54.08 -47.75,-70.96l23.18 14.57c10.85,7.29 -3.22,0.14 14.11,9.24 -22.76,-27.05 -29.19,-12.63 -22.95,-38.62 0.09,-0.38 34.82,11.64 -20.86,-37.12 -24.34,-21.3 -52.41,-46.66 -66.49,-74.15 -19.41,-11.16 -30.82,-30.18 -65.01,-57.33 -22.88,-18.16 -43.29,-40.62 -65.76,-59.56 -100.1,-84.39 -13.95,-41.94 -177.91,-68.22 -102.2,-16.38 -200.01,-40.49 -297.21,-72.28 -67.81,-22.17 -29.31,-21.22 -55.3,-34.44 -5.43,-2.76 -7.11,-5.66 -21.97,0.31 -0.58,1.41 -0.91,3.52 -0.97,4.45 -1.54,24.23 10.28,27.75 28.17,50.3 13.38,16.87 21.22,30.86 35.15,48.52 127.1,161.2 177.77,220.18 333.05,353.92 190.89,164.4 102.6,92.86 345.68,54.57z"/>
  <path class="fil21" d="M1871.5 679.89c-8.57,18.21 -9.72,24.02 -17.11,40.83l-25.65 50.36c-3.58,9.95 -4.76,15.76 -7.19,23.05 -5.82,17.43 -10.63,23.66 -13.21,40.83 -29.97,6.62 22.74,10.62 -6.06,-3.89 -11.24,-5.66 13.98,-14.73 -4.22,-1.61l-26.06 75.94c-6.43,-18.32 6.56,-61.52 12.49,-89.65 -28.31,44.7 -74.66,286.69 -79.08,351.49l11.11 -22.98c2.09,-6.64 4.88,-22.69 6.39,-30.53 3.51,-18.22 6.72,-32.91 11.4,-48.86l1.15 137.36c13.89,-26.39 16.14,-63.3 23.21,-83.72 1.9,45.91 -9.87,97.45 -0.05,112.79 -8.06,-23.24 13.27,-63.12 15.65,-89.21 1.05,11.06 0.66,17.54 0.97,27.7l5.03 31.91c7.06,19.54 5.1,-23.7 7.04,20.76 0.45,10.19 -3.56,18.59 -6.28,25.58 23.81,-6.94 69.71,-25.92 93.14,-35.93 23.63,-10.09 19.03,-9 29.37,-37.05 40.27,-109.29 142.21,-288.87 204.89,-386.01l100.32 -157.85c-90.59,4.38 -263.63,16.32 -337.25,48.69z"/>
  <path class="fil6" d="M2043.48 1161.35l-0.6 -54.9 74.18 -0.78 -6.83 -21.63 -100.36 -4.34 -0.37 57.99 2.37 79.62 29.76 3.34 0.74 -32.5c45.99,-6.31 48.11,9.26 72.6,-6.81 -2.3,-15.2 19.5,-28.84 -71.49,-19.99z"/>
  <path class="fil9" d="M2579.78 1160.93l59.52 192.84c11.49,32.08 24.92,21.85 54.83,15.1 6.54,-20.58 16.82,-36.42 9.01,-49.55l-15.43 47.5c-34.04,-6.69 -26.25,-2.19 -36.14,-37.72 -5.89,-21.19 -11.25,-38.48 -17.78,-60.33 -10.81,-36.24 -29.77,-88.15 -34.32,-123.86 44.06,5.16 34.61,20.28 47.65,63.24 8.28,27.25 14.33,62.11 26.65,85.64 21.88,-26.48 35.15,-90.31 45.92,-124.88l32.37 6.39 -7.9 23.69c25.29,-3.86 11.05,-1.6 14.78,17.52l-4.17 150.49c-0.11,32.02 -5.25,34.45 22.17,40.15 5.34,-10.41 0.15,-7.38 7.95,-12.7l-11.38 -0.16c-6.69,-5.25 -11.92,5.61 -10.38,-51.7 0.85,-31.78 13.83,-123.39 -3.89,-147.3l-7.8 -7.98c10.47,-25.02 -2.37,-3.65 5.97,-9.78 -4.55,-6.78 -4.18,-9.12 -19.32,-11.88 -20.8,-3.78 -15.87,-1.59 -27.72,3.77 -8,19.24 -25.01,73.99 -36.6,89.71l-30.99 -95.68c-10.8,-24.9 -16.6,-21.98 -46.64,-26.25 -2.94,4.13 -4.97,7.35 -8.32,12.17 -7.42,10.69 -1.36,-0.24 -8.04,11.56zm278.32 250.5l-26.54 -8.73 1.56 -205.37c54.12,2.05 47.93,108.93 89.19,139.59 -0.31,-20.11 0,-40.03 -0.08,-60.11 -0.03,-6.59 -0.52,-24.64 0.12,-30.06 1.25,-10.66 -0.74,-0.89 1.89,-10.93 3.82,-14.53 0.06,-5.85 6.33,-14.13 30.1,10.29 19.87,9.09 19.46,97 -0.18,40.1 -1.47,80.91 -0.45,120.9 -30.45,-8.45 -35.73,-41.45 -48.76,-72.78 -11.21,-26.94 -23.06,-61.99 -41.17,-78.46l-1.55 123.08zm-84.59 -17.14l2.91 -210.44c35.73,5.21 25.77,-4.46 23.6,99.01 -0.41,19.85 -0.89,39.91 -1.07,59.75 -0.66,70.2 3.73,50.14 -14.06,51.84 -7.8,5.32 -2.61,2.29 -7.95,12.7 15.76,-1.4 11.75,-2.62 26.39,0.44 11.62,2.43 3.4,1.24 13.87,5.82 15.1,6.63 8.22,8.03 27.91,7.19 35.51,4.8 15.89,-1.49 22.78,-5.64l4.38 -48.35c14.88,39.95 31.26,89.53 63.58,85.07 25.39,-3.5 15.11,-5.32 19.94,-8.48 5.71,-27.82 3,-96.57 3.38,-130.48 0.64,-56.66 18.35,-101.92 -40.55,-99.8 -18.67,26.84 -17.99,22.44 -17.5,61.47 0.2,-14.64 3.4,4.24 -7.16,-19.34 -4.85,-10.84 -9,-20.97 -12.82,-29.62 -12.97,-29.41 -14.43,-31.68 -46.12,-40.11 -19.96,11.91 -4.26,0.47 -17.92,17.75 -15.99,-30.38 -14.71,-33.15 -59.69,-25.54 -8.34,6.13 4.5,-15.24 -5.97,9.78l7.8 7.98c17.72,23.91 4.74,115.52 3.89,147.3 -1.54,57.31 3.69,46.45 10.38,51.7z"/>
  <path class="fil9" d="M710 1193.28c0.04,-26.44 3.86,-22.7 29.43,-26.1l-0.98 187.95c-1.74,28.77 -0.77,23.11 -29.28,29.89l0.83 -191.74zm-12.79 -9.63c-2.54,49.45 -7.76,171.81 1.39,215.54l44.32 -20.93 2.74 -65.86c23.46,25.94 20.37,66.28 120.81,52.31l20.77 -7.89 -1.31 -9.42c-177.2,48.31 -147.62,-185.4 -31.95,-206.85 -26.22,-26.73 -91.29,59.37 -106.88,110.82l-3.36 -90.11c-12.02,-0.23 -20.17,0.05 -27.63,3.54 -14.27,6.66 -10.75,11.22 -18.9,18.85z"/>
  <path class="fil9" d="M2432.26 1261.79c-84.15,24.61 -107.08,-80.02 -74.14,-109.76 33.53,-30.29 105.86,37.68 74.14,109.76zm-58.62 -124.37c-75.93,27.9 -20.8,153.45 45.45,135.12 71.49,-19.78 30.4,-163 -45.45,-135.12z"/>
  <g>
   <path class="fil22" d="M1035.61 1134.75l-0.46 -30.6 16.38 -0.2 0.46 30.6 -7.4 7.29 -8.98 -7.09zm16.38 -0.2c0.06,3.98 -3.56,7.27 -8.08,7.32 -4.52,0.05 -8.24,-3.14 -8.3,-7.12l16.38 -0.2zm43.14 2.96l-50.54 4.33 -1.58 -14.38 50.54 -4.33 8.91 6.24 -7.33 8.14zm-1.58 -14.38c4.5,-0.38 8.52,2.52 8.95,6.49 0.43,3.97 -2.87,7.51 -7.37,7.89l-1.58 -14.38zm10.25 103.8l-16.38 -0.14 0 0 0.04 -3 0.05 -3 0.07 -3.02 0.08 -3 0.08 -3.01 0.09 -3.02 0.1 -3.02 0.1 -3.02 0.1 -3.02 0.1 -3.03 0.1 -3.02 0.09 -3.02 0.09 -3.01 0.07 -3.02 0.07 -3.02 0.05 -2.99 0.03 -3.01 0.02 -3.01 0 -3.01 -0.01 -2.99 -0.05 -2.97 -0.07 -2.99 -0.09 -2.98 -0.12 -2.96 -0.15 -2.96 -0.18 -2.96 -0.21 -2.92 -0.26 -2.93 -0.29 -2.91 -0.33 -2.92 -0.37 -2.9 -0.4 -2.88 16.24 -1.9 0.44 3.08 0.39 3.08 0.35 3.08 0.31 3.09 0.26 3.09 0.23 3.1 0.18 3.08 0.17 3.1 0.12 3.1 0.09 3.08 0.07 3.07 0.05 3.11 0.01 3.09 0 3.07 -0.02 3.07 -0.03 3.07 -0.05 3.09 -0.07 3.06 -0.07 3.06 -0.09 3.05 -0.09 3.04 -0.1 3.04 -0.1 3.03 -0.1 3.02 -0.1 3.02 -0.1 3 -0.09 2.98 -0.08 2.99 -0.08 2.98 -0.07 2.96 -0.05 2.94 -0.04 2.94 0 0zm0 0c-0.04,3.98 -3.75,7.18 -8.27,7.15 -4.52,-0.03 -8.15,-3.31 -8.11,-7.29l16.38 0.14zm8.53 78.25l0.98 14.42 0.01 0 -3.3 0.06 -3.17 -0.21 -3.07 -0.49 -2.99 -0.83 -2.77 -1.17 -2.56 -1.49 -2.28 -1.82 -1.93 -2.04 -1.58 -2.2 -1.28 -2.35 -1.02 -2.44 -0.78 -2.52 -0.6 -2.6 -0.45 -2.69 -0.33 -2.81 -0.21 -2.94 -0.1 -3.05 -0.02 -3.16 0.04 -3.28 0.1 -3.42 0.15 -3.55 0.2 -3.69 0.22 -3.82 0.24 -3.95 0.25 -4.09 0.26 -4.22 0.25 -4.35 0.23 -4.48 0.21 -4.61 0.17 -4.73 0.14 -4.88 0.08 -4.99 16.38 0.14 -0.08 5.13 -0.14 5 -0.17 4.85 -0.21 4.71 -0.25 4.56 -0.25 4.41 -0.26 4.24 -0.25 4.09 -0.24 3.93 -0.22 3.76 -0.18 3.59 -0.15 3.41 -0.1 3.24 -0.04 3.04 0.02 2.86 0.1 2.65 0.17 2.42 0.25 2.21 0.33 1.99 0.4 1.76 0.46 1.46 0.5 1.22 0.52 0.95 0.52 0.72 0.49 0.54 0.48 0.38 0.56 0.33 0.71 0.29 0.89 0.25 1.23 0.19 1.55 0.11 1.88 -0.04 0.01 0zm-0.01 0c4.51,-0.24 8.41,2.79 8.68,6.77 0.27,3.98 -3.17,7.41 -7.68,7.65l-1 -14.42zm5.11 -78.38l16.38 0.12 0 0 -0.01 4.46 0.04 4.4 0.09 4.3 0.13 4.23 0.16 4.15 0.18 4.05 0.2 3.96 0.21 3.87 0.2 3.78 0.2 3.66 0.18 3.59 0.15 3.46 0.12 3.36 0.08 3.25 0.04 3.15 -0.03 3.05 -0.09 2.93 -0.18 2.83 -0.27 2.74 -0.38 2.63 -0.51 2.54 -0.65 2.44 -0.85 2.4 -1.06 2.28 -1.3 2.19 -1.62 2.07 -1.96 1.93 -2.3 1.66 -2.54 1.34 -2.78 1.01 -2.95 0.66 -3 0.31 -0.98 -14.42 1.06 -0.11 0.75 -0.16 0.56 -0.21 0.46 -0.24 0.38 -0.28 0.4 -0.39 0.46 -0.61 0.5 -0.83 0.5 -1.08 0.45 -1.28 0.41 -1.58 0.37 -1.8 0.28 -2.01 0.23 -2.22 0.14 -2.41 0.09 -2.59 0.03 -2.77 -0.04 -2.93 -0.08 -3.09 -0.12 -3.24 -0.15 -3.38 -0.18 -3.51 -0.2 -3.66 -0.2 -3.78 -0.21 -3.89 -0.2 -4.02 -0.18 -4.13 -0.16 -4.23 -0.13 -4.35 -0.09 -4.44 -0.04 -4.54 0.01 -4.62 0 0zm0 0c0.03,-3.98 3.74,-7.19 8.26,-7.16 4.52,0.03 8.15,3.3 8.12,7.28l-16.38 -0.12zm7.92 -107.57l3.08 14.2 6.65 -6.87 -0.11 3.12 -0.1 3.13 -0.1 3.12 -0.08 3.12 -0.08 3.13 -0.07 3.13 -0.07 3.13 -0.06 3.12 -0.05 3.13 -0.05 3.13 -0.04 3.13 -0.04 3.14 -0.04 3.14 -0.03 3.12 -0.02 3.14 -0.03 3.14 -0.02 3.14 -0.02 3.14 -0.02 3.13 -0.01 3.15 -0.02 3.14 -0.01 3.14 -0.02 3.14 -0.01 3.15 -0.02 3.14 -0.01 3.14 -0.02 3.15 -0.02 3.14 -0.02 3.15 -0.02 3.15 -0.03 3.15 -0.03 3.14 -16.38 -0.12 0.03 -3.14 0.03 -3.13 0.02 -3.13 0.02 -3.15 0.02 -3.14 0.02 -3.13 0.01 -3.14 0.02 -3.14 0.01 -3.15 0.02 -3.14 0.01 -3.14 0.02 -3.14 0.01 -3.15 0.02 -3.15 0.02 -3.14 0.02 -3.16 0.03 -3.14 0.02 -3.14 0.03 -3.16 0.04 -3.16 0.04 -3.14 0.04 -3.15 0.05 -3.15 0.05 -3.15 0.06 -3.16 0.07 -3.15 0.07 -3.15 0.08 -3.15 0.08 -3.16 0.1 -3.16 0.1 -3.15 0.11 -3.16 6.65 -6.87zm-6.65 6.87c0.14,-3.98 3.93,-7.11 8.45,-6.99 4.52,0.12 8.07,3.47 7.93,7.45l-16.38 -0.46zm64.75 -26.78l-1.58 -14.38 8.98 7.4 -0.13 3.7 -0.16 3.41 -0.19 3.13 -0.22 2.9 -0.28 2.68 -0.35 2.48 -0.43 2.33 -0.54 2.19 -0.7 2.11 -0.91 2.03 -1.14 1.93 -1.44 1.83 -1.72 1.62 -1.98 1.4 -2.12 1.09 -2.15 0.83 -2.14 0.59 -2.15 0.45 -2.21 0.32 -2.25 0.24 -2.31 0.19 -2.4 0.16 -2.54 0.15 -2.73 0.16 -2.89 0.17 -3.06 0.21 -3.29 0.26 -3.5 0.32 -3.73 0.4 -4 0.5 -4.25 0.59 -4.51 0.72 -3.08 -14.2 4.85 -0.76 4.57 -0.65 4.28 -0.52 4.03 -0.44 3.76 -0.34 3.49 -0.28 3.26 -0.23 2.99 -0.17 2.71 -0.16 2.48 -0.15 2.22 -0.14 1.93 -0.15 1.65 -0.18 1.33 -0.2 1.05 -0.21 0.76 -0.21 0.47 -0.17 0.22 -0.11 0.08 -0.06 0.12 -0.12 0.16 -0.19 0.26 -0.45 0.31 -0.69 0.32 -1.01 0.34 -1.35 0.31 -1.67 0.27 -1.98 0.24 -2.3 0.2 -2.62 0.17 -2.95 0.16 -3.25 0.13 -3.6 8.98 7.4zm-8.98 -7.4c0.13,-3.98 3.91,-7.12 8.43,-7.01 4.52,0.11 8.08,3.45 7.95,7.43l-16.38 -0.42zm-131.92 4.94l139.32 -11.92 1.58 14.38 -139.32 11.92 -8.98 -7.09 7.4 -7.29zm1.58 14.38c-4.5,0.38 -8.52,-2.52 -8.95,-6.49 -0.43,-3.97 2.87,-7.51 7.37,-7.89l1.58 14.38z"/>
   <path id="1" class="fil10" d="M1043.34 1104.05l0.46 30.6 50.54 -4.33c4.77,31.76 1.6,64.94 1.27,96.54 -0.56,54.73 -11.62,87.07 17.21,85.53 22.71,-1.21 12.33,-36.63 12.8,-85.53 0.33,-33.5 0.05,-67.06 1.27,-100.53 51.45,-8.66 54.4,6.43 55.77,-34.2l-139.32 11.92z"/>
  </g>
  <path class="fil6" d="M1053.62 1111.89l0.37 27.72 40.36 -3.92c3.81,28.77 1.28,58.83 1.02,87.45 -0.45,49.58 -9.28,78.88 13.74,77.48 18.15,-1.1 9.85,-33.18 10.23,-77.48 0.26,-30.35 0.04,-60.74 1.01,-91.06 41.09,-7.85 43.45,5.82 44.55,-30.99l-111.28 10.8z"/>
  <path class="fil6" d="M1012.81 1121.68l-1.45 83.61 -60.22 11.92 0.74 -88.51c-31.57,4.2 -22.34,-0.39 -23.18,94.47 -0.22,25.12 -7.23,89.31 8.42,109.11 26.53,-10.04 10.34,-9.45 14.79,-86.97l59.12 -6.48 1.6 82.96 17.78 -2.39 3.03 -197.76c0.4,-0.03 5.24,-15.47 -20.63,0.04z"/>
  <g>
   <path class="fil0 str2" d="M885.93 1347.4c8.46,-21.25 5.53,-82.76 5.57,-116.58l-41.08 3.84 18.45 88.63c-110.82,23.69 -107.34,-163.93 25.22,-150.75 -0.91,-3.49 -1.76,-14.29 -2.09,-15.31 -6.1,-18.43 4.25,-4.51 -8.74,-17.03l-29.28 0.35c-115.67,21.45 -145.25,255.16 31.95,206.85z"/>
   <path id="1" class="fil10" d="M885.93 1347.4c8.46,-21.25 5.53,-82.76 5.57,-116.58l-41.08 3.84 18.45 88.63c-110.82,23.69 -107.34,-163.93 25.22,-150.75 -0.91,-3.49 -1.76,-14.29 -2.09,-15.31 -6.1,-18.43 4.25,-4.51 -8.74,-17.03l-29.28 0.35c-115.67,21.45 -145.25,255.16 31.95,206.85z"/>
  </g>
  <path class="fil6" d="M885.93 1347.4c8.46,-21.25 5.53,-82.76 5.57,-116.58l-41.08 3.84 18.45 88.63c-110.82,23.69 -107.34,-163.93 25.22,-150.75 -0.91,-3.49 -1.76,-14.29 -2.09,-15.31 -6.1,-18.43 4.25,-4.51 -8.74,-17.03l-29.28 0.35c-115.67,21.45 -145.25,255.16 31.95,206.85z"/>
  <g>
   <path class="fil0 str3" d="M2043.48 1161.35l-0.6 -54.9 74.18 -0.78 -6.83 -21.63 -100.36 -4.34 -0.37 57.99 2.37 79.62 29.76 3.34 0.74 -32.5c45.99,-6.31 48.11,9.26 72.6,-6.81 -2.3,-15.2 19.5,-28.84 -71.49,-19.99z"/>
   <path id="1" class="fil6" d="M2043.48 1161.35l-0.6 -54.9 74.18 -0.78 -6.83 -21.63 -100.36 -4.34 -0.37 57.99 2.37 79.62 29.76 3.34 0.74 -32.5c45.99,-6.31 48.11,9.26 72.6,-6.81 -2.3,-15.2 19.5,-28.84 -71.49,-19.99z"/>
  </g>
  <g>
   <path class="fil0 str4" d="M2703.14 1319.32l41.02 -120.33 7.9 -23.69 -32.37 -6.39c-10.77,34.57 -24.04,98.4 -45.92,124.88 -12.32,-23.53 -18.37,-58.39 -26.65,-85.64 -13.04,-42.96 -3.59,-58.08 -47.65,-63.24 4.55,35.71 23.51,87.62 34.32,123.86 6.53,21.85 11.89,39.14 17.78,60.33 9.89,35.53 2.1,31.03 36.14,37.72l15.43 -47.5z"/>
   <path id="1" class="fil6" d="M2703.14 1319.32l41.02 -120.33 7.9 -23.69 -32.37 -6.39c-10.77,34.57 -24.04,98.4 -45.92,124.88 -12.32,-23.53 -18.37,-58.39 -26.65,-85.64 -13.04,-42.96 -3.59,-58.08 -47.65,-63.24 4.55,35.71 23.51,87.62 34.32,123.86 6.53,21.85 11.89,39.14 17.78,60.33 9.89,35.53 2.1,31.03 36.14,37.72l15.43 -47.5z"/>
  </g>
  <path class="fil6" d="M2703.14 1319.32l41.02 -120.33 7.9 -23.69 -32.37 -6.39c-10.77,34.57 -24.04,98.4 -45.92,124.88 -12.32,-23.53 -18.37,-58.39 -26.65,-85.64 -13.04,-42.96 -3.59,-58.08 -47.65,-63.24 4.55,35.71 23.51,87.62 34.32,123.86 6.53,21.85 11.89,39.14 17.78,60.33 9.89,35.53 2.1,31.03 36.14,37.72l15.43 -47.5z"/>
  <g>
   <path class="fil0 str5" d="M2373.64 1137.42c75.85,-27.88 116.94,115.34 45.45,135.12 -66.25,18.33 -121.38,-107.22 -45.45,-135.12zm75.24 -9.03l-3.46 -3.31c-53.2,-29.83 -94.67,-34.46 -124.6,19.49 -27.14,48.92 1.28,112.35 28.49,134.37 99.45,80.45 185.63,-38.58 99.57,-150.55z"/>
   <path id="1" class="fil6" d="M2373.64 1137.42c75.85,-27.88 116.94,115.34 45.45,135.12 -66.25,18.33 -121.38,-107.22 -45.45,-135.12zm75.24 -9.03l-3.46 -3.31c-53.2,-29.83 -94.67,-34.46 -124.6,19.49 -27.14,48.92 1.28,112.35 28.49,134.37 99.45,80.45 185.63,-38.58 99.57,-150.55z"/>
  </g>
  <path class="fil10" d="M1016.1 1110.81l-1.74 95.86 -72.55 13.67 0.89 -101.48c-38.02,4.82 -26.9,-0.45 -27.92,108.32 -0.27,28.8 -8.72,102.39 10.14,125.09 31.96,-11.52 12.46,-10.83 17.82,-99.71l71.22 -7.44 1.93 95.12 21.41 -2.73 3.66 -226.74c0.48,-0.03 6.3,-17.74 -24.86,0.04z"/>
  <path class="fil6" d="M1012.81 1121.68l-1.45 83.61 -60.22 11.92 0.74 -88.51c-31.57,4.2 -22.34,-0.39 -23.18,94.47 -0.22,25.12 -7.23,89.31 8.42,109.11 26.53,-10.04 10.34,-9.45 14.79,-86.97l59.12 -6.48 1.6 82.96 17.78 -2.39 3.03 -197.76c0.4,-0.03 5.24,-15.47 -20.63,0.04z"/>
 </g>
</svg>
