<?xml version="1.0" encoding="UTF-8"?>
<!DOCTYPE svg PUBLIC "-//W3C//DTD SVG 1.1//EN" "http://www.w3.org/Graphics/SVG/1.1/DTD/svg11.dtd">
<!-- Creator: CorelDRAW 2017 -->
<svg xmlns="http://www.w3.org/2000/svg" xml:space="preserve" width="13.1232mm" height="22.2672mm" version="1.1" style="shape-rendering:geometricPrecision; text-rendering:geometricPrecision; image-rendering:optimizeQuality; fill-rule:evenodd; clip-rule:evenodd"
viewBox="0 0 1312.32 2226.72"
 xmlns:xlink="http://www.w3.org/1999/xlink">
 <defs>
  <style type="text/css">
   <![CDATA[
    .str0 {stroke:#FEFEFE;stroke-width:100;stroke-linecap:round;stroke-linejoin:round;stroke-miterlimit:22.9256}
    .str1 {stroke:black;stroke-width:50;stroke-linecap:round;stroke-linejoin:round;stroke-miterlimit:22.9256}
    .fil0 {fill:none}
    .fil2 {fill:#54541C}
    .fil1 {fill:#94902C}
    .fil3 {fill:#F3EC46}
   ]]>
  </style>
 </defs>
 <g id="Capa_x0020_1">
  <metadata id="CorelCorpID_0Corel-Layer"/>
  <g id="_2266840624656">
   <g>
    <path class="fil0 str0" d="M801.16 714.78l-82.13 21.76c-45.55,124.88 -100.58,455.62 -107.93,595.04 37.52,-7.92 73.49,-29.74 99.59,-48.65 23.81,-6.94 69.71,-25.92 93.14,-35.93 23.63,-10.09 19.03,-9 29.37,-37.05 40.27,-109.29 142.21,-288.87 204.89,-386.01l100.32 -157.85c-90.59,4.38 -263.63,16.32 -337.25,48.69zm62.2 -266.62c-19.41,-11.16 -30.82,-30.18 -65.01,-57.33 -22.88,-18.16 -43.29,-40.62 -65.76,-59.56 -100.1,-84.39 -13.95,-41.94 -177.91,-68.22 -102.2,-16.38 -200.01,-40.49 -297.21,-72.28 -67.81,-22.17 -29.31,-21.22 -55.3,-34.44 -5.43,-2.76 -7.11,-5.66 -21.97,0.31 -0.58,1.41 -0.91,3.52 -0.97,4.45 -1.54,24.23 10.28,27.75 28.17,50.3 13.38,16.87 21.22,30.86 35.15,48.52 127.1,161.2 177.77,220.18 333.05,353.92 190.89,164.4 102.6,92.86 345.68,54.57 18.73,-1.03 179.7,-14.9 194.48,-26.2 -79.08,-40.37 -179.11,-142.31 -252.4,-194.04zm-488.74 876.7c8.82,13.83 8.01,14.26 22.47,28.52l5.05 -30.89 27 20.99 6.04 -84.6c9.93,11.89 14.25,29.35 23.49,46.32 19.6,35.99 7.4,11.97 25.3,1.63 4.79,23.39 8.15,44.47 22.12,58.78l3.11 -168.73c41.25,26.21 68.62,90.14 88.7,100.78 9.49,-100.91 22.26,-197.25 41.3,-292.77l66.06 -276.84 -81.96 -54.71c-37.94,-24.82 -106.67,-88.81 -142.55,-120.11 -41.74,-36.4 -94.68,-99.58 -128.43,-134.43 -78.53,-81.07 -106.8,-135.23 -160.86,-203.08 -6.12,-7.67 -4.65,-5.31 -9.55,-10.19l-7.77 -6.42c-3.34,139.99 29.76,301.81 54.92,421.96 19.63,93.73 96.79,348.01 100.27,371.79 -23.01,-3.14 -102.46,-120.42 -129.31,-156.42 -17.47,42.74 120.32,463.23 165.86,526.8l5.14 -30.38c0.28,-0.96 1.51,-1.93 1.73,-4.08 0.22,-2.11 1.01,-2.76 1.87,-3.92zm312.16 303.1c17.93,-11.48 12.6,-4.23 16.28,-35.01 7.27,-60.87 26.06,-130.81 30.04,-186.25 -16.7,10.77 -6.39,1.07 -19.49,18.94 -15.48,-19.6 0.09,-9.9 -26.48,-22.15l-19.96 38.27c-21.91,-32.44 -7.9,-23.32 -20.93,-44.42 -19.44,12.76 -9.15,-17.54 -22.93,49.2 -21.77,-13.15 -24.84,-24.11 -40.1,-40.08l-12.93 -11.36c-5.38,7.23 -14.63,22.44 -20.47,27.16 -8.27,6.71 -19.46,2.95 -19.5,2.83 -0.37,-1.15 -2.4,-0.35 -3.43,0.16 10.78,46.08 10.77,80.63 19.15,124.8 8.81,46.43 25.16,84.3 32.89,128.25l107.86 -50.34zm-383.69 -160.01l34.28 -10.14c5.99,8.06 9.06,-12.58 7.17,27.12 13.35,-2.25 2.55,-4.5 13.66,0.78 3.47,66.92 10.99,87.09 29.14,140.95l71.79 165.95c10.19,19.65 20.75,35.8 30.25,54.34 2.58,5.02 10.3,19.85 14.33,27.16l14.08 27.01c8.63,15.7 23.95,36.56 29.63,49.66 -48.42,35.38 -72.37,-41.87 -96.58,-43.98 -39.01,8.81 -27.1,17.76 -41.08,52.62l-50.46 -6.98c-6.74,20.55 3.05,4.2 -16.2,18.04 8.5,21.15 -21.26,-3.27 6.5,27.12 21.69,23.76 76.99,32.29 87.49,58.74 -18.72,13.8 -3.07,10.27 -26.76,13.36 23.71,8.76 25.95,1.99 38.92,-13.58 13.04,-15.66 19.27,-19.69 28.29,-29.56l-32.75 -0.95c-28.04,-4.89 -30.57,-10.77 -48.1,-19.66 -17.06,-8.65 -16.73,1.21 -31.39,-28.53 65.2,33.7 70.65,-20.99 79.57,-41.65l65.69 59.45c32.35,-9.97 -26.7,13.5 13.11,-7.67 18.27,-9.71 -5.6,-2.67 22.72,-9.68 15.89,11.6 65.11,67.27 95.17,-21.65 10.45,10.27 26.92,23.84 40.99,22.16 16.98,-2.02 26.63,-19.5 33.94,-38.78 -16.43,-11.35 -29.97,9.06 -32.74,11.45 -17.57,-2.32 -24.55,-9 -37.35,-8.57 -16.47,0.56 -12.69,9.5 -21.62,8.3 -14.25,-56.71 -0.09,-209.1 6.49,-275.8 -36.73,8.91 -29.3,31.54 -74.91,3.11l-41.81 -19.47 64.22 248.4c14.22,53.08 17.16,49.68 16.81,72.36 -0.02,0.81 -0.58,4.81 -0.62,4.03 -0.03,-0.78 -0.35,2.72 -0.79,4.02 -18.02,-16.86 -29.35,-74.82 -37.18,-101.21l-20.99 -80.21c-13.53,-54.13 -35.5,-141.25 -46.88,-195.5 52.4,51.99 26.76,29.5 68.42,45.94l-13.17 -48.91c-27.21,-99.83 -20.28,-128.75 -35.97,-217.51l-13.66 13.65c-2.31,-12.12 -1.57,-16.25 -8.08,-26.43l-34.21 -53.71c-13.4,14.97 -10.4,35.57 -9.67,57.14 -14.56,-8.77 -11.38,-9.67 -28.24,-16.42 1.29,21.06 4.31,21.93 -3.97,35.71 -6.79,-23.84 -9.89,-30.3 -30.58,-35.1 5.53,50.59 0.89,35.86 21.73,79.5 9.17,19.21 33.86,59.15 36.09,75.69 -15.87,-2.95 -68.2,-46.69 -80.51,-61.19 -1.13,-1.32 -4.38,-5.52 -5.34,-6.69 -18.29,-22.09 -10.2,-4.81 -56.14,-11.49 -26.72,-3.88 -72.47,-21.77 -119.66,-27.36l20.94 32.56c34.84,28.19 76.93,18.21 104.44,11.46 5.99,3.86 10.82,-9.99 1.55,10.6zm410.52 -66.07c26.67,-36.37 17.31,-41.91 26.5,-63.25 9.2,-21.36 11.27,-1.21 25.89,-56.76 -39.4,3.15 -116.58,51.6 -153.92,69.98 -22.23,-27.25 -66.76,-105.81 -88.18,-117.5 -6.81,55.33 -9.31,129.96 23.65,165.44l13.53 -29.86c14.78,7.45 4.48,0.45 17.12,11.39 15.52,13.42 9.68,18.51 33.88,33.32 15.2,-19.35 12.26,-34.64 23.17,-52.83 14.83,17.82 14.47,34.45 32.02,50.58l22.13 -45.69 24.21 35.18z"/>
    <path id="1" class="fil1" d="M801.16 714.78l-82.13 21.76c-45.55,124.88 -100.58,455.62 -107.93,595.04 37.52,-7.92 73.49,-29.74 99.59,-48.65 23.81,-6.94 69.71,-25.92 93.14,-35.93 23.63,-10.09 19.03,-9 29.37,-37.05 40.27,-109.29 142.21,-288.87 204.89,-386.01l100.32 -157.85c-90.59,4.38 -263.63,16.32 -337.25,48.69zm62.2 -266.62c-19.41,-11.16 -30.82,-30.18 -65.01,-57.33 -22.88,-18.16 -43.29,-40.62 -65.76,-59.56 -100.1,-84.39 -13.95,-41.94 -177.91,-68.22 -102.2,-16.38 -200.01,-40.49 -297.21,-72.28 -67.81,-22.17 -29.31,-21.22 -55.3,-34.44 -5.43,-2.76 -7.11,-5.66 -21.97,0.31 -0.58,1.41 -0.91,3.52 -0.97,4.45 -1.54,24.23 10.28,27.75 28.17,50.3 13.38,16.87 21.22,30.86 35.15,48.52 127.1,161.2 177.77,220.18 333.05,353.92 190.89,164.4 102.6,92.86 345.68,54.57 18.73,-1.03 179.7,-14.9 194.48,-26.2 -79.08,-40.37 -179.11,-142.31 -252.4,-194.04zm-488.74 876.7c8.82,13.83 8.01,14.26 22.47,28.52l5.05 -30.89 27 20.99 6.04 -84.6c9.93,11.89 14.25,29.35 23.49,46.32 19.6,35.99 7.4,11.97 25.3,1.63 4.79,23.39 8.15,44.47 22.12,58.78l3.11 -168.73c41.25,26.21 68.62,90.14 88.7,100.78 9.49,-100.91 22.26,-197.25 41.3,-292.77l66.06 -276.84 -81.96 -54.71c-37.94,-24.82 -106.67,-88.81 -142.55,-120.11 -41.74,-36.4 -94.68,-99.58 -128.43,-134.43 -78.53,-81.07 -106.8,-135.23 -160.86,-203.08 -6.12,-7.67 -4.65,-5.31 -9.55,-10.19l-7.77 -6.42c-3.34,139.99 29.76,301.81 54.92,421.96 19.63,93.73 96.79,348.01 100.27,371.79 -23.01,-3.14 -102.46,-120.42 -129.31,-156.42 -17.47,42.74 120.32,463.23 165.86,526.8l5.14 -30.38c0.28,-0.96 1.51,-1.93 1.73,-4.08 0.22,-2.11 1.01,-2.76 1.87,-3.92zm312.16 303.1c17.93,-11.48 12.6,-4.23 16.28,-35.01 7.27,-60.87 26.06,-130.81 30.04,-186.25 -16.7,10.77 -6.39,1.07 -19.49,18.94 -15.48,-19.6 0.09,-9.9 -26.48,-22.15l-19.96 38.27c-21.91,-32.44 -7.9,-23.32 -20.93,-44.42 -19.44,12.76 -9.15,-17.54 -22.93,49.2 -21.77,-13.15 -24.84,-24.11 -40.1,-40.08l-12.93 -11.36c-5.38,7.23 -14.63,22.44 -20.47,27.16 -8.27,6.71 -19.46,2.95 -19.5,2.83 -0.37,-1.15 -2.4,-0.35 -3.43,0.16 10.78,46.08 10.77,80.63 19.15,124.8 8.81,46.43 25.16,84.3 32.89,128.25l107.86 -50.34zm-383.69 -160.01l34.28 -10.14c5.99,8.06 9.06,-12.58 7.17,27.12 13.35,-2.25 2.55,-4.5 13.66,0.78 3.47,66.92 10.99,87.09 29.14,140.95l71.79 165.95c10.19,19.65 20.75,35.8 30.25,54.34 2.58,5.02 10.3,19.85 14.33,27.16l14.08 27.01c8.63,15.7 23.95,36.56 29.63,49.66 -48.42,35.38 -72.37,-41.87 -96.58,-43.98 -39.01,8.81 -27.1,17.76 -41.08,52.62l-50.46 -6.98c-6.74,20.55 3.05,4.2 -16.2,18.04 8.5,21.15 -21.26,-3.27 6.5,27.12 21.69,23.76 76.99,32.29 87.49,58.74 -18.72,13.8 -3.07,10.27 -26.76,13.36 23.71,8.76 25.95,1.99 38.92,-13.58 13.04,-15.66 19.27,-19.69 28.29,-29.56l-32.75 -0.95c-28.04,-4.89 -30.57,-10.77 -48.1,-19.66 -17.06,-8.65 -16.73,1.21 -31.39,-28.53 65.2,33.7 70.65,-20.99 79.57,-41.65l65.69 59.45c32.35,-9.97 -26.7,13.5 13.11,-7.67 18.27,-9.71 -5.6,-2.67 22.72,-9.68 15.89,11.6 65.11,67.27 95.17,-21.65 10.45,10.27 26.92,23.84 40.99,22.16 16.98,-2.02 26.63,-19.5 33.94,-38.78 -16.43,-11.35 -29.97,9.06 -32.74,11.45 -17.57,-2.32 -24.55,-9 -37.35,-8.57 -16.47,0.56 -12.69,9.5 -21.62,8.3 -14.25,-56.71 -0.09,-209.1 6.49,-275.8 -36.73,8.91 -29.3,31.54 -74.91,3.11l-41.81 -19.47 64.22 248.4c14.22,53.08 17.16,49.68 16.81,72.36 -0.02,0.81 -0.58,4.81 -0.62,4.03 -0.03,-0.78 -0.35,2.72 -0.79,4.02 -18.02,-16.86 -29.35,-74.82 -37.18,-101.21l-20.99 -80.21c-13.53,-54.13 -35.5,-141.25 -46.88,-195.5 52.4,51.99 26.76,29.5 68.42,45.94l-13.17 -48.91c-27.21,-99.83 -20.28,-128.75 -35.97,-217.51l-13.66 13.65c-2.31,-12.12 -1.57,-16.25 -8.08,-26.43l-34.21 -53.71c-13.4,14.97 -10.4,35.57 -9.67,57.14 -14.56,-8.77 -11.38,-9.67 -28.24,-16.42 1.29,21.06 4.31,21.93 -3.97,35.71 -6.79,-23.84 -9.89,-30.3 -30.58,-35.1 5.53,50.59 0.89,35.86 21.73,79.5 9.17,19.21 33.86,59.15 36.09,75.69 -15.87,-2.95 -68.2,-46.69 -80.51,-61.19 -1.13,-1.32 -4.38,-5.52 -5.34,-6.69 -18.29,-22.09 -10.2,-4.81 -56.14,-11.49 -26.72,-3.88 -72.47,-21.77 -119.66,-27.36l20.94 32.56c34.84,28.19 76.93,18.21 104.44,11.46 5.99,3.86 10.82,-9.99 1.55,10.6zm410.52 -66.07c26.67,-36.37 17.31,-41.91 26.5,-63.25 9.2,-21.36 11.27,-1.21 25.89,-56.76 -39.4,3.15 -116.58,51.6 -153.92,69.98 -22.23,-27.25 -66.76,-105.81 -88.18,-117.5 -6.81,55.33 -9.31,129.96 23.65,165.44l13.53 -29.86c14.78,7.45 4.48,0.45 17.12,11.39 15.52,13.42 9.68,18.51 33.88,33.32 15.2,-19.35 12.26,-34.64 23.17,-52.83 14.83,17.82 14.47,34.45 32.02,50.58l22.13 -45.69 24.21 35.18z"/>
   </g>
   <g>
    <path class="fil0 str1" d="M801.16 714.78l-82.13 21.76c-45.55,124.88 -100.58,455.62 -107.93,595.04 37.52,-7.92 73.49,-29.74 99.59,-48.65 23.81,-6.94 69.71,-25.92 93.14,-35.93 23.63,-10.09 19.03,-9 29.37,-37.05 40.27,-109.29 142.21,-288.87 204.89,-386.01l100.32 -157.85c-90.59,4.38 -263.63,16.32 -337.25,48.69zm62.2 -266.62c-19.41,-11.16 -30.82,-30.18 -65.01,-57.33 -22.88,-18.16 -43.29,-40.62 -65.76,-59.56 -100.1,-84.39 -13.95,-41.94 -177.91,-68.22 -102.2,-16.38 -200.01,-40.49 -297.21,-72.28 -67.81,-22.17 -29.31,-21.22 -55.3,-34.44 -5.43,-2.76 -7.11,-5.66 -21.97,0.31 -0.58,1.41 -0.91,3.52 -0.97,4.45 -1.54,24.23 10.28,27.75 28.17,50.3 13.38,16.87 21.22,30.86 35.15,48.52 127.1,161.2 177.77,220.18 333.05,353.92 190.89,164.4 102.6,92.86 345.68,54.57 18.73,-1.03 179.7,-14.9 194.48,-26.2 -79.08,-40.37 -179.11,-142.31 -252.4,-194.04zm-488.74 876.7c8.82,13.83 8.01,14.26 22.47,28.52l5.05 -30.89 27 20.99 6.04 -84.6c9.93,11.89 14.25,29.35 23.49,46.32 19.6,35.99 7.4,11.97 25.3,1.63 4.79,23.39 8.15,44.47 22.12,58.78l3.11 -168.73c41.25,26.21 68.62,90.14 88.7,100.78 9.49,-100.91 22.26,-197.25 41.3,-292.77l66.06 -276.84 -81.96 -54.71c-37.94,-24.82 -106.67,-88.81 -142.55,-120.11 -41.74,-36.4 -94.68,-99.58 -128.43,-134.43 -78.53,-81.07 -106.8,-135.23 -160.86,-203.08 -6.12,-7.67 -4.65,-5.31 -9.55,-10.19l-7.77 -6.42c-3.34,139.99 29.76,301.81 54.92,421.96 19.63,93.73 96.79,348.01 100.27,371.79 -23.01,-3.14 -102.46,-120.42 -129.31,-156.42 -17.47,42.74 120.32,463.23 165.86,526.8l5.14 -30.38c0.28,-0.96 1.51,-1.93 1.73,-4.08 0.22,-2.11 1.01,-2.76 1.87,-3.92zm312.16 303.1c17.93,-11.48 12.6,-4.23 16.28,-35.01 7.27,-60.87 26.06,-130.81 30.04,-186.25 -16.7,10.77 -6.39,1.07 -19.49,18.94 -15.48,-19.6 0.09,-9.9 -26.48,-22.15l-19.96 38.27c-21.91,-32.44 -7.9,-23.32 -20.93,-44.42 -19.44,12.76 -9.15,-17.54 -22.93,49.2 -21.77,-13.15 -24.84,-24.11 -40.1,-40.08l-12.93 -11.36c-5.38,7.23 -14.63,22.44 -20.47,27.16 -8.27,6.71 -19.46,2.95 -19.5,2.83 -0.37,-1.15 -2.4,-0.35 -3.43,0.16 10.78,46.08 10.77,80.63 19.15,124.8 8.81,46.43 25.16,84.3 32.89,128.25l107.86 -50.34zm-383.69 -160.01l34.28 -10.14c5.99,8.06 9.06,-12.58 7.17,27.12 13.35,-2.25 2.55,-4.5 13.66,0.78 3.47,66.92 10.99,87.09 29.14,140.95l71.79 165.95c10.19,19.65 20.75,35.8 30.25,54.34 2.58,5.02 10.3,19.85 14.33,27.16l14.08 27.01c8.63,15.7 23.95,36.56 29.63,49.66 -48.42,35.38 -72.37,-41.87 -96.58,-43.98 -39.01,8.81 -27.1,17.76 -41.08,52.62l-50.46 -6.98c-6.74,20.55 3.05,4.2 -16.2,18.04 8.5,21.15 -21.26,-3.27 6.5,27.12 21.69,23.76 76.99,32.29 87.49,58.74 -18.72,13.8 -3.07,10.27 -26.76,13.36 23.71,8.76 25.95,1.99 38.92,-13.58 13.04,-15.66 19.27,-19.69 28.29,-29.56l-32.75 -0.95c-28.04,-4.89 -30.57,-10.77 -48.1,-19.66 -17.06,-8.65 -16.73,1.21 -31.39,-28.53 65.2,33.7 70.65,-20.99 79.57,-41.65l65.69 59.45c32.35,-9.97 -26.7,13.5 13.11,-7.67 18.27,-9.71 -5.6,-2.67 22.72,-9.68 15.89,11.6 65.11,67.27 95.17,-21.65 10.45,10.27 26.92,23.84 40.99,22.16 16.98,-2.02 26.63,-19.5 33.94,-38.78 -16.43,-11.35 -29.97,9.06 -32.74,11.45 -17.57,-2.32 -24.55,-9 -37.35,-8.57 -16.47,0.56 -12.69,9.5 -21.62,8.3 -14.25,-56.71 -0.09,-209.1 6.49,-275.8 -36.73,8.91 -29.3,31.54 -74.91,3.11l-41.81 -19.47 64.22 248.4c14.22,53.08 17.16,49.68 16.81,72.36 -0.02,0.81 -0.58,4.81 -0.62,4.03 -0.03,-0.78 -0.35,2.72 -0.79,4.02 -18.02,-16.86 -29.35,-74.82 -37.18,-101.21l-20.99 -80.21c-13.53,-54.13 -35.5,-141.25 -46.88,-195.5 52.4,51.99 26.76,29.5 68.42,45.94l-13.17 -48.91c-27.21,-99.83 -20.28,-128.75 -35.97,-217.51l-13.66 13.65c-2.31,-12.12 -1.57,-16.25 -8.08,-26.43l-34.21 -53.71c-13.4,14.97 -10.4,35.57 -9.67,57.14 -14.56,-8.77 -11.38,-9.67 -28.24,-16.42 1.29,21.06 4.31,21.93 -3.97,35.71 -6.79,-23.84 -9.89,-30.3 -30.58,-35.1 5.53,50.59 0.89,35.86 21.73,79.5 9.17,19.21 33.86,59.15 36.09,75.69 -15.87,-2.95 -68.2,-46.69 -80.51,-61.19 -1.13,-1.32 -4.38,-5.52 -5.34,-6.69 -18.29,-22.09 -10.2,-4.81 -56.14,-11.49 -26.72,-3.88 -72.47,-21.77 -119.66,-27.36l20.94 32.56c34.84,28.19 76.93,18.21 104.44,11.46 5.99,3.86 10.82,-9.99 1.55,10.6zm410.52 -66.07c26.67,-36.37 17.31,-41.91 26.5,-63.25 9.2,-21.36 11.27,-1.21 25.89,-56.76 -39.4,3.15 -116.58,51.6 -153.92,69.98 -22.23,-27.25 -66.76,-105.81 -88.18,-117.5 -6.81,55.33 -9.31,129.96 23.65,165.44l13.53 -29.86c14.78,7.45 4.48,0.45 17.12,11.39 15.52,13.42 9.68,18.51 33.88,33.32 15.2,-19.35 12.26,-34.64 23.17,-52.83 14.83,17.82 14.47,34.45 32.02,50.58l22.13 -45.69 24.21 35.18z"/>
    <path id="1" class="fil1" d="M801.16 714.78l-82.13 21.76c-45.55,124.88 -100.58,455.62 -107.93,595.04 37.52,-7.92 73.49,-29.74 99.59,-48.65 23.81,-6.94 69.71,-25.92 93.14,-35.93 23.63,-10.09 19.03,-9 29.37,-37.05 40.27,-109.29 142.21,-288.87 204.89,-386.01l100.32 -157.85c-90.59,4.38 -263.63,16.32 -337.25,48.69zm62.2 -266.62c-19.41,-11.16 -30.82,-30.18 -65.01,-57.33 -22.88,-18.16 -43.29,-40.62 -65.76,-59.56 -100.1,-84.39 -13.95,-41.94 -177.91,-68.22 -102.2,-16.38 -200.01,-40.49 -297.21,-72.28 -67.81,-22.17 -29.31,-21.22 -55.3,-34.44 -5.43,-2.76 -7.11,-5.66 -21.97,0.31 -0.58,1.41 -0.91,3.52 -0.97,4.45 -1.54,24.23 10.28,27.75 28.17,50.3 13.38,16.87 21.22,30.86 35.15,48.52 127.1,161.2 177.77,220.18 333.05,353.92 190.89,164.4 102.6,92.86 345.68,54.57 18.73,-1.03 179.7,-14.9 194.48,-26.2 -79.08,-40.37 -179.11,-142.31 -252.4,-194.04zm-488.74 876.7c8.82,13.83 8.01,14.26 22.47,28.52l5.05 -30.89 27 20.99 6.04 -84.6c9.93,11.89 14.25,29.35 23.49,46.32 19.6,35.99 7.4,11.97 25.3,1.63 4.79,23.39 8.15,44.47 22.12,58.78l3.11 -168.73c41.25,26.21 68.62,90.14 88.7,100.78 9.49,-100.91 22.26,-197.25 41.3,-292.77l66.06 -276.84 -81.96 -54.71c-37.94,-24.82 -106.67,-88.81 -142.55,-120.11 -41.74,-36.4 -94.68,-99.58 -128.43,-134.43 -78.53,-81.07 -106.8,-135.23 -160.86,-203.08 -6.12,-7.67 -4.65,-5.31 -9.55,-10.19l-7.77 -6.42c-3.34,139.99 29.76,301.81 54.92,421.96 19.63,93.73 96.79,348.01 100.27,371.79 -23.01,-3.14 -102.46,-120.42 -129.31,-156.42 -17.47,42.74 120.32,463.23 165.86,526.8l5.14 -30.38c0.28,-0.96 1.51,-1.93 1.73,-4.08 0.22,-2.11 1.01,-2.76 1.87,-3.92zm312.16 303.1c17.93,-11.48 12.6,-4.23 16.28,-35.01 7.27,-60.87 26.06,-130.81 30.04,-186.25 -16.7,10.77 -6.39,1.07 -19.49,18.94 -15.48,-19.6 0.09,-9.9 -26.48,-22.15l-19.96 38.27c-21.91,-32.44 -7.9,-23.32 -20.93,-44.42 -19.44,12.76 -9.15,-17.54 -22.93,49.2 -21.77,-13.15 -24.84,-24.11 -40.1,-40.08l-12.93 -11.36c-5.38,7.23 -14.63,22.44 -20.47,27.16 -8.27,6.71 -19.46,2.95 -19.5,2.83 -0.37,-1.15 -2.4,-0.35 -3.43,0.16 10.78,46.08 10.77,80.63 19.15,124.8 8.81,46.43 25.16,84.3 32.89,128.25l107.86 -50.34zm-383.69 -160.01l34.28 -10.14c5.99,8.06 9.06,-12.58 7.17,27.12 13.35,-2.25 2.55,-4.5 13.66,0.78 3.47,66.92 10.99,87.09 29.14,140.95l71.79 165.95c10.19,19.65 20.75,35.8 30.25,54.34 2.58,5.02 10.3,19.85 14.33,27.16l14.08 27.01c8.63,15.7 23.95,36.56 29.63,49.66 -48.42,35.38 -72.37,-41.87 -96.58,-43.98 -39.01,8.81 -27.1,17.76 -41.08,52.62l-50.46 -6.98c-6.74,20.55 3.05,4.2 -16.2,18.04 8.5,21.15 -21.26,-3.27 6.5,27.12 21.69,23.76 76.99,32.29 87.49,58.74 -18.72,13.8 -3.07,10.27 -26.76,13.36 23.71,8.76 25.95,1.99 38.92,-13.58 13.04,-15.66 19.27,-19.69 28.29,-29.56l-32.75 -0.95c-28.04,-4.89 -30.57,-10.77 -48.1,-19.66 -17.06,-8.65 -16.73,1.21 -31.39,-28.53 65.2,33.7 70.65,-20.99 79.57,-41.65l65.69 59.45c32.35,-9.97 -26.7,13.5 13.11,-7.67 18.27,-9.71 -5.6,-2.67 22.72,-9.68 15.89,11.6 65.11,67.27 95.17,-21.65 10.45,10.27 26.92,23.84 40.99,22.16 16.98,-2.02 26.63,-19.5 33.94,-38.78 -16.43,-11.35 -29.97,9.06 -32.74,11.45 -17.57,-2.32 -24.55,-9 -37.35,-8.57 -16.47,0.56 -12.69,9.5 -21.62,8.3 -14.25,-56.71 -0.09,-209.1 6.49,-275.8 -36.73,8.91 -29.3,31.54 -74.91,3.11l-41.81 -19.47 64.22 248.4c14.22,53.08 17.16,49.68 16.81,72.36 -0.02,0.81 -0.58,4.81 -0.62,4.03 -0.03,-0.78 -0.35,2.72 -0.79,4.02 -18.02,-16.86 -29.35,-74.82 -37.18,-101.21l-20.99 -80.21c-13.53,-54.13 -35.5,-141.25 -46.88,-195.5 52.4,51.99 26.76,29.5 68.42,45.94l-13.17 -48.91c-27.21,-99.83 -20.28,-128.75 -35.97,-217.51l-13.66 13.65c-2.31,-12.12 -1.57,-16.25 -8.08,-26.43l-34.21 -53.71c-13.4,14.97 -10.4,35.57 -9.67,57.14 -14.56,-8.77 -11.38,-9.67 -28.24,-16.42 1.29,21.06 4.31,21.93 -3.97,35.71 -6.79,-23.84 -9.89,-30.3 -30.58,-35.1 5.53,50.59 0.89,35.86 21.73,79.5 9.17,19.21 33.86,59.15 36.09,75.69 -15.87,-2.95 -68.2,-46.69 -80.51,-61.19 -1.13,-1.32 -4.38,-5.52 -5.34,-6.69 -18.29,-22.09 -10.2,-4.81 -56.14,-11.49 -26.72,-3.88 -72.47,-21.77 -119.66,-27.36l20.94 32.56c34.84,28.19 76.93,18.21 104.44,11.46 5.99,3.86 10.82,-9.99 1.55,10.6zm410.52 -66.07c26.67,-36.37 17.31,-41.91 26.5,-63.25 9.2,-21.36 11.27,-1.21 25.89,-56.76 -39.4,3.15 -116.58,51.6 -153.92,69.98 -22.23,-27.25 -66.76,-105.81 -88.18,-117.5 -6.81,55.33 -9.31,129.96 23.65,165.44l13.53 -29.86c14.78,7.45 4.48,0.45 17.12,11.39 15.52,13.42 9.68,18.51 33.88,33.32 15.2,-19.35 12.26,-34.64 23.17,-52.83 14.83,17.82 14.47,34.45 32.02,50.58l22.13 -45.69 24.21 35.18z"/>
   </g>
   <path class="fil1" d="M710.69 1282.93c2.72,-6.99 6.73,-15.39 6.28,-25.58 -1.94,-44.46 0.02,-1.22 -7.04,-20.76l-5.03 -31.91c-0.31,-10.16 0.08,-16.64 -0.97,-27.7 -2.38,26.09 -23.71,65.97 -15.65,89.21 -9.82,-15.34 1.95,-66.88 0.05,-112.79 -7.07,20.42 -9.32,57.33 -23.21,83.72l-1.15 -137.36c-4.68,15.95 -7.89,30.64 -11.4,48.86 -1.51,7.84 -4.3,23.89 -6.39,30.53l-11.11 22.98c4.42,-64.8 50.77,-306.79 79.08,-351.49 -5.93,28.13 -18.92,71.33 -12.49,89.65l26.06 -75.94c18.2,-13.12 -7.02,-4.05 4.22,1.61 28.8,14.51 -23.91,10.51 6.06,3.89 2.58,-17.17 7.39,-23.4 13.21,-40.83 2.43,-7.29 3.61,-13.1 7.19,-23.05l25.65 -50.36c7.39,-16.81 8.54,-22.62 17.11,-40.83l-82.13 21.76c-45.55,124.88 -100.58,455.62 -107.93,595.04 37.52,-7.92 73.49,-29.74 99.59,-48.65z"/>
   <path class="fil1" d="M374.62 1324.86c-3.66,-9.03 -8.19,-18.16 -11.6,-26.83l-57.04 -151.1c16.68,6.52 3.35,12.24 27.5,27.69 -9.82,-30.47 -20.14,-57.39 -29.59,-90.81 -8.1,-28.63 -19.59,-55.88 -29.06,-82.39 23.37,9.21 20.68,52.86 42.29,64.42l-13.1 -59.12c15.8,9.11 5.7,0.36 17.75,16.49 9.75,13.07 15.1,33.49 31.93,46.71 -2.41,-17.11 -7.24,-60.52 -24.37,-77.06 -23.01,-3.14 -102.46,-120.42 -129.31,-156.42 -17.47,42.74 120.32,463.23 165.86,526.8l5.14 -30.38c0.28,-0.96 1.51,-1.93 1.73,-4.08 0.22,-2.11 1.01,-2.76 1.87,-3.92z"/>
   <path class="fil1" d="M713.61 1401.88c26.67,-36.37 17.31,-41.91 26.5,-63.25 9.2,-21.36 11.27,-1.21 25.89,-56.76 -39.4,3.15 -116.58,51.6 -153.92,69.98 -22.23,-27.25 -66.76,-105.81 -88.18,-117.5 -6.81,55.33 -9.31,129.96 23.65,165.44l13.53 -29.86c14.78,7.45 4.48,0.45 17.12,11.39 15.52,13.42 9.68,18.51 33.88,33.32 15.2,-19.35 12.26,-34.64 23.17,-52.83 14.83,17.82 14.47,34.45 32.02,50.58l22.13 -45.69 24.21 35.18z"/>
   <path class="fil1" d="M921.28 668.4c18.73,-1.03 179.7,-14.9 194.48,-26.2 -79.08,-40.37 -179.11,-142.31 -252.4,-194.04 14.08,27.49 42.15,52.85 66.49,74.15 55.68,48.76 20.95,36.74 20.86,37.12 -6.24,25.99 0.19,11.57 22.95,38.62 -17.33,-9.1 -3.26,-1.95 -14.11,-9.24l-23.18 -14.57c12.83,16.88 43.79,58.05 47.75,70.96 -12.84,2.1 -24.11,4.72 -33.29,7.55l-29.55 15.65z"/>
   <path class="fil2" d="M303.09 1467.95l34.28 -10.14c5.99,8.06 9.06,-12.58 7.17,27.12 13.35,-2.25 2.55,-4.5 13.66,0.78 3.47,66.92 10.99,87.09 29.14,140.95l71.79 165.95c10.19,19.65 20.75,35.8 30.25,54.34 2.58,5.02 10.3,19.85 14.33,27.16l14.08 27.01c8.63,15.7 23.95,36.56 29.63,49.66 -48.42,35.38 -72.37,-41.87 -96.58,-43.98 -39.01,8.81 -27.1,17.76 -41.08,52.62l-50.46 -6.98c-6.74,20.55 3.05,4.2 -16.2,18.04 8.5,21.15 -21.26,-3.27 6.5,27.12 21.69,23.76 76.99,32.29 87.49,58.74 -18.72,13.8 -3.07,10.27 -26.76,13.36 23.71,8.76 25.95,1.99 38.92,-13.58 13.04,-15.66 19.27,-19.69 28.29,-29.56l-32.75 -0.95c-28.04,-4.89 -30.57,-10.77 -48.1,-19.66 -17.06,-8.65 -16.73,1.21 -31.39,-28.53 65.2,33.7 70.65,-20.99 79.57,-41.65l65.69 59.45c32.35,-9.97 -26.7,13.5 13.11,-7.67 18.27,-9.71 -5.6,-2.67 22.72,-9.68 15.89,11.6 65.11,67.27 95.17,-21.65 10.45,10.27 26.92,23.84 40.99,22.16 16.98,-2.02 26.63,-19.5 33.94,-38.78 -16.43,-11.35 -29.97,9.06 -32.74,11.45 -17.57,-2.32 -24.55,-9 -37.35,-8.57 -16.47,0.56 -12.69,9.5 -21.62,8.3 -14.25,-56.71 -0.09,-209.1 6.49,-275.8 -36.73,8.91 -29.3,31.54 -74.91,3.11l-41.81 -19.47 64.22 248.4c14.22,53.08 17.16,49.68 16.81,72.36 -0.02,0.81 -0.58,4.81 -0.62,4.03 -0.03,-0.78 -0.35,2.72 -0.79,4.02 -18.02,-16.86 -29.35,-74.82 -37.18,-101.21l-20.99 -80.21c-13.53,-54.13 -35.5,-141.25 -46.88,-195.5 52.4,51.99 26.76,29.5 68.42,45.94l-13.17 -48.91c-27.21,-99.83 -20.28,-128.75 -35.97,-217.51l-13.66 13.65c-2.31,-12.12 -1.57,-16.25 -8.08,-26.43l-34.21 -53.71c-13.4,14.97 -10.4,35.57 -9.67,57.14 -14.56,-8.77 -11.38,-9.67 -28.24,-16.42 1.29,21.06 4.31,21.93 -3.97,35.71 -6.79,-23.84 -9.89,-30.3 -30.58,-35.1 5.53,50.59 0.89,35.86 21.73,79.5 9.17,19.21 33.86,59.15 36.09,75.69 -15.87,-2.95 -68.2,-46.69 -80.51,-61.19 -1.13,-1.32 -4.38,-5.52 -5.34,-6.69 -18.29,-22.09 -10.2,-4.81 -56.14,-11.49 -26.72,-3.88 -72.47,-21.77 -119.66,-27.36l20.94 32.56c34.84,28.19 76.93,18.21 104.44,11.46 5.99,3.86 10.82,-9.99 1.55,10.6z"/>
   <path class="fil2" d="M686.78 1627.96c17.93,-11.48 12.6,-4.23 16.28,-35.01 7.27,-60.87 26.06,-130.81 30.04,-186.25 -16.7,10.77 -6.39,1.07 -19.49,18.94 -15.48,-19.6 0.09,-9.9 -26.48,-22.15l-19.96 38.27c-21.91,-32.44 -7.9,-23.32 -20.93,-44.42 -19.44,12.76 -9.15,-17.54 -22.93,49.2 -21.77,-13.15 -24.84,-24.11 -40.1,-40.08l-12.93 -11.36c-5.38,7.23 -14.63,22.44 -20.47,27.16 -8.27,6.71 -19.46,2.95 -19.5,2.83 -0.37,-1.15 -2.4,-0.35 -3.43,0.16 10.78,46.08 10.77,80.63 19.15,124.8 8.81,46.43 25.16,84.3 32.89,128.25l107.86 -50.34z"/>
   <path class="fil3" d="M329.33 992.86c17.13,16.54 21.96,59.95 24.37,77.06 -16.83,-13.22 -22.18,-33.64 -31.93,-46.71 -12.05,-16.13 -1.95,-7.38 -17.75,-16.49l13.1 59.12c-21.61,-11.56 -18.92,-55.21 -42.29,-64.42 9.47,26.51 20.96,53.76 29.06,82.39 9.45,33.42 19.77,60.34 29.59,90.81 -24.15,-15.45 -10.82,-21.17 -27.5,-27.69l57.04 151.1c3.41,8.67 7.94,17.8 11.6,26.83 8.82,13.83 8.01,14.26 22.47,28.52l5.05 -30.89 27 20.99 6.04 -84.6c9.93,11.89 14.25,29.35 23.49,46.32 19.6,35.99 7.4,11.97 25.3,1.63 4.79,23.39 8.15,44.47 22.12,58.78l3.11 -168.73c41.25,26.21 68.62,90.14 88.7,100.78 9.49,-100.91 22.26,-197.25 41.3,-292.77l66.06 -276.84 -81.96 -54.71c-37.94,-24.82 -106.67,-88.81 -142.55,-120.11 -41.74,-36.4 -94.68,-99.58 -128.43,-134.43 -78.53,-81.07 -106.8,-135.23 -160.86,-203.08 -6.12,-7.67 -4.65,-5.31 -9.55,-10.19l-7.77 -6.42c-3.34,139.99 29.76,301.81 54.92,421.96 19.63,93.73 96.79,348.01 100.27,371.79z"/>
   <path class="fil3" d="M921.28 668.4l29.55 -15.65c9.18,-2.83 20.45,-5.45 33.29,-7.55 -3.96,-12.91 -34.92,-54.08 -47.75,-70.96l23.18 14.57c10.85,7.29 -3.22,0.14 14.11,9.24 -22.76,-27.05 -29.19,-12.63 -22.95,-38.62 0.09,-0.38 34.82,11.64 -20.86,-37.12 -24.34,-21.3 -52.41,-46.66 -66.49,-74.15 -19.41,-11.16 -30.82,-30.18 -65.01,-57.33 -22.88,-18.16 -43.29,-40.62 -65.76,-59.56 -100.1,-84.39 -13.95,-41.94 -177.91,-68.22 -102.2,-16.38 -200.01,-40.49 -297.21,-72.28 -67.81,-22.17 -29.31,-21.22 -55.3,-34.44 -5.43,-2.76 -7.11,-5.66 -21.97,0.31 -0.58,1.41 -0.91,3.52 -0.97,4.45 -1.54,24.23 10.28,27.75 28.17,50.3 13.38,16.87 21.22,30.86 35.15,48.52 127.1,161.2 177.77,220.18 333.05,353.92 190.89,164.4 102.6,92.86 345.68,54.57z"/>
   <path class="fil3" d="M801.16 714.78c-8.57,18.21 -9.72,24.02 -17.11,40.83l-25.65 50.36c-3.58,9.95 -4.76,15.76 -7.19,23.05 -5.82,17.43 -10.63,23.66 -13.21,40.83 -29.97,6.62 22.74,10.62 -6.06,-3.89 -11.24,-5.66 13.98,-14.73 -4.22,-1.61l-26.06 75.94c-6.43,-18.32 6.56,-61.52 12.49,-89.65 -28.31,44.7 -74.66,286.69 -79.08,351.49l11.11 -22.98c2.09,-6.64 4.88,-22.69 6.39,-30.53 3.51,-18.22 6.72,-32.91 11.4,-48.86l1.15 137.36c13.89,-26.39 16.14,-63.3 23.21,-83.72 1.9,45.91 -9.87,97.45 -0.05,112.79 -8.06,-23.24 13.27,-63.12 15.65,-89.21 1.05,11.06 0.66,17.54 0.97,27.7l5.03 31.91c7.06,19.54 5.1,-23.7 7.04,20.76 0.45,10.19 -3.56,18.59 -6.28,25.58 23.81,-6.94 69.71,-25.92 93.14,-35.93 23.63,-10.09 19.03,-9 29.37,-37.05 40.27,-109.29 142.21,-288.87 204.89,-386.01l100.32 -157.85c-90.59,4.38 -263.63,16.32 -337.25,48.69z"/>
  </g>
 </g>
</svg>
