<?xml version="1.0" encoding="UTF-8"?>
<!DOCTYPE svg PUBLIC "-//W3C//DTD SVG 1.1//EN" "http://www.w3.org/Graphics/SVG/1.1/DTD/svg11.dtd">
<!-- Creator: CorelDRAW 2017 -->
<svg xmlns="http://www.w3.org/2000/svg" xml:space="preserve" width="110.067mm" height="41.4866mm" version="1.1" style="shape-rendering:geometricPrecision; text-rendering:geometricPrecision; image-rendering:optimizeQuality; fill-rule:evenodd; clip-rule:evenodd"
viewBox="0 0 11006.66 4148.66"
 xmlns:xlink="http://www.w3.org/1999/xlink">
 <defs>
  <style type="text/css">
   <![CDATA[
    .fil1 {fill:#FFF212}
    .fil0 {fill:black}
    .fil2 {fill:#EEBA30}
   ]]>
  </style>
 </defs>
 <g id="Capa_x0020_1">
  <metadata id="CorelCorpID_0Corel-Layer"/>
  <g id="_1902139113904">
   <path class="fil0" d="M5332.58 1853.16l30.84 152.12 -67.81 -8.36 8.74 703.41 390.04 -6.47 0.2 -736.59c47.17,11.11 80.62,37.08 92.12,79.02 48.5,29.23 24.76,247.96 26.02,312.47 2.07,106.93 9.17,221.81 6.88,327.58l355.44 8.97 -1.28 -355.83c44.39,-463.57 -151.46,-333.55 -204.1,-522.21l182.84 -133.82c3.03,-72.43 10.36,-356.53 -14.9,-404.78 -7.98,-15.22 -193.74,-183.32 -215.64,-198.8 -106.21,-39 -481.28,-15.83 -618.18,-16.67l1.03 615.79c0.25,102.23 10.55,98.32 27.76,184.17zm-4512.19 1182.08l-1.65 38.15c92.51,-3.08 117.13,18.79 187.58,24.11 48.05,-49.41 69.21,-68.31 122.71,-116.78 58.52,-53.02 33.49,-109.41 66.51,-175.47 93.13,-412.69 46.15,-14.27 439.15,-451.09 175.37,-194.93 130.52,-251.01 162.24,-515.17 18.49,-154.06 66.48,-438.92 -153.69,-455.75 -39.8,-3.04 -469.75,119.33 -533.83,141.65l-289.02 1510.35zm8586.84 -282.81l-28.14 6.93c2.38,69.39 14.77,162.06 26.48,231 13.79,81.28 53.99,82.22 81.2,153.73 91.96,55.68 205.32,73.79 311.61,128.17 147.6,75.53 135.51,138.28 231.27,218.76l69.94 -37.51c3.56,-46.01 64.59,-95.66 88.25,-141.4 2.93,-12.25 -80.56,-519.84 -151.41,-588.27 -75.61,-73.01 -350.08,-285.29 -382.45,-345.73 -85.8,-38.96 -83.72,-75.52 -97.71,-165.91 -12.47,-80.6 -31.21,-158.81 -29.39,-239.5 141.35,29.04 114.64,136.64 154.69,257.09l254.69 66.42 4.04 -40.56c-16.38,-26.85 -26.78,-178.64 -62.59,-237 -28.99,-47.28 -101.38,-121.1 -141.46,-169.94 -70.98,-86.49 -55.69,-99.16 -175.87,-133.4 -73.32,-20.89 -166.82,-50.81 -241.69,-67.2 -173.65,204.39 -139.25,96.75 -85.2,489.26 24.75,179.73 -2.06,138.74 112.1,271.25 53.63,62.26 122.99,145.99 180.59,202.1 59.44,57.91 159.88,80.96 231.37,138.08l79.89 357.1c-154.94,-57.9 -105.63,-124.79 -148.16,-259.75 -63.62,-44.37 -202.09,-65.27 -282.05,-93.72zm-6527.11 -1109.11l7.08 -217.16c-70.91,-8.64 -110.56,15.83 -183.51,19.65l-135.21 1274.07 248.67 -27.52 39.44 -626.83 60.54 42.41c81.85,15.66 50.21,187.54 50.61,254.99 0.55,96.88 -2.92,206.36 3.49,301.64l93.84 10.5 129.19 -41.71 11.46 -565.43 -123.07 -75.72 175.07 -606.83c-75.66,-35.31 -103.53,-12.44 -249.58,11.86l-73.55 495.7 -60.27 -8.02 5.8 -241.6zm-385.89 124.81c33.41,-355.69 -393,-231.27 -525.86,-2.86 -31.12,53.48 -130.23,734.39 -138.35,840.18 -26.33,343.36 369.3,244.06 543.73,21.25 80.68,-103.06 104.74,-691.09 120.48,-858.57zm6082.29 114.7l118.82 763.41c8.19,68.15 31.65,279.45 60.64,324.06l176.41 44.26 -25.37 -230.57c-7.52,-98.25 -43.63,-193.28 -37.03,-291.53l106.77 69.17 10.11 70.77 62.03 392.8 18.89 31.47 116.3 26.87 67.42 8.12 -20.45 -193.38c3.43,-34.24 -30.42,-241.67 -43.9,-277.36 -23.75,-62.85 -96.31,-122.01 -124.41,-187.07 44.51,-119.61 85.68,-39.51 52.08,-220.98 -12.57,-67.86 -17.92,-168.5 -58.76,-221.67 -95.22,-123.98 -168.89,-228.48 -341.73,-218.45l-149.6 -21.69 11.78 131.77zm-1733.09 -111.09l24.89 97.7c11.06,126.37 39.86,722.78 59.59,746.43 41.39,26.55 138.72,23.99 196.47,14.31 -7.84,-82.93 -53.75,-387.17 -14.67,-442.04 50.22,40.06 108.14,311.55 137.26,412.34 22.24,77.01 29.06,65.42 105.65,72.76 21.65,-31.56 78.07,48.94 75.35,-18.48l-27.79 -292.69c0.91,-103.65 -68.01,-823.27 -93.42,-887.5l-181.83 -9.17c-13.39,230.02 56.29,373.02 -0.01,436.86 -71.37,-101.4 -80.77,-357.74 -155.91,-461.11l-133.46 -12.05c-5.65,100.81 32.75,266.24 7.88,342.64zm-558.74 895.8c61.63,-6.14 113.78,-6.03 177.55,9.44l53.27 -318.01 92.01 12.99 -7.29 299.38 199.61 32.09 -159.29 -1297.07c-83.3,-11.71 -215.66,-20.24 -293.08,-3.7 -20.58,87.68 -79.68,1188.13 -62.78,1264.88zm2186.2 211.05l128.61 20.17 -22.06 -182.85c-7.77,-55.77 -81.92,-14.85 -174.5,-73.5l-42.07 -323.63 124.71 16.25c6.15,-252.46 -62.1,-207.08 -148.63,-234.2 -24.34,-47.5 -35.57,-110.86 -34.69,-166.35 -31.74,-44.32 -26.11,-16.19 -21.45,-82.44 56.86,-24.46 78.6,2.82 149.72,0.27l-4.92 -78.82 -18.23 -98.79 -232.58 -42.53 -117.01 -13.72 146.31 1199.65c53.07,33.75 199.28,62.45 266.79,60.49zm-772.2 -425.22c33.41,-273.21 -131.55,-681.05 5.47,-778.7 97.08,112.37 46.32,153.87 64.47,287.3 50.37,29.8 127.91,37.12 186.22,28.18 10.87,-276.98 -3.99,-252.71 -164.61,-442.12l-243.82 -35.13 -111.37 142.06 76.48 760.45c76.35,275.96 238.9,356.49 449.23,328.75 94.64,-54.3 99.3,-165.32 85.24,-259.78 -45.45,-305.47 26.28,-365.91 -284.08,-362.17 -12.45,104.4 -1.99,130.85 49.45,195.96 47.27,13.06 32.81,43.33 37,101.17 4.45,61.23 23.16,81.06 -26.05,108.33l-7.88 21.18 -48.92 -5.55 -66.83 -89.93zm-4222.76 -1237.99c29.8,62.99 52.44,35.24 116.93,7.56 47.67,-20.47 110.02,-39.74 148.43,-67.01l-54.63 -75.1c-40.95,9.83 -191.53,98.52 -210.73,134.55zm451.44 283.6l1.9 -57.19 -32.31 -18.36c-335.24,-188.18 -542.54,-46.47 -555.71,324.95 -12.48,351.74 -88.12,628.31 88.62,909.32 364.25,13.45 509.83,-187.15 475.05,-545.5l-185.3 12.21 -90.98 343.3 -60.56 -8.08 -9.2 -473.88 340.66 -51.59 27.83 -435.18zm4910.13 797.26c-28.79,-57.69 -46.82,-263.74 -45.27,-335.93 115.65,28.24 129.17,182.21 121.18,290.35 -40.91,36.21 -26.38,34.12 -75.91,45.58zm-5253.26 -792.12c11.15,-41.28 8.33,-40.38 43.79,-65.1l50.41 85.03c31.66,33.95 21.22,28.14 21.1,87.9 -0.42,212.83 34.76,307.37 -133.64,273.54 -6.96,-33.76 -30.1,-345.36 18.34,-381.37zm-1474.71 1128.74c-72.8,-102.24 -5.05,-327.8 12.63,-452.09 13.83,-97.16 18.65,-387.35 117.27,-412.11 66,69.32 4.58,291.88 -16.68,447.04 -22.49,164.21 -20.98,370.92 -113.22,417.16zm-808.96 -334.22c-18.19,-93.98 41.89,-318.32 61.37,-452.08 23.86,-163.94 20.11,-111.47 54.95,-131.71 76.95,38.31 56.76,78.34 41.9,165.78 -27.03,159.05 -35.89,370.57 -158.22,418.01zm4372.3 -962.84c41.56,2.37 90.31,35.4 126.04,63.35l-4.31 242.5c-35.14,34.3 -71.54,76.78 -122.02,76.31l0.29 -382.16zm790.27 814.26c-6.3,-72.39 2.54,-428.05 24.2,-479.53 60.68,14.39 42,79.98 52.04,152.42 32.27,232.81 100.61,421.75 -76.24,327.11z"/>
   <path class="fil1" d="M4519.99 2142.45l-11.49 34.79 -125.2 -53.93 -97.83 -49.21 -161.27 -74.46c13.08,43.91 69.46,98.58 111.26,124.04l463.82 474.73 381.2 472.38c-14.25,-91.33 -283.4,-504.66 -279.88,-581.67 66.44,20.9 169.31,181.37 237.37,207.18l-69.66 -135.64c-31.3,-47.28 -92.27,-80.19 -92.91,-137.98 110.6,-0.1 220.21,105.71 337.15,103.53l-365.14 -733.96 30.31 -3.67 417.14 152.33c-2.36,-82.43 -245.64,-792.96 -284.34,-878.28 -52.38,-36.69 -110.48,-229.71 -119.9,-270.5 -9.36,-40.48 -7.5,-51.25 -29.7,-94.59l-1141.16 -39.89c18.52,51.52 304.64,389.46 359.54,445.58 66.87,68.36 122.45,148.39 180.44,215.72 52.8,61.29 160.61,149.59 145.34,235.81 -63.59,28.86 -244.63,-55.64 -328.08,-54.08 33.79,85.21 177.06,236.71 233.76,319.03l209.23 322.74z"/>
  </g>
  <path class="fil2" d="M4445.4 2087.24l-11.24 34.04 -122.52 -52.77 -95.73 -48.16 -157.82 -72.87c12.8,42.98 67.97,96.48 108.88,121.39l453.88 464.56 373.04 462.27c-13.94,-89.38 -277.33,-493.86 -273.88,-569.21 65.02,20.45 165.68,177.48 232.28,202.74l-68.17 -132.74c-30.63,-46.26 -90.28,-78.47 -90.91,-135.03 108.23,-0.09 215.49,103.45 329.92,101.32l-357.31 -718.24 29.66 -3.6 408.2 149.08c-2.31,-80.67 -240.37,-775.98 -278.25,-859.47 -51.25,-35.91 -108.12,-224.8 -117.34,-264.71 -9.15,-39.62 -7.33,-50.15 -29.06,-92.56l-1116.72 -39.04c18.12,50.41 298.12,381.11 351.84,436.04 65.45,66.89 119.83,145.21 176.58,211.1 51.67,59.97 157.17,146.39 142.23,230.75 -62.23,28.24 -239.39,-54.45 -321.06,-52.92 33.07,83.39 173.27,231.64 228.76,312.2l204.74 315.83z"/>
 </g>
</svg>
