<?xml version="1.0" encoding="UTF-8"?>
<!DOCTYPE svg PUBLIC "-//W3C//DTD SVG 1.1//EN" "http://www.w3.org/Graphics/SVG/1.1/DTD/svg11.dtd">
<!-- Creator: CorelDRAW 2017 -->
<svg xmlns="http://www.w3.org/2000/svg" xml:space="preserve" width="9.5672mm" height="2.8786mm" version="1.1" style="shape-rendering:geometricPrecision; text-rendering:geometricPrecision; image-rendering:optimizeQuality; fill-rule:evenodd; clip-rule:evenodd"
viewBox="0 0 956.72 287.86"
 xmlns:xlink="http://www.w3.org/1999/xlink">
 <defs>
  <style type="text/css">
   <![CDATA[
    .fil1 {fill:#FFF212}
    .fil0 {fill:black}
    .fil2 {fill:#EEBA30}
   ]]>
  </style>
 </defs>
 <g id="Capa_x0020_1">
  <metadata id="CorelCorpID_0Corel-Layer"/>
  <g id="_2368215602576">
   <g>
    <path class="fil0" d="M460.91 122.54l3.15 15.54 -6.93 -0.86 0.9 71.86 39.84 -0.66 0.02 -75.25c4.82,1.14 8.24,3.79 9.41,8.08 4.96,2.98 2.53,25.33 2.66,31.92 0.21,10.92 0.94,22.66 0.71,33.46l36.31 0.92 -0.13 -36.35c4.53,-47.36 -15.48,-34.08 -20.85,-53.35l18.67 -13.67c0.31,-7.4 1.06,-36.43 -1.52,-41.35 -0.81,-1.56 -19.79,-18.73 -22.03,-20.31 -10.85,-3.99 -49.16,-1.62 -63.15,-1.71l0.11 62.91c0.02,10.45 1.07,10.05 2.83,18.82zm-460.96 120.76l-0.17 3.9c9.45,-0.32 11.97,1.91 19.16,2.46 4.91,-5.05 7.07,-6.98 12.54,-11.93 5.98,-5.42 3.42,-11.18 6.79,-17.93 9.52,-42.16 4.72,-1.46 44.87,-46.08 17.91,-19.92 13.33,-25.64 16.57,-52.63 1.89,-15.74 6.79,-44.84 -15.7,-46.56 -4.07,-0.31 -47.99,12.19 -54.54,14.47l-29.52 154.3zm877.22 -28.89l-2.87 0.7c0.24,7.09 1.51,16.56 2.71,23.6 1.4,8.31 5.51,8.4 8.29,15.71 9.4,5.69 20.98,7.54 31.84,13.09 15.07,7.72 13.84,14.13 23.62,22.35l7.15 -3.83c0.36,-4.7 6.59,-9.77 9.01,-14.45 0.3,-1.25 -8.23,-53.1 -15.47,-60.09 -7.72,-7.46 -35.76,-29.15 -39.07,-35.32 -8.76,-3.98 -8.55,-7.72 -9.98,-16.95 -1.27,-8.24 -3.19,-16.23 -3,-24.47 14.44,2.97 11.71,13.96 15.8,26.26l26.02 6.79 0.41 -4.14c-1.67,-2.75 -2.73,-18.25 -6.39,-24.22 -2.96,-4.83 -10.36,-12.37 -14.45,-17.36 -7.25,-8.83 -5.69,-10.13 -17.97,-13.63 -7.49,-2.13 -17.04,-5.19 -24.69,-6.86 -17.74,20.88 -14.23,9.88 -8.7,49.98 2.52,18.36 -0.21,14.18 11.45,27.71 5.48,6.36 12.56,14.92 18.45,20.65 6.07,5.91 16.33,8.27 23.63,14.11l8.16 36.48c-15.82,-5.92 -10.79,-12.75 -15.13,-26.54 -6.5,-4.53 -20.65,-6.67 -28.82,-9.57zm-666.8 -113.31l0.72 -22.18c-7.24,-0.89 -11.29,1.61 -18.74,2l-13.82 130.16 25.41 -2.81 4.03 -64.04 6.18 4.34c8.36,1.6 5.13,19.15 5.17,26.04 0.06,9.9 -0.3,21.09 0.36,30.82l9.58 1.07 13.2 -4.26 1.17 -57.76 -12.57 -7.74 17.88 -61.99c-7.72,-3.61 -10.57,-1.27 -25.49,1.21l-7.52 50.64 -6.15 -0.82 0.59 -24.68zm-39.42 12.75c3.41,-36.34 -40.15,-23.63 -53.72,-0.29 -3.18,5.46 -13.31,75.02 -14.14,85.83 -2.69,35.08 37.73,24.93 55.55,2.17 8.24,-10.53 10.7,-70.6 12.31,-87.71zm621.36 11.72l12.14 77.99c0.84,6.96 3.23,28.55 6.19,33.1l18.03 4.53 -2.6 -23.56c-0.76,-10.04 -4.45,-19.75 -3.78,-29.78l10.91 7.06 1.03 7.23 6.34 40.13 1.93 3.22 11.88 2.74 6.89 0.83 -2.09 -19.75c0.35,-3.5 -3.11,-24.69 -4.49,-28.34 -2.42,-6.42 -9.84,-12.46 -12.71,-19.11 4.55,-12.22 8.76,-4.04 5.32,-22.57 -1.28,-6.94 -1.83,-17.22 -6,-22.65 -9.73,-12.67 -17.25,-23.34 -34.91,-22.32l-15.28 -2.21 1.2 13.46zm-177.05 -11.35l2.54 9.98c1.13,12.91 4.07,73.84 6.09,76.26 4.23,2.71 14.17,2.45 20.07,1.46 -0.8,-8.48 -5.49,-39.56 -1.5,-45.16 5.13,4.09 11.05,31.83 14.02,42.12 2.28,7.87 2.97,6.69 10.8,7.44 2.21,-3.23 7.97,5 7.69,-1.89l-2.83 -29.9c0.09,-10.59 -6.95,-84.11 -9.55,-90.67l-18.57 -0.94c-1.37,23.5 5.75,38.11 0,44.63 -7.3,-10.36 -8.26,-36.54 -15.93,-47.1l-13.64 -1.24c-0.57,10.3 3.35,27.2 0.81,35.01zm-57.08 91.51c6.29,-0.62 11.62,-0.61 18.14,0.97l5.44 -32.49 9.4 1.33 -0.75 30.58 20.4 3.28 -16.28 -132.51c-8.51,-1.19 -22.03,-2.06 -29.94,-0.38 -2.1,8.96 -8.14,121.38 -6.41,129.22zm223.34 21.56l13.14 2.06 -2.26 -18.67c-0.79,-5.7 -8.36,-1.52 -17.82,-7.51l-4.3 -33.07 12.74 1.66c0.63,-25.79 -6.34,-21.15 -15.18,-23.92 -2.49,-4.85 -3.64,-11.33 -3.55,-16.99 -3.24,-4.53 -2.67,-1.66 -2.19,-8.43 5.81,-2.5 8.03,0.29 15.3,0.03l-0.51 -8.05 -1.86 -10.09 -23.76 -4.35 -11.95 -1.4 14.94 122.56c5.43,3.44 20.36,6.37 27.26,6.17zm-78.89 -43.44c3.41,-27.91 -13.44,-69.57 0.56,-79.55 9.92,11.48 4.73,15.72 6.59,29.35 5.14,3.05 13.06,3.8 19.02,2.88 1.11,-28.29 -0.41,-25.81 -16.82,-45.16l-24.9 -3.59 -11.38 14.51 7.81 77.69c7.8,28.19 24.41,36.41 45.89,33.58 9.67,-5.55 10.15,-16.89 8.71,-26.54 -4.64,-31.2 2.69,-37.38 -29.02,-37 -1.27,10.67 -0.2,13.37 5.05,20.02 4.83,1.34 3.36,4.43 3.78,10.34 0.46,6.25 2.37,8.28 -2.66,11.06l-0.8 2.17 -5 -0.57 -6.83 -9.19zm-431.39 -126.47c3.04,6.44 5.35,3.6 11.94,0.77 4.87,-2.09 11.24,-4.06 15.17,-6.84l-5.58 -7.67c-4.19,1 -19.57,10.06 -21.53,13.74zm46.12 28.97l0.19 -5.84 -3.3 -1.87c-34.25,-19.23 -55.43,-4.75 -56.77,33.19 -1.28,35.94 -9,64.19 9.05,92.9 37.21,1.37 52.09,-19.12 48.53,-55.73l-18.93 1.25 -9.29 35.07 -6.19 -0.83 -0.94 -48.41 34.8 -5.27 2.85 -44.46zm501.61 81.45c-2.94,-5.89 -4.78,-26.94 -4.62,-34.32 11.81,2.89 13.19,18.62 12.38,29.67 -4.18,3.69 -2.7,3.48 -7.76,4.65zm-536.67 -80.92c1.14,-4.22 0.85,-4.13 4.48,-6.65l5.15 8.69c3.23,3.46 2.16,2.87 2.15,8.97 -0.04,21.75 3.55,31.41 -13.65,27.95 -0.71,-3.45 -3.08,-35.28 1.87,-38.96zm-150.65 115.31c-7.44,-10.44 -0.52,-33.49 1.29,-46.18 1.41,-9.93 1.9,-39.58 11.98,-42.1 6.74,7.08 0.46,29.81 -1.71,45.66 -2.29,16.78 -2.14,37.9 -11.56,42.62zm-82.65 -34.14c-1.85,-9.6 4.28,-32.52 6.27,-46.19 2.44,-16.74 2.06,-11.39 5.62,-13.45 7.86,3.91 5.8,8 4.28,16.93 -2.76,16.25 -3.67,37.86 -16.17,42.71zm446.68 -98.37c4.24,0.25 9.22,3.62 12.87,6.48l-0.44 24.77c-3.59,3.5 -7.31,7.84 -12.46,7.8l0.03 -39.05zm80.73 83.19c-0.65,-7.4 0.26,-43.73 2.47,-48.99 6.2,1.47 4.29,8.17 5.32,15.57 3.29,23.78 10.28,43.09 -7.79,33.42z"/>
    <path class="fil1" d="M377.9 152.09l-1.18 3.55 -12.79 -5.5 -9.99 -5.03 -16.48 -7.61c1.34,4.49 7.1,10.07 11.37,12.67l47.38 48.5 38.95 48.26c-1.46,-9.33 -28.96,-51.56 -28.6,-59.42 6.79,2.13 17.3,18.53 24.25,21.16l-7.11 -13.86c-3.2,-4.82 -9.43,-8.19 -9.49,-14.09 11.29,-0.01 22.49,10.8 34.44,10.58l-37.3 -74.99 3.09 -0.37 42.62 15.56c-0.24,-8.42 -25.1,-81.01 -29.05,-89.72 -5.35,-3.75 -11.29,-23.47 -12.25,-27.64 -0.96,-4.13 -0.76,-5.23 -3.03,-9.66l-116.58 -4.08c1.89,5.27 31.12,39.79 36.73,45.52 6.83,6.99 12.51,15.16 18.43,22.04 5.39,6.26 16.41,15.29 14.85,24.09 -6.5,2.95 -24.99,-5.68 -33.52,-5.52 3.45,8.7 18.09,24.18 23.88,32.59l21.38 32.97z"/>
   </g>
   <path class="fil2" d="M370.28 146.45l-1.15 3.48 -12.52 -5.39 -9.78 -4.92 -16.12 -7.45c1.31,4.39 6.94,9.86 11.12,12.4l46.37 47.46 38.11 47.23c-1.42,-9.13 -28.33,-50.45 -27.98,-58.15 6.64,2.09 16.93,18.13 23.73,20.71l-6.96 -13.56c-3.13,-4.73 -9.23,-8.02 -9.29,-13.79 11.06,-0.01 22.01,10.56 33.7,10.35l-36.5 -73.38 3.03 -0.37 41.7 15.23c-0.23,-8.24 -24.55,-79.27 -28.42,-87.8 -5.24,-3.67 -11.05,-22.97 -11.99,-27.04 -0.94,-4.05 -0.75,-5.13 -2.97,-9.46l-114.08 -3.99c1.85,5.15 30.45,38.94 35.94,44.55 6.69,6.83 12.24,14.83 18.04,21.56 5.28,6.13 16.06,14.96 14.53,23.58 -6.36,2.88 -24.46,-5.56 -32.8,-5.41 3.38,8.52 17.7,23.67 23.37,31.9l20.92 32.26z"/>
  </g>
 </g>
</svg>
