<?xml version="1.0" encoding="UTF-8"?>
<!DOCTYPE svg PUBLIC "-//W3C//DTD SVG 1.1//EN" "http://www.w3.org/Graphics/SVG/1.1/DTD/svg11.dtd">
<!-- Creator: CorelDRAW 2017 -->
<svg xmlns="http://www.w3.org/2000/svg" xml:space="preserve" width="41.4018mm" height="45.0426mm" version="1.1" style="shape-rendering:geometricPrecision; text-rendering:geometricPrecision; image-rendering:optimizeQuality; fill-rule:evenodd; clip-rule:evenodd"
viewBox="0 0 4140.18 4504.26"
 xmlns:xlink="http://www.w3.org/1999/xlink">
 <defs>
  <style type="text/css">
   <![CDATA[
    .fil0 {fill:none}
    .fil2 {fill:#000100}
    .fil1 {fill:#FEFE01}
    .fil3 {fill:yellow}
   ]]>
  </style>
 </defs>
 <g id="Capa_x0020_1">
  <metadata id="CorelCorpID_0Corel-Layer"/>
  <rect class="fil0" x="-0.01" width="4140.19" height="4504.26"/>
  <g id="_2368211900096">
   <path class="fil1" d="M2220.06 1336.82c26.23,0.9 27.68,-1.95 46.95,-11.69 48.19,-24.35 109.68,-22.96 161.33,-39.47l39.49 -10.99c94.34,-16.64 186.61,-49.32 281,-60.17 4.55,-0.53 11.35,-1.02 15.41,-2.09 12.26,-3.24 6.89,-5.72 14.53,-5.24l38.59 -3.55c30.94,-8.15 188.08,-33.77 216.27,-26.94 -5.82,14.63 -44.52,35.39 -60.91,40.36l-147.66 21.48c-13.26,2.58 -9.73,3.47 -26.17,6.87 -85,17.56 -174.21,21.82 -256.69,45 -17.42,4.9 -37.1,10.43 -53.93,13.57l-259.16 66.93c-30.42,10.27 -19.69,13.73 -28.94,40.19 13.77,0.77 21.07,-0.45 31.49,-4.24l41.32 -13.31c7.01,-2.7 8.15,-3.07 15.95,-5.25l125.01 -33.63c17.19,-3.85 19.54,-5.82 32.88,-9.02 15.5,-3.73 36.34,-0.88 59.03,-7.64 34.81,-10.36 149.18,-38.11 183.08,-37.58 -7.38,17.11 -30.87,26.92 -46.07,35.78 -32.38,18.87 -30.86,11.83 -68.98,19.13 -58.79,11.26 -212.53,50.27 -275.85,72.05l-96.55 32.66c-20.28,7.08 -17.79,3.44 -20.78,28.94 34.78,-3.44 37.29,-8.46 64.45,-18.68 21.6,-8.13 176.79,-49.48 201.4,-50.73 5.3,-13.56 -3.41,6.43 0,-6.64 29.6,-2.98 22.9,-5.38 49.55,-0.29 -12.24,47.79 -79.53,54.79 -121.33,60.95 -21.62,3.19 -28.4,9.13 -48.42,14.86 -34.78,9.93 -64.17,16.33 -94.53,28.41 -8.68,3.45 -12.79,5.9 -20.32,8.81 -13.21,5.11 -13.87,2.71 -26.38,7.2 -17.75,6.37 -23.61,15.89 -24.56,39.36 41.98,-1.47 73.44,-29.77 88.98,-33.31 12.08,-2.74 31.79,-2.95 45.03,-2.95 -3.83,31.42 -16.11,39.54 -40.53,48.95 -67.7,26.1 -104.39,13.65 -111.48,63.9 -9.57,67.94 -41.46,247.64 -42.07,298 -0.13,11.16 -2.81,15.67 -3.91,26.73 -6.35,63.7 -17.73,134.48 -19.11,189.67 -1.2,47.82 -13.14,105.5 -14.45,159.09l-9.73 239.33c-0.33,22.68 -6.99,50.18 3.4,73.16l158.69 -74.15c14.33,-4.83 28.98,-7.99 42.52,-15.97l79.99 -37.33c2.98,-1.51 17.3,-7.49 20.3,-9.23l8.31 -9.63c0.08,-0.2 0.07,-1.23 0.4,-1.73 29.18,-0.85 74.18,-18.83 99.84,-30.42 20.68,-9.34 8.53,3.68 18.85,-15.45 32.98,-61.15 55.45,-150.49 80.24,-216.76 6.14,-16.41 12.8,-29.49 19.42,-47.45 38.15,-103.44 68.7,-183.91 113.35,-286.05 13.34,-30.5 22.55,-61.77 38.19,-95.9 6.6,-14.39 12.89,-32.58 18.8,-44.03 23.34,-45.18 40.69,-91.14 65.64,-135.37 7.78,-13.79 12.39,-29.02 19.45,-43.28 5.04,-10.21 7.93,-14 12.28,-22.17 0.6,-1.12 2.18,-4.39 2.76,-5.48l8.99 -15.45c17.26,-28.9 37.01,-54.15 50.42,-84.87l81.9 -131.79c5.3,-8.46 1.04,-2.2 7.18,-9.07l127.91 -170.61c-47.13,-4.9 -121.92,21.12 -172.94,22.45 -41.02,1.07 -27.96,10.37 -55.8,13.39l-480.78 90.19 -160.41 45.13c-22.78,6.75 -36.66,8.97 -42.13,33.06z"/>
   <path class="fil2" d="M1939.95 3584.74c20.56,-30.81 54.03,-41.63 96.21,-58.65 75.61,-30.51 55.66,-53.95 83.22,-70.88 1.12,14.6 2.57,21.35 4.38,31.87l7.88 221.19c2.06,119.55 20.06,228.02 33.49,346.62 2.02,17.86 20.87,169.52 17.32,175.23 -12.77,-16.86 -19.94,-45.08 -28.92,-66.63 -9.41,-22.62 -17.01,-45.24 -26.87,-69.43 -10.83,-26.57 -161.27,-409.43 -158.99,-420.99 14.07,-26.3 64.81,-34.03 60.52,-67.22 -3.17,-24.56 -24.28,-3.53 -34.86,3.9 -5.62,3.94 -11.54,8.74 -18.03,11.9l-20.21 1.68c-5.9,-20.54 38.78,-22.45 69.9,-44.92 2.67,-1.92 4.82,-3.51 7.14,-5.21 18.29,-13.35 31.81,-22.19 35.31,-44.84 -16.26,1.92 -54.7,20.4 -70.16,27.1 -23.81,10.32 -40.01,28.36 -57.33,29.28zm-49.78 -735.15c0.17,-24.97 1.79,-16.24 23.71,-28.32 11.94,-6.58 19.26,-13.04 30.86,-19.36 42.91,-23.39 38.67,-29.84 59.11,-41.4 12.82,-7.26 21.69,-7.04 37.78,-16.79 11.45,-6.93 21.32,-11.04 32.68,-17.54 51.93,-29.69 87.06,-42.5 143.07,-62.32 50.02,-17.69 35.63,-10.77 57.06,-43.62 21.95,-33.65 27.29,-52.34 44.28,-61 19.94,-10.17 49.43,-24.41 73.8,-27.08 -8.42,45.88 -59.58,195.59 -63.77,252.49 -0.66,9.08 3.41,16.96 1.27,27.61 -0.15,0.76 -0.55,1.93 -0.75,2.67 -15.8,57.16 -26.91,185.7 -26.94,241.54l-1.21 40.67c-6.88,25.71 -0.52,63.38 -3.38,97.15l-3.91 96.03c-3.14,35.44 -17.2,24.24 -42.17,36.93 -11.67,5.93 -21.19,10.94 -33.01,17.24l-174.85 86.08c-12.77,5.26 1.48,4.77 -13.7,4.93 3.97,-7.18 -1.67,-11.77 -5.36,-25.07 -1.98,-7.09 -4.75,-19.23 -7.02,-26.4 -5.99,-18.88 -8.42,-34.33 -13.52,-53.57 -11.86,-44.75 -81.62,-285.66 -73.94,-324.32 5.47,-27.57 62.05,-22.24 59.46,-88.14 -25.16,-0.73 -15.84,3 -33,17.79l-4.89 3.67c-13.59,9.81 -27.13,22.46 -44.35,18.85 -0.27,-15.1 0.43,-12.52 10.75,-18.61 32.42,-19.13 119.85,-65.44 111.88,-108.25 -19.03,-1.7 -51.87,21.59 -64.54,33.22 -4.3,3.96 -47.97,33.87 -58.46,34.89 -1.63,-17.33 9.88,-20.62 23.34,-28.4 36.56,-21.13 66.89,-46.33 102.32,-61.02 47.4,-19.67 101.75,-44.9 114.81,-95.93 -30.18,0 -42.28,12.83 -69.88,27.86 -24.16,13.16 -42.81,20.12 -64.78,35.83 -21.1,15.08 -37.25,28.3 -60.25,40.25 -16.97,8.83 -47.62,30.63 -62.5,31.44zm329.89 -1512.77c5.47,-24.09 19.35,-26.31 42.13,-33.06l160.41 -45.13 480.78 -90.19c27.84,-3.02 14.78,-12.32 55.8,-13.39 51.02,-1.33 125.81,-27.35 172.94,-22.45l-127.91 170.61c-6.14,6.87 -1.88,0.61 -7.18,9.07l-81.9 131.79c-13.41,30.72 -33.16,55.97 -50.42,84.87l-8.99 15.45c-0.58,1.09 -2.16,4.36 -2.76,5.48 -4.35,8.17 -7.24,11.96 -12.28,22.17 -7.06,14.26 -11.67,29.49 -19.45,43.28 -24.95,44.23 -42.3,90.19 -65.64,135.37 -5.91,11.45 -12.2,29.64 -18.8,44.03 -15.64,34.13 -24.85,65.4 -38.19,95.9 -44.65,102.14 -75.2,182.61 -113.35,286.05 -6.62,17.96 -13.28,31.04 -19.42,47.45 -24.79,66.27 -47.26,155.61 -80.24,216.76 -10.32,19.13 1.83,6.11 -18.85,15.45 -25.66,11.59 -70.66,29.57 -99.84,30.42 -0.33,0.5 -0.32,1.53 -0.4,1.73l-8.31 9.63c-3,1.74 -17.32,7.72 -20.3,9.23l-79.99 37.33c-13.54,7.98 -28.19,11.14 -42.52,15.97l-158.69 74.15c-10.39,-22.98 -3.73,-50.48 -3.4,-73.16l9.73 -239.33c1.31,-53.59 13.25,-111.27 14.45,-159.09 1.38,-55.19 12.76,-125.97 19.11,-189.67 1.1,-11.06 3.78,-15.57 3.91,-26.73 0.61,-50.36 32.5,-230.06 42.07,-298 7.09,-50.25 43.78,-37.8 111.48,-63.9 24.42,-9.41 36.7,-17.53 40.53,-48.95 -13.24,0 -32.95,0.21 -45.03,2.95 -15.54,3.54 -47,31.84 -88.98,33.31 0.95,-23.47 6.81,-32.99 24.56,-39.36 12.51,-4.49 13.17,-2.09 26.38,-7.2 7.53,-2.91 11.64,-5.36 20.32,-8.81 30.36,-12.08 59.75,-18.48 94.53,-28.41 20.02,-5.73 26.8,-11.67 48.42,-14.86 41.8,-6.16 109.09,-13.16 121.33,-60.95 -26.65,-5.09 -19.95,-2.69 -49.55,0.29 -3.41,13.07 5.3,-6.92 0,6.64 -24.61,1.25 -179.8,42.6 -201.4,50.73 -27.16,10.22 -29.67,15.24 -64.45,18.68 2.99,-25.5 0.5,-21.86 20.78,-28.94l96.55 -32.66c63.32,-21.78 217.06,-60.79 275.85,-72.05 38.12,-7.3 36.6,-0.26 68.98,-19.13 15.2,-8.86 38.69,-18.67 46.07,-35.78 -33.9,-0.53 -148.27,27.22 -183.08,37.58 -22.69,6.76 -43.53,3.91 -59.03,7.64 -13.34,3.2 -15.69,5.17 -32.88,9.02l-125.01 33.63c-7.8,2.18 -8.94,2.55 -15.95,5.25l-41.32 13.31c-10.42,3.79 -17.72,5.01 -31.49,4.24 9.25,-26.46 -1.48,-29.92 28.94,-40.19l259.16 -66.93c16.83,-3.14 36.51,-8.67 53.93,-13.57 82.48,-23.18 171.69,-27.44 256.69,-45 16.44,-3.4 12.91,-4.29 26.17,-6.87l147.66 -21.48c16.39,-4.97 55.09,-25.73 60.91,-40.36 -28.19,-6.83 -185.33,18.79 -216.27,26.94l-38.59 3.55c-7.64,-0.48 -2.27,2 -14.53,5.24 -4.06,1.07 -10.86,1.56 -15.41,2.09 -94.39,10.85 -186.66,43.53 -281,60.17l-39.49 10.99c-51.65,16.51 -113.14,15.12 -161.33,39.47 -19.27,9.74 -20.72,12.59 -46.95,11.69zm-1247.47 -1155.94c7.75,13.77 16.33,17.58 26.16,29.22 4.17,4.94 2.93,3.86 5.5,7.3 40.48,53.94 111.34,131.91 159.77,192.33 10.61,13.23 18.98,21.15 29.46,33.6 9.8,11.65 18.47,19.23 28.36,29.99l144.66 161.42c19.66,19.79 38.17,43.08 60.29,61.1 33.4,27.22 59.34,61.39 92.01,88.57 8.29,6.9 7.58,5.89 15.2,13.78l141.99 134.26c15.17,11.32 21.89,16.07 33.06,26.41 10.89,10.07 23.16,19.06 33.7,29.53l133.48 109.44c22.73,14.91 44.58,36.34 68.48,53.01l182.67 119.57c3.43,2.35 14.69,8.83 18.81,10.7 55.32,25.12 35.83,32.25 35.1,71.2l-3.69 13.24c-5.76,11.42 -18.57,75.07 -22.68,94.41 -14.06,66.08 -33.49,130.61 -45.37,197.72l-23.76 195.06c-9.16,106.6 -34.1,214.11 -38.9,318.07l-15.29 249.33c-5.44,25.37 -4.84,58.99 -6.63,86.32 -1.24,18.85 -2.03,37.55 -3.21,59.36 -0.73,13.42 2.21,28.65 -3.83,40.61 -5.19,10.29 -2.25,5.12 -9.08,11.96 -17.37,-32.63 -52.92,-49.27 -74.25,-77.41 -7.28,-9.6 -13.27,-19.27 -21.93,-28.35 -4.77,-5 -8.14,-7.33 -12.59,-12.29l-31.26 -44.44c-12.37,-16.97 -29.51,-49.95 -48.18,-58.95 -7.78,17.29 -0.83,106.4 2.47,135.13 10.36,90.22 7.54,156.28 29.17,259.69l21.03 125.28c15.35,95.74 56.09,298.76 84.2,393.36 5.59,18.8 34,112.69 27.91,126.14l-11.19 -4.37c-0.67,-0.41 -1.65,-1.25 -2.35,-1.71l-23.52 -14.08c-26.4,-16.15 -80.96,-64.49 -104.27,-69.39 -1.83,28.8 58.11,216.96 75.45,265.91l76.94 212.4c4.51,12.8 4.32,19.8 7.56,29.86 3.14,9.75 13.42,25.33 13.55,25.69l31.62 85.52c4.45,11.32 5.34,17.73 10.94,30.93 5.37,12.64 5.94,20.42 10.98,30.82l101.3 259.64c-18.53,-18.25 -10.74,-14.87 -24.29,-35.09l-83.78 -117.41c-4.26,-5.86 -9,-12.18 -13.9,-19.13l-41.32 -60.13c-9.31,-13.75 -21.42,-26.76 -28.88,-38.24l-176.98 -288.16c-17.02,-27.84 -33.02,-55.03 -50.68,-83.21l-24.34 -38.28c-44.5,-103.42 -107.13,-203.08 -152.8,-317.55 -12.64,-31.7 -29.37,-64.35 -37.75,-96.24 -4.9,-18.65 -8.6,-33.96 -14.92,-52.1 -6.1,-17.5 -11.64,-32.44 -16.68,-50.22 -9.98,-35.18 -21.72,-70.78 -29.95,-104.01 -8.57,-34.59 -19.93,-75.88 -21.24,-110.65 10.29,1.39 2.24,-1.23 9.41,4.61 12.58,10.25 26.65,34.95 47.72,52.67 11.82,9.95 11.64,12.34 20.65,21.15l59.67 58.01c6.29,7.01 18,17.94 24.44,8.45 6.14,-9.03 -33.08,-69.28 -39.73,-85.39 -16.75,-40.58 -33.41,-84.19 -55.22,-121.05 -8.19,-13.85 -11.1,-29.73 -17.78,-45l-78.69 -173.78c-32.72,-75.35 -64.75,-146.46 -86.78,-227.31l-62.3 -185c-6.92,-18.46 -10.45,-24.03 -16.47,-46.59 -7.91,-29.72 -24.95,-61.3 -33.05,-92.27 -7.56,-28.89 -16.67,-69.71 -26.31,-99.38l-60.36 -221.64c-7.24,-44.66 -8.43,-34.4 -19.17,-77.81 -6.33,-25.62 -21.94,-76.75 -20.76,-105.34 19.33,10.22 99.3,127.17 115.26,154.61l159.71 221.7c14.86,15.66 80.89,112.82 99.9,111.95 -3.11,-11.29 -13.14,-31.89 -20.02,-44.79l-106.83 -263.04c-4.73,-22.1 -9.97,-37.13 -18.7,-56.45 -8.73,-19.3 -12.88,-34.69 -22.04,-53.29l-73.2 -224.18c-6.6,-22.37 -13.36,-38.02 -18.61,-56.73 -5.46,-19.43 -9.31,-40.87 -15.58,-59.99 -6.04,-18.42 -13.76,-32.88 -20.13,-55.39 -3.37,-11.93 -3.62,-17.83 -7.58,-30.12 -5.01,-15.56 -4.18,-11.84 -5.97,-26.38 -3.4,-27.67 -16.01,-53.61 -23.3,-82.08 -28.44,-111 -59.41,-222.56 -77.65,-336.66 -1.48,-9.28 -3.42,-13.54 -5.68,-25.93 -26.68,-146.46 -48.49,-249.34 -69.4,-404.01 -3.5,-25.9 -9.71,-38.1 -11.14,-64.56 -0.98,-18.22 -8.41,-49.72 -6.64,-65.46zm1784.18 967.68c-2.31,15.63 7.25,-6.93 4.19,6.48 -45.12,1.64 -47.92,9.18 -81.46,16.6l-352.92 81.7c-21.23,5.34 -17.55,1.03 -38.02,9.61 -17.85,7.47 -21.89,6.31 -42.83,8.36 -16.64,1.62 -23.92,7.94 -37.7,7.02 -17.38,-1.17 -153.94,-86.8 -183.41,-102.62l-27.54 -18.64c-28.61,-26.77 -101,-73.18 -112.52,-84.31 -29.23,-28.26 -26.23,-21.22 -53.49,-42.81 -99.09,-78.5 -89.49,-69.58 -177.83,-153.59l-75.69 -71.13c-10.93,-10.88 -13.89,-8.59 -25.43,-20.62 -9.46,-9.86 -14.24,-16.71 -24.9,-25.41l-95.54 -89.17 -288.22 -319.71c-19.89,-29.84 -71.29,-83.34 -87.64,-105.3l-32.69 -42.69c-0.55,-0.67 -1.34,-1.63 -1.88,-2.31 -16.86,-21.12 -44.75,-46.22 -40.4,-65.24 22.79,-0.16 288.27,62.87 319.16,67.45l83.72 16.01c10.97,2.21 23.38,1.37 37.65,5.06l191.58 34.46c92.77,10.25 81.18,12.82 183.9,17.61 66.5,3.11 106.5,7.56 165.38,14.68 39.67,4.79 39.12,-6.63 68.99,23.82 17.16,17.48 31.98,31.08 48.72,47.38l255.71 218.04 182.26 136.85c13.86,8 17.95,12.95 29.2,20.86 8.85,6.22 22.51,13.84 30.8,19.54l293.61 196.19c27.58,12.3 39.05,28.1 60.73,40.79l183.37 106.81c-27.84,-3.71 -140.62,19.28 -174.21,22.3 -47.26,4.26 -116.9,19.78 -184.65,25.93zm-1839.02 -1061.8c6.14,28.12 9.13,59.8 14.59,89.63l142.44 778.87c8.1,40.31 13.57,87.79 24.57,126.78l45.51 161.52c6.26,26.22 14.19,52.32 22.12,78.28l17.75 77.04 -146.77 0.89c0.3,18.82 2.59,11.95 4.24,22.09l50.97 253.23 88.36 315.96c2.59,9.65 3.56,13.75 7.26,21.76 2.44,5.3 1.97,2.74 3.41,6.7l25.78 94.26c14.22,55.27 35.95,121.11 52.78,168.64 8.99,25.4 22.91,56.41 30.27,83 13.54,48.92 30.01,80.78 46.77,124.91l49.09 122.87c84.82,194.85 74.79,149.49 17.26,183.22 -3.97,77.28 34.14,216.65 58.53,291.49 3.18,9.74 4.02,20.11 7.27,30.01l41.94 108.49c28.37,55.92 72.65,202.7 113.07,268.72l53.7 96.97c7.38,15.83 4.9,9.87 13.58,24.16 2.76,4.55 5.61,10.31 7.73,13.35l34.72 58.2c19.19,32.45 37.59,62.16 59.45,95.5l87.21 143.36c16.71,31.57 41.46,61.46 58.75,92.38l31.14 44.14c19.49,29.51 42.66,67.05 63.08,92.12l61.79 89.3c10.46,15.54 113.11,163.63 126.64,173.58 9.22,-16.67 -13.92,-91.3 -16.65,-116.31 -9.27,-85.05 -13.56,-173.65 -26.7,-258.57 -6.37,-41.15 -7.11,-88.92 -10.96,-118.86 -10.97,-85.52 -8.74,-143.96 -16.17,-213.71 -4.64,-43.59 -4.16,-165.52 -8.03,-224.92 -0.97,-14.88 3.2,-37.75 3.25,-60.7 16.83,-10.77 38.09,-17.46 55.11,-28.22 30.2,-19.07 104.87,-37.66 112.32,-54.69l1.5 -235.03c-1.25,-25.51 18.81,-259.78 27.66,-299.42 19.16,-85.8 37.56,-180.39 69.87,-260.55 9.5,-23.57 11.67,-37.21 35.83,-47.92 11,-4.88 47.06,-16.37 60.95,-18.33 6.61,-42.3 74.16,-249.89 92.4,-301.68 18.93,-53.77 53.96,-130.09 77.36,-183.58l38.84 -90.84c15.19,-34.69 30.3,-93.83 55.82,-141.22l19.96 -42.81c3.65,-7.07 7.06,-13.64 11.71,-21.73 6.84,-11.91 5.54,-11.93 10.19,-23.32l22.25 -44.79c7.26,-14.34 14.59,-30.38 22.48,-44.62 6.45,-11.63 14.67,-30.7 21.96,-41.17 38.67,-55.52 68.48,-117.19 106.27,-170.78l10.71 -13.96c0.72,-0.99 2.71,-3.99 3.41,-5.03l32.65 -47.32c34.47,-47.91 151.73,-170.14 175.69,-214.13l-248.41 -120.81c-20.52,-9.18 -49.72,-27.01 -63.84,-41.81 -16.65,-17.44 -37.48,-22.55 -55.54,-36.94 -21.12,-16.83 -74.23,-39.93 -106.03,-61.27 -44.6,-29.92 -74.42,-56.66 -123.04,-82.09 -20.03,-10.49 -41.95,-32.3 -59.96,-44.99l-268.27 -201.69c-14.22,-16.29 -14.34,-9.86 -27.64,-22.39 -0.35,-0.33 -5.03,-5.65 -5.86,-6.54l-94.38 -77.37c-43.89,-35.44 -78.3,-74.56 -124.85,-106.36 -23.86,-16.31 -38.65,-33.21 -69.58,-34.12 -63.19,-1.86 -125.67,-3.97 -188.96,-13.66 -15.73,-2.41 -28.13,-6.18 -45.12,-8.31l-216.84 -30.74c-27.02,-5.26 -65.39,-5.43 -95.8,-8.84l-86.12 -18.78c-25.69,-7.37 -57.19,-10.59 -83,-17.51 -55.79,-14.96 -135.42,-19.04 -177.87,-31.64 -25.75,-7.64 -61.09,-13.99 -82.9,-21.81 -24.01,-8.62 -56.22,-23.57 -80.67,-19.54z"/>
   <path class="fil1" d="M2760.96 1155.04c3.06,-13.41 -6.5,9.15 -4.19,-6.48 67.75,-6.15 137.39,-21.67 184.65,-25.93 33.59,-3.02 146.37,-26.01 174.21,-22.3l-183.37 -106.81c-21.68,-12.69 -33.15,-28.49 -60.73,-40.79l-293.61 -196.19c-8.29,-5.7 -21.95,-13.32 -30.8,-19.54 -11.25,-7.91 -15.34,-12.86 -29.2,-20.86l-182.26 -136.85 -255.71 -218.04c-16.74,-16.3 -31.56,-29.9 -48.72,-47.38 -29.87,-30.45 -29.32,-19.03 -68.99,-23.82 -58.88,-7.12 -98.88,-11.57 -165.38,-14.68 -102.72,-4.79 -91.13,-7.36 -183.9,-17.61l-191.58 -34.46c-14.27,-3.69 -26.68,-2.85 -37.65,-5.06l-83.72 -16.01c-30.89,-4.58 -296.37,-67.61 -319.16,-67.45 -4.35,19.02 23.54,44.12 40.4,65.24 0.54,0.68 1.33,1.64 1.88,2.31l32.69 42.69c16.35,21.96 67.75,75.46 87.64,105.3l288.22 319.71 95.54 89.17c10.66,8.7 15.44,15.55 24.9,25.41 11.54,12.03 14.5,9.74 25.43,20.62l75.69 71.13c88.34,84.01 78.74,75.09 177.83,153.59 27.26,21.59 24.26,14.55 53.49,42.81 11.52,11.13 83.91,57.54 112.52,84.31l27.54 18.64c29.47,15.82 166.03,101.45 183.41,102.62 13.78,0.92 21.06,-5.4 37.7,-7.02 20.94,-2.05 24.98,-0.89 42.83,-8.36 20.47,-8.58 16.79,-4.27 38.02,-9.61l352.92 -81.7c33.54,-7.42 36.34,-14.96 81.46,-16.6z"/>
   <path class="fil1" d="M1890.17 2849.59c14.88,-0.81 45.53,-22.61 62.5,-31.44 23,-11.95 39.15,-25.17 60.25,-40.25 21.97,-15.71 40.62,-22.67 64.78,-35.83 27.6,-15.03 39.7,-27.86 69.88,-27.86 -13.06,51.03 -67.41,76.26 -114.81,95.93 -35.43,14.69 -65.76,39.89 -102.32,61.02 -13.46,7.78 -24.97,11.07 -23.34,28.4 10.49,-1.02 54.16,-30.93 58.46,-34.89 12.67,-11.63 45.51,-34.92 64.54,-33.22 7.97,42.81 -79.46,89.12 -111.88,108.25 -10.32,6.09 -11.02,3.51 -10.75,18.61 17.22,3.61 30.76,-9.04 44.35,-18.85l4.89 -3.67c17.16,-14.79 7.84,-18.52 33,-17.79 2.59,65.9 -53.99,60.57 -59.46,88.14 -7.68,38.66 62.08,279.57 73.94,324.32 5.1,19.24 7.53,34.69 13.52,53.57 2.27,7.17 5.04,19.31 7.02,26.4 3.69,13.3 9.33,17.89 5.36,25.07 15.18,-0.16 0.93,0.33 13.7,-4.93l174.85 -86.08c11.82,-6.3 21.34,-11.31 33.01,-17.24 24.97,-12.69 39.03,-1.49 42.17,-36.93l3.91 -96.03c2.86,-33.77 -3.5,-71.44 3.38,-97.15l1.21 -40.67c0.03,-55.84 11.14,-184.38 26.94,-241.54 0.2,-0.74 0.6,-1.91 0.75,-2.67 2.14,-10.65 -1.93,-18.53 -1.27,-27.61 4.19,-56.9 55.35,-206.61 63.77,-252.49 -24.37,2.67 -53.86,16.91 -73.8,27.08 -16.99,8.66 -22.33,27.35 -44.28,61 -21.43,32.85 -7.04,25.93 -57.06,43.62 -56.01,19.82 -91.14,32.63 -143.07,62.32 -11.36,6.5 -21.23,10.61 -32.68,17.54 -16.09,9.75 -24.96,9.53 -37.78,16.79 -20.44,11.56 -16.2,18.01 -59.11,41.4 -11.6,6.32 -18.92,12.78 -30.86,19.36 -21.92,12.08 -23.54,3.35 -23.71,28.32z"/>
   <path class="fil1" d="M1939.95 3584.74c17.32,-0.92 33.52,-18.96 57.33,-29.28 15.46,-6.7 53.9,-25.18 70.16,-27.1 -3.5,22.65 -17.02,31.49 -35.31,44.84 -2.32,1.7 -4.47,3.29 -7.14,5.21 -31.12,22.47 -75.8,24.38 -69.9,44.92l20.21 -1.68c6.49,-3.16 12.41,-7.96 18.03,-11.9 10.58,-7.43 31.69,-28.46 34.86,-3.9 4.29,33.19 -46.45,40.92 -60.52,67.22 -2.28,11.56 148.16,394.42 158.99,420.99 9.86,24.19 17.46,46.81 26.87,69.43 8.98,21.55 16.15,49.77 28.92,66.63 3.55,-5.71 -15.3,-157.37 -17.32,-175.23 -13.43,-118.6 -31.43,-227.07 -33.49,-346.62l-7.88 -221.19c-1.81,-10.52 -3.26,-17.27 -4.38,-31.87 -27.56,16.93 -7.61,40.37 -83.22,70.88 -42.18,17.02 -75.65,27.84 -96.21,58.65z"/>
   <path class="fil3" d="M998.75 210.1c-9.83,-11.64 -18.41,-15.45 -26.16,-29.22 -1.77,15.74 5.66,47.24 6.64,65.46 1.43,26.46 7.64,38.66 11.14,64.56 20.91,154.67 42.72,257.55 69.4,404.01 2.26,12.39 4.2,16.65 5.68,25.93 18.24,114.1 49.21,225.66 77.65,336.66 7.29,28.47 19.9,54.41 23.3,82.08 1.79,14.54 0.96,10.82 5.97,26.38 3.96,12.29 4.21,18.19 7.58,30.12 6.37,22.51 14.09,36.97 20.13,55.39 6.27,19.12 10.12,40.56 15.58,59.99 5.25,18.71 12.01,34.36 18.61,56.73l73.2 224.18c9.16,18.6 13.31,33.99 22.04,53.29 8.73,19.32 13.97,34.35 18.7,56.45l106.83 263.04c6.88,12.9 16.91,33.5 20.02,44.79 -19.01,0.87 -85.04,-96.29 -99.9,-111.95l-159.71 -221.7c-15.96,-27.44 -95.93,-144.39 -115.26,-154.61 -1.18,28.59 14.43,79.72 20.76,105.34 10.74,43.41 11.93,33.15 19.17,77.81l60.36 221.64c9.64,29.67 18.75,70.49 26.31,99.38 8.1,30.97 25.14,62.55 33.05,92.27 6.02,22.56 9.55,28.13 16.47,46.59l62.3 185c22.03,80.85 54.06,151.96 86.78,227.31l78.69 173.78c6.68,15.27 9.59,31.15 17.78,45 21.81,36.86 38.47,80.47 55.22,121.05 6.65,16.11 45.87,76.36 39.73,85.39 -6.44,9.49 -18.15,-1.44 -24.44,-8.45l-59.67 -58.01c-9.01,-8.81 -8.83,-11.2 -20.65,-21.15 -21.07,-17.72 -35.14,-42.42 -47.72,-52.67 -7.17,-5.84 0.88,-3.22 -9.41,-4.61 1.31,34.77 12.67,76.06 21.24,110.65 8.23,33.23 19.97,68.83 29.95,104.01 5.04,17.78 10.58,32.72 16.68,50.22 6.32,18.14 10.02,33.45 14.92,52.1 8.38,31.89 25.11,64.54 37.75,96.24 45.67,114.47 108.3,214.13 152.8,317.55l24.34 38.28c17.66,28.18 33.66,55.37 50.68,83.21l176.98 288.16c7.46,11.48 19.57,24.49 28.88,38.24l41.32 60.13c4.9,6.95 9.64,13.27 13.9,19.13l83.78 117.41c13.55,20.22 5.76,16.84 24.29,35.09l-101.3 -259.64c-5.04,-10.4 -5.61,-18.18 -10.98,-30.82 -5.6,-13.2 -6.49,-19.61 -10.94,-30.93l-31.62 -85.52c-0.13,-0.36 -10.41,-15.94 -13.55,-25.69 -3.24,-10.06 -3.05,-17.06 -7.56,-29.86l-76.94 -212.4c-17.34,-48.95 -77.28,-237.11 -75.45,-265.91 23.31,4.9 77.87,53.24 104.27,69.39l23.52 14.08c0.7,0.46 1.68,1.3 2.35,1.71l11.19 4.37c6.09,-13.45 -22.32,-107.34 -27.91,-126.14 -28.11,-94.6 -68.85,-297.62 -84.2,-393.36l-21.03 -125.28c-21.63,-103.41 -18.81,-169.47 -29.17,-259.69 -3.3,-28.73 -10.25,-117.84 -2.47,-135.13 18.67,9 35.81,41.98 48.18,58.95l31.26 44.44c4.45,4.96 7.82,7.29 12.59,12.29 8.66,9.08 14.65,18.75 21.93,28.35 21.33,28.14 56.88,44.78 74.25,77.41 6.83,-6.84 3.89,-1.67 9.08,-11.96 6.04,-11.96 3.1,-27.19 3.83,-40.61 1.18,-21.81 1.97,-40.51 3.21,-59.36 1.79,-27.33 1.19,-60.95 6.63,-86.32l15.29 -249.33c4.8,-103.96 29.74,-211.47 38.9,-318.07l23.76 -195.06c11.88,-67.11 31.31,-131.64 45.37,-197.72 4.11,-19.34 16.92,-82.99 22.68,-94.41l3.69 -13.24c0.73,-38.95 20.22,-46.08 -35.1,-71.2 -4.12,-1.87 -15.38,-8.35 -18.81,-10.7l-182.67 -119.57c-23.9,-16.67 -45.75,-38.1 -68.48,-53.01l-133.48 -109.44c-10.54,-10.47 -22.81,-19.46 -33.7,-29.53 -11.17,-10.34 -17.89,-15.09 -33.06,-26.41l-141.99 -134.26c-7.62,-7.89 -6.91,-6.88 -15.2,-13.78 -32.67,-27.18 -58.61,-61.35 -92.01,-88.57 -22.12,-18.02 -40.63,-41.31 -60.29,-61.1l-144.66 -161.42c-9.89,-10.76 -18.56,-18.34 -28.36,-29.99 -10.48,-12.45 -18.85,-20.37 -29.46,-33.6 -48.43,-60.42 -119.29,-138.39 -159.77,-192.33 -2.57,-3.44 -1.33,-2.36 -5.5,-7.3z"/>
  </g>
 </g>
</svg>
