<?xml version="1.0" encoding="UTF-8"?>
<!DOCTYPE svg PUBLIC "-//W3C//DTD SVG 1.1//EN" "http://www.w3.org/Graphics/SVG/1.1/DTD/svg11.dtd">
<!-- Creator: CorelDRAW 2017 -->
<svg xmlns="http://www.w3.org/2000/svg" xml:space="preserve" width="3.8946mm" height="4.2332mm" version="1.1" style="shape-rendering:geometricPrecision; text-rendering:geometricPrecision; image-rendering:optimizeQuality; fill-rule:evenodd; clip-rule:evenodd"
viewBox="0 0 389.46 423.32"
 xmlns:xlink="http://www.w3.org/1999/xlink">
 <defs>
  <style type="text/css">
   <![CDATA[
    .fil0 {fill:#040608}
   ]]>
  </style>
 </defs>
 <g id="Capa_x0020_1">
  <metadata id="CorelCorpID_0Corel-Layer"/>
  <path class="fil0" d="M124.94 342.69c14.07,-13.49 25.13,-0.54 21.22,9.19 -4.16,10.34 -23.17,12.73 -21.22,-9.19zm223.16 -96.74c-2.95,9.49 13.87,19.92 2.15,48.05 -8.26,19.8 -21.98,23.29 -32.7,29.87l2.43 8.64c7.72,2.32 62.89,-19.35 38.68,-87.77l-10.56 1.21zm-317.81 -50.2l10.3 -2.67c-1.79,-19.11 -8.53,-27.76 3.51,-47.63 6.98,-11.5 20.11,-21.21 37.89,-23.48l-4.69 -10.82c-39.68,3.87 -61.33,47.93 -47.01,84.6zm338.56 45.22c10.87,33.93 17.64,59.21 -16.6,89.15 -9.96,8.7 -18.34,9.06 -26.53,15.05l2.91 9.39c44.89,-8.7 75.64,-59.56 51.47,-115.54l-11.25 1.95zm-359.42 -39.03l9.75 -2.45c-3.89,-22.97 -16.62,-57.65 22.58,-86.13 9.91,-7.2 18.5,-7.81 29.4,-13.18 -2.78,-9.41 -2.65,-10.73 -13.64,-7.79 -47.67,12.77 -70.19,79.65 -48.09,109.55zm121.23 12.84c-7.49,27.17 23.78,36.93 34.54,15.6 7.2,-14.29 15.29,-36.15 23.52,-48.38 10.98,2.64 53.94,13.1 61.04,18.46l-18.81 40.21c-36.06,-33.42 -48.56,20.32 -14.78,20.84 13.11,0.21 16.48,-11.81 21.61,-22.42 7.84,-16.21 22.84,-44.42 27.75,-60.21l-72.19 -21.14 -30.52 62.31c-10.22,-8.17 -16.8,-13.17 -32.16,-5.27zm46.49 -160.71l158.27 75.94c-3.64,13.58 -105.43,224.43 -108.82,227.78l-157.36 -74.98 107.91 -228.74zm88.84 19.66c-13.04,-6.06 -23.48,-8.38 -27.38,-16.15 6.66,-4.33 8.45,-1.44 17.33,2.78 8.67,4.13 38.33,15.14 40.29,22.78 -7.6,5.77 -22.51,-5.81 -30.24,-9.41zm107.04 16.2l-186.91 -87.96 -156.86 331.24 186.61 88.15 157.16 -331.43z"/>
 </g>
</svg>
