<?xml version="1.0" encoding="UTF-8"?>
<!DOCTYPE svg PUBLIC "-//W3C//DTD SVG 1.1//EN" "http://www.w3.org/Graphics/SVG/1.1/DTD/svg11.dtd">
<!-- Creator: CorelDRAW 2017 -->
<svg xmlns="http://www.w3.org/2000/svg" xml:space="preserve" width="5.7572mm" height="5.7572mm" version="1.1" style="shape-rendering:geometricPrecision; text-rendering:geometricPrecision; image-rendering:optimizeQuality; fill-rule:evenodd; clip-rule:evenodd"
viewBox="0 0 575.72 575.72"
 xmlns:xlink="http://www.w3.org/1999/xlink">
 <defs>
  <style type="text/css">
   <![CDATA[
    .str3 {stroke:#FEFEFE;stroke-width:10.88;stroke-linecap:round;stroke-linejoin:round;stroke-miterlimit:22.9256}
    .str1 {stroke:#FEFEFE;stroke-width:10.88;stroke-linecap:round;stroke-linejoin:round;stroke-miterlimit:22.9256}
    .str0 {stroke:#FEFEFE;stroke-width:10.89;stroke-linecap:round;stroke-linejoin:round;stroke-miterlimit:22.9256}
    .str2 {stroke:#FEFEFE;stroke-width:10.89;stroke-linecap:round;stroke-linejoin:round;stroke-miterlimit:22.9256}
    .fil0 {fill:none}
    .fil1 {fill:#373435}
    .fil3 {fill:url(#id0)}
    .fil2 {fill:url(#id1)}
   ]]>
  </style>
  <linearGradient id="id0" gradientUnits="userSpaceOnUse" x1="83.21" y1="286.48" x2="400.88" y2="508.81">
   <stop offset="0" style="stop-opacity:1; stop-color:#0043C9"/>
   <stop offset="0.211765" style="stop-opacity:1; stop-color:#3E4095"/>
   <stop offset="0.45098" style="stop-opacity:1; stop-color:#00AFEF"/>
   <stop offset="0.670588" style="stop-opacity:1; stop-color:#0043C9"/>
   <stop offset="1" style="stop-opacity:1; stop-color:#3E4095"/>
  </linearGradient>
  <linearGradient id="id1" gradientUnits="userSpaceOnUse" xlink:href="#id0" x1="83.22" y1="286.48" x2="400.89" y2="508.81">
  </linearGradient>
 </defs>
 <g id="Capa_x0020_1">
  <metadata id="CorelCorpID_0Corel-Layer"/>
  <rect class="fil0" x="-0" y="-0" width="575.73" height="575.73"/>
  <g id="_2368309627744">
   <g>
    <g>
     <g>
      <path class="fil0 str0" d="M167.17 275.59c-41.16,-32.09 -66.03,-50.94 -123.99,-21.15 -28.64,104.02 89,134.92 127.71,64.26 31.23,-57 57.67,-137.77 91.42,-187.97 41.44,9.95 203.59,49.45 229.24,69.11l-70.54 151.97c-129.86,-121.61 -183.89,66.56 -61.67,78.58 53.44,5.26 64.84,-36.65 85.54,-78.82 30.61,-62.39 88.75,-172.81 107.86,-234.3l-273.83 -81.92 -111.74 240.24z"/>
      <path id="1" class="fil1" d="M167.17 275.59c-41.16,-32.09 -66.03,-50.94 -123.99,-21.15 -28.64,104.02 89,134.92 127.71,64.26 31.23,-57 57.67,-137.77 91.42,-187.97 41.44,9.95 203.59,49.45 229.24,69.11l-70.54 151.97c-129.86,-121.61 -183.89,66.56 -61.67,78.58 53.44,5.26 64.84,-36.65 85.54,-78.82 30.61,-62.39 88.75,-172.81 107.86,-234.3l-273.83 -81.92 -111.74 240.24z"/>
     </g>
     <g>
      <path class="fil0 str1" d="M531.81 365.83c-11.38,73.56 -22.37,127.12 -114.34,151.08 -26.75,6.95 -42.76,-0.21 -63.65,3.33l-3.36 20.26c92.04,25.71 197.04,-40.6 204.23,-167.82l-22.88 -6.85zm-43.43 -10.1c-14.38,14.99 7.32,50.18 -40.9,91.8 -33.95,29.3 -62.84,22.97 -89.04,25.25l-3.51 18.41c12.23,11.57 135.61,22.65 154.33,-127.86l-20.88 -7.6z"/>
      <path id="1" class="fil1" d="M531.81 365.83c-11.38,73.56 -22.37,127.12 -114.34,151.08 -26.75,6.95 -42.76,-0.21 -63.65,3.33l-3.36 20.26c92.04,25.71 197.04,-40.6 204.23,-167.82l-22.88 -6.85zm-43.43 -10.1c-14.38,14.99 7.32,50.18 -40.9,91.8 -33.95,29.3 -62.84,22.97 -89.04,25.25l-3.51 18.41c12.23,11.57 135.61,22.65 154.33,-127.86l-20.88 -7.6z"/>
     </g>
    </g>
    <g id="_2368309561376">
     <g>
      <path class="fil0 str2" d="M172.04 263.9c-41.15,-32.09 -66.02,-50.94 -123.98,-21.15 -28.65,104.01 89,134.92 127.71,64.26 31.22,-57 57.67,-137.77 91.42,-187.97 41.44,9.95 203.59,49.45 229.23,69.11l-70.53 151.97c-129.86,-121.62 -183.89,66.56 -61.67,78.58 53.43,5.26 64.84,-36.65 85.53,-78.83 30.61,-62.38 88.75,-172.81 107.87,-234.29l-273.83 -81.92 -111.75 240.24z"/>
      <path id="1" class="fil1" d="M172.04 263.9c-41.15,-32.09 -66.02,-50.94 -123.98,-21.15 -28.65,104.01 89,134.92 127.71,64.26 31.22,-57 57.67,-137.77 91.42,-187.97 41.44,9.95 203.59,49.45 229.23,69.11l-70.53 151.97c-129.86,-121.62 -183.89,66.56 -61.67,78.58 53.43,5.26 64.84,-36.65 85.53,-78.83 30.61,-62.38 88.75,-172.81 107.87,-234.29l-273.83 -81.92 -111.75 240.24z"/>
     </g>
     <g>
      <path class="fil0 str3" d="M536.69 354.14c-11.39,73.55 -22.37,127.12 -114.35,151.07 -26.74,6.95 -42.75,-0.2 -63.64,3.33l-3.36 20.27c92.03,25.71 197.04,-40.61 204.23,-167.82l-22.88 -6.85zm-43.44 -10.11c-14.37,14.99 7.32,50.19 -40.89,91.8 -33.96,29.31 -62.84,22.98 -89.04,25.25l-3.51 18.42c12.22,11.57 135.61,22.64 154.33,-127.86l-20.89 -7.61z"/>
      <path id="1" class="fil1" d="M536.69 354.14c-11.39,73.55 -22.37,127.12 -114.35,151.07 -26.74,6.95 -42.75,-0.2 -63.64,3.33l-3.36 20.27c92.03,25.71 197.04,-40.61 204.23,-167.82l-22.88 -6.85zm-43.44 -10.11c-14.37,14.99 7.32,50.19 -40.89,91.8 -33.96,29.31 -62.84,22.98 -89.04,25.25l-3.51 18.42c12.22,11.57 135.61,22.64 154.33,-127.86l-20.89 -7.61z"/>
     </g>
    </g>
   </g>
   <g>
    <path class="fil2" d="M150.75 267.66c-41.12,-32.06 -65.97,-50.9 -123.89,-21.13 -28.62,103.94 88.94,134.81 127.62,64.21 31.2,-56.95 57.63,-137.67 91.35,-187.83 41.41,9.95 203.43,49.41 229.06,69.06l-70.48 151.86c-129.77,-121.53 -183.75,66.51 -61.62,78.52 53.39,5.25 64.79,-36.63 85.47,-78.77 30.58,-62.34 88.68,-172.68 107.78,-234.12l-273.62 -81.86 -111.67 240.06z"/>
    <path class="fil3" d="M515.12 357.83c-11.37,73.5 -22.35,127.03 -114.25,150.97 -26.73,6.94 -42.73,-0.2 -63.6,3.32l-3.36 20.25c91.97,25.69 196.89,-40.57 204.08,-167.69l-22.87 -6.85zm-43.4 -10.09c-14.36,14.98 7.32,50.14 -40.86,91.73 -33.93,29.28 -62.79,22.95 -88.98,25.23l-3.5 18.4c12.22,11.56 135.51,22.63 154.21,-127.76l-20.87 -7.6z"/>
   </g>
  </g>
 </g>
</svg>
